<?xml version="1.0" encoding="utf-8"?>
<!-- Generator: Adobe Illustrator 18.1.1, SVG Export Plug-In . SVG Version: 6.00 Build 0)  -->
<!DOCTYPE svg PUBLIC "-//W3C//DTD SVG 1.1//EN" "http://www.w3.org/Graphics/SVG/1.1/DTD/svg11.dtd">
<svg version="1.1" id="Слой_1" xmlns="http://www.w3.org/2000/svg" xmlns:xlink="http://www.w3.org/1999/xlink" x="0px" y="0px"
	 viewBox="0 0 426.1 102" enable-background="new 0 0 426.1 102" xml:space="preserve">
<g>
	<path fill="#FFFFFF" d="M23.4,21.1c4.9,0,9.9,1.2,15.1,3.6l11.3,10.2v0.5c-0.8,0.9-3.1,2.6-6.7,5.1h-1.6c-0.6-0.8-1.7-1.4-3.2-1.8
		c-1.2-1.2-2-1.8-2.4-1.8l-2.9,0.7H32l-0.6-0.5v-0.2l0.8-0.9l-1.1-0.6h-0.8l-4.3,2.9c0,1.8,2.3,3.7,7,5.8l9.7,5.5
		c1,0,2.9,1.6,5.7,4.7c3.6,3.1,5.4,4.7,5.4,5.1c0.7,0.8,1.1,1.7,1.1,2.7l-0.5,1.6l0.3,0.2c0,1.8-3,6.2-8.9,13.1
		c-1.5,0.4-2.9,1-4,1.8l0.3,0.2v0.2l-1.6,0.6l-3.5-0.2L35,80c0-0.4-0.4-0.6-1.1-0.6l-1.1,0.2c-1.8-1.2-5.9-2.5-12.1-4L15,73.8
		c-4.4-1.8-7.4-4.3-9.2-7.6H5.6l-1.1,0.2L4,65.3l7.5-7.8l-0.3-0.7l0.8-0.9c1,0.3,1.9,1,2.7,2c3.8,1.9,7.1,3.9,10,6
		c0.5,0,0.8,0.3,0.8,0.9h0.3c2.2,0,3.5-1.3,4-3.8c0.2,0,0.4-0.5,0.5-1.6c0-1.9-2.2-3.7-6.5-5.5l-9.2-4.7c-4.3-1.4-6.5-2.6-6.5-3.8
		C5.4,44,4,41.5,4,38v-1.6l0.3-0.2V36L4,35.7v-0.2c0.5-3.1,2.1-5.8,4.6-8.2c2.2-2.3,5.8-4.3,10.8-5.8L23.4,21.1z M6.1,34.9v2.7
		c0,3.7,1.3,5.5,3.8,5.5v0.5H9.7l-0.8-0.2v0.2c2.9,2.9,6,4.8,9.2,5.8l11.3,5.3c1.5,1.3,2.9,3,4,4.9v0.2c0,2.9-1.3,4.8-3.8,5.8
		l-3.2,0.6c-2.9,0-4.3-0.2-4.3-0.5L21.8,66h-0.3c-1.6-0.4-3.1-1.2-4.5-2.7c-0.5,0-1.9-1.4-4.3-4.2h-0.5c0,0.4-1,1.8-3,4.2
		c0,0.7-0.4,1.5-1.3,2.3c1.7,3,6,5.7,12.9,8.2l0.8-0.7h0.3l5.1,1.8H28c3.1-0.5,7.1-2.3,11.8-5.5c2.5-2.5,4.4-6.3,5.7-11.3h-0.5v-0.7
		h0.5v-0.2c0-1.9-0.7-3.2-2.1-4l-0.3,0.2h-0.8v-0.4c0-0.3,0.3-0.5,0.8-0.5v-0.2c-2.8-2.7-6.6-5-11.6-7.1l-14.2-6.2
		c-1.3-1.1-1.9-2-1.9-2.7V36c1-3.1,2.7-4.7,5.1-4.7c0-0.5,2.3-0.8,7-0.9c1.1,0,2.9,1.2,5.4,3.6l1.3-0.2l1.6,0.6
		c3.2-1.7,5.2-3.1,6.2-4v-0.2c-2.7-3.5-6-5.6-9.9-6.5c-2.2-0.9-4.9-1.3-8.1-1.3C18,23.2,15,24.2,15,25.3c-2.3,0-5.1,2.5-8.3,7.6
		L6.1,34.9z M19.9,37.1v0.2l1.1,0.9V38L19.9,37.1z M31.2,75.7v0.5H32v-0.5H31.2z M33.4,76.9v0.7h0.5v-0.2L33.4,76.9z M35.5,74.2
		c0,0.3,0.6,0.7,1.9,1.3v-0.5c-0.4-0.9-0.8-1.3-1.1-1.3H36L35.5,74.2z M37.7,72.9v0.6l2.4,2v-0.2l-1.6-2.4H37.7z M37.9,35.3V36
		l2.1,0.9v-0.2l-1.6-1.3H37.9z M39.3,34.6v0.2l1.9,1.1h0.3c0-0.8-0.5-1.3-1.6-1.8L39.3,34.6z M39.5,71.8V72l2.7,1.8v-0.2
		c-0.7-1.5-1.3-2.3-1.6-2.4L39.5,71.8z M41.4,32.6l0.5,0.4h0.3l-0.6-0.4H41.4z M41.7,69.7v0.5l1.4,1.3v-0.2l-0.5-1.6H41.7z
		 M42.8,68.9c0.5,1,1.3,2.1,2.4,3.1v-0.2c-1.2-1.6-1.9-2.7-1.9-3.4L42.8,68.9z M43.6,31.5V32l2.9,2.7h0.3v-0.2
		c-0.5-0.9-1.5-1.9-2.9-2.9H43.6z M44.7,65.6l-0.3,1.1l0.5,0.4v0.2l-0.8-0.5h-0.3L43.6,68v0.2c1.4,1.1,2.1,2.1,2.1,2.9l0.3-0.2h0.3
		l0.3,0.2v0.2l-0.3,0.2H46l0.3,0.6h0.3l0.5-0.9v-0.2l-2.1-3.3v-0.5l0.8-0.2C45.5,66.1,45.1,65.6,44.7,65.6z M43.9,73.8v0.6l0.5-0.4
		v-0.2H43.9z M45.7,63.5l-0.3,0.2v1.1l1.9,2.2h0.3v-0.6C46.7,64.5,46,63.5,45.7,63.5z M46.8,60.2l-0.3,0.2v0.6l2.7,3.1v-0.5
		C48,61.5,47.2,60.3,46.8,60.2z M46.8,62.9v0.2l1.1,1.8h0.3v-0.2C47.7,63.5,47.2,62.9,46.8,62.9z M47.6,57.1l-0.3,1.1v0.5
		c0,0.6,0.7,1.6,2.1,3.1h0.3v-0.7c0-0.8-0.6-2.1-1.9-4H47.6z M50.6,59.7V60l0.5,2.7L50,62.9v0.4l0.3,1.3L49.8,66v0.2l0.5,0.5
		l1.3-4.2v-0.9l-0.8-1.8H50.6z"/>
	<path fill="#FFFFFF" d="M73.2,36.5h1.2c1.5,0,4.5,0.9,9,2.6c1.3,0,4.8,2.7,10.2,8c0.9,1.8,1.4,2.6,1.7,2.6l0.7-0.2l0.2,0.6l0.7,7.1
		l-0.7,0.5l-1.9-0.9c-1,0.2-1.5,0.4-1.5,0.6c0.8,0,1.2,0.2,1.2,0.5v0.2c0,0.7-2.5,1.2-7.6,1.5c0,0.2-1.4,0.4-4.1,0.6v0.2
		c2.3,1.5,3.6,2.2,4.1,2.2c0-0.3,0.2-0.5,0.7-0.5c0.3,0,1,0.6,1.9,1.8c0.7,0,2.5,1.7,5.6,5.1v0.2l-0.5,0.7v0.2
		c0.8,0.1,1.2,0.3,1.2,0.6l-2.7,2.4c-3.1,3.5-5.7,5.3-7.8,5.3c0,0.3-0.9,0.5-2.7,0.7l0.2,0.2V80c-4.5,0-11.2-2.8-20.2-8.4
		c-2.9-3.1-4.6-6.4-5.3-9.9l-1-6.4v-0.4h0.5v-1.1l-0.5-0.6c0-3.4,1.8-7.1,5.3-11C64,39.6,67.9,37.7,73.2,36.5z M58.1,48.9l0.2,0.2
		v0.2l-1,4l0.2,0.7l-0.2,1.8c1.4,7.4,2.4,11,3.2,11c0,1.4,4.1,3.6,12.2,6.6l1.2,0.2h2.4c6-1.3,9-2.8,9-4.4c0.7,0,1.6-1,2.7-3.1
		l-0.2-0.2c0-0.3-1.1-1.1-3.4-2.4l-1-0.4h-0.5c-1,2.3-2.2,3.7-3.6,4.2c-0.9,0.1-1.7,0.4-2.2,0.9h-1.5c-5.7-2.7-8.5-4.9-8.5-6.4
		c-0.4-0.4-0.6-1.1-0.7-2.2v-1.1c0-1.1,0.7-2,2.2-2.9l0.7,0.2c0-0.3,2.3-0.8,6.8-1.5c4-1.5,8.1-2.2,12.4-2.2v-0.2l-0.2-0.9l1.2-0.2
		c0-2.5-1.4-5.4-4.2-8.6l-5.8-3.3l-4.6-1.1l-1,0.2l-0.8-0.2c-4.9,1.6-8.2,3-9.7,4.2c-1,0.9-2.7,3.1-5.3,6.8V48.9z M73.2,43.6
		c3.1,0.7,5,1.4,5.6,2l0.2-0.2h0.5c1,0.1,1.5,0.3,1.5,0.7v0.4h-0.5l0.7,1.8v0.7l-0.5,0.4h-1.9l-1.2,0.2v-0.2l-6.1,1.6h-0.3L71,50.6
		l-2.4,0.5c-0.8,0-1.5-0.7-2.2-2C67.9,45.4,70.2,43.6,73.2,43.6z M69.6,48.6v0.2l2.4-1.1v-0.5C70.7,47.3,69.9,47.7,69.6,48.6z
		 M69.8,57.2l0.5,0.5h0.2L70,57.2H69.8z M70.5,57.9v0.2c0,0.4,0.4,0.6,1.2,0.6l-0.2,1.1l0.7,0.4v-0.9h0.2l0.3,0.2H73v-0.2l-1.2-0.9
		C71.7,58.2,71.3,58,70.5,57.9z M71.2,56.2l0.8,0.6h0.2v-0.2l-0.5-0.4H71.2z M72,61.7l-0.3,0.2v0.6H72v-0.6h0.5v0.6l-0.2,0.2V63
		l1,0.6c0-0.4,0.3-0.6,0.8-0.6v-0.5c0-0.4-0.6-0.8-1.9-1.1V61.7z M73,64.1v0.2l0.7,0.9h0.3V65L73,64.1z M73.5,48.4v0.7
		c1-0.4,1.5-0.7,1.5-0.9V48L73.5,48.4z M73.5,59.9v0.2l0.5,1.1l0.5-0.5L73.5,59.9z M74.2,58.1v0.4h1.2v-0.4H74.2z M75.1,63.2
		c0.4,1.8,1,2.6,1.7,2.6c3.3-1,4.9-2.3,4.9-3.7C81.2,62,81,61.5,81,60.8c-3.7,0.3-5.6,1-5.6,2v0.5H75.1z M75.9,59.4v0.5l0.7-0.2
		v-0.2H75.9z M77.8,74.9l0.2,0.2v0.2l-0.2,0.2h-0.3l-1.7-0.6v0.2c0,0.5,1.1,0.8,3.4,1.1l1.2-0.2l-1.2-1.6h-1L77.8,74.9z M76.6,58.6
		V59h1.2v-0.2L76.6,58.6z M89.5,53.5l-0.3,0.7L89,53.9h-3.4c-0.3,0-0.5,0.2-0.5,0.6L82,54.4c0,0.3,0.3,0.5,1,0.5v0.4h-0.2l-0.2-0.2
		l-0.3,0.2h-0.7l-0.7-0.4L80,55.1v-0.2c-1.1,0.2-1.7,0.4-1.7,0.6c0.5,0,0.7,0.2,0.7,0.5c-0.5,0-0.7,0.1-0.7,0.4l8.8,1.6h0.2v-0.2
		c-2.5-0.5-4.1-1-4.6-1.5v-0.2h0.5l2.7,0.6l0.2-0.2h0.3c2,0.8,3.1,1.5,3.4,2c2-0.3,2.9-0.5,2.9-0.9l-4.4-1.3l-2.9-0.5l0.3-0.2v-0.2
		l4.8,0.9l0.3-0.2h1.2l0.3,0.2h0.2v-0.5c0-0.3-0.2-0.5-0.7-0.5l-0.2-0.2v-0.2l0.2-0.6c-0.3,0-0.5-0.2-0.5-0.7H89.5z M78.3,78.2
		l0.3,0.6h0.2l1.2-0.4L79.5,78L78.3,78.2z M79.3,57.7c0,0.4-0.2,0.6-0.7,0.6v0.2l2.2,0.5h0.5v-0.2c-1.1,0-1.7-0.4-1.7-1.1H79.3z
		 M79.5,55.5l2.2,0.2l-0.3,0.2v0.2l-0.7-0.2L80,56.2l-0.2-0.2l-0.3,0.2l-0.2-0.2v-0.2L79.5,55.5z M89.3,67c0,0.8-1.1,2.2-3.4,4.2
		c0,0.4-0.3,0.6-1,0.6v0.6l-0.3-0.2h-0.2l-1,1.1l-1-0.2c-0.4,0.1-0.8,0.4-1,1.1L80.2,74H80v0.6l2.2,0.9c0-0.4,0.3-0.6,1-0.6l0.7,0.5
		l1-0.7v-0.2c-0.5,0-0.8-0.1-0.8-0.4v-0.5l1.2,0.7h0.3V74l-0.7-1.6h0.2l1.5,1.1v-0.2L85.9,72v-0.2h0.5c0,0.4,0.4,0.7,1.2,1.1h0.2
		v-0.6L87.6,72v-0.2l0.2-0.2h0.5l0.2,0.2h0.3v-0.2l-0.5-1.3l1.9,1.3h0.2l-0.7-1.5c0.1-0.9,0.3-1.5,0.7-2v-0.2
		c-0.5,0-0.7-0.2-0.7-0.6L89.5,67H89.3z M81.2,78.6v0.2h0.5v0.2l0.7-0.2v-0.2H81.2z M82.7,58.1v0.2l1.9,0.7l1.2-0.2v-0.2
		c-1.1,0-1.7-0.1-1.7-0.4l-0.2,0.2h-0.2l-0.8-0.2H82.7z M89.3,45.1l0.3,1.1H90l0.5-0.4l-1-0.7H89.3z M89.8,50.6v0.5h0.7L90,50.6
		H89.8z M90.5,69.2c0.7,1.9,1.1,2.9,1.5,2.9l0.3-0.2v-0.2c0-0.7-0.5-1.5-1.5-2.4H90.5z M90.7,48.6v0.6H91l0.2-0.6H90.7z M91,51.1
		v0.2l0.5,0.5h0.2l-0.2-0.6H91z M91.2,47.5v0.2l0.7,0.6h0.3v-0.6L91.2,47.5z M91.5,68.5v0.2c0.8,1,1.2,1.7,1.2,2.2h0.5l0.3-0.2h0.2
		c-0.6-1.1-1.3-1.9-1.9-2.2H91.5z M93.2,50.4v0.2l1.5,1.8h0.2v-0.2c-0.4-1-0.9-1.6-1.5-1.8H93.2z M94.6,53.3c0.3,1.8,0.6,2.7,1,2.7
		v-0.9c0-1.1-0.2-1.7-0.7-1.8H94.6z M95.4,57.9h0.5l0.5,0.4l-0.2,0.2h-1.2v-0.2L95.4,57.9z"/>
	<path fill="#FFFFFF" d="M109.2,18.8c3.8,2.5,6.5,4.9,8.3,7.1c0.6,0,0.8,0.2,0.8,0.5l0.4,11.7l-0.2,2.2l0.6,9l-0.5,7.3l0.2,1.9
		l0.2,11l0.6,0.8v7.3c0.4,0,0.6,0.2,0.6,0.5v0.2l-0.8,1l-2.6-0.5l-2.8,0.2v-0.2c-3.1,0.4-4.8,0.8-5.1,1.2h-0.4c-0.6-0.9-2.5-3-6-6.3
		h-0.2l-0.6,0.5h-0.4c-0.3,0-0.5-0.8-0.6-2.4c-0.2,0-0.5-1.9-0.8-5.6l0.4-2.4l-0.2-0.2v-0.7h0.2l-0.8-19.3l0.2-13.9l-0.2-0.2V29
		l0.6-7.1l-0.2-1c0-1.3,0.9-1.9,2.8-1.9v0.3l0.6-0.3l1.5,0.3l2.1-0.3h1.1l0.2,0.3L109.2,18.8z M103,20.7h-0.8l0.2,7.3l-0.2,3.2
		l0.4,10.5l-0.2,3.4l0.2,1.2l-0.4,11l0.2,13.9l0.2,0.2h1.1c4.4-0.3,6.6-0.8,6.6-1.7v-8.6l-0.2-3.4l0.2-0.3l-0.4-8.7l0.4-3.2l-0.2-2
		l0.2-3.9l-0.2-0.2v-0.3l0.2-0.2c-0.2-11.6-0.5-17.6-1.1-18.1l-4.2-0.5l-0.6,0.2l-0.2-0.2L103,20.7z M108.4,72.7c0.5,0,1,1,1.5,2.9
		h0.6v-0.2l-0.6-2.2l0.2-0.2h0.2c0.3,0,0.5,0.5,0.6,1.5h0.2c-0.2-1.6-0.5-2.4-1-2.4h-0.5C108.8,72,108.4,72.3,108.4,72.7z
		 M111.4,29.7v1.9h0.4l-0.2-1.9H111.4z M111.4,33.9v1c0.1,2.3,0.4,3.4,0.8,3.4h0.2l-0.8-4.4H111.4z M111.6,72.2l0.4,1.7l-0.2,0.3
		c0.3,0,0.4,0.5,0.4,1.5l0.6,0.2v-0.5l-0.6-3.7H112L111.6,72.2z M112.6,43.4c0,3.4,1.3,11.5,3.9,24.1h0.2v-1.5l-3.9-22.7H112.6z
		 M113.1,34.4v1.7c0.3,3.3,0.8,5.9,1.5,7.6l-0.2,0.3c0.2,1.5,0.4,2.2,0.6,2.2l0.2-0.2l-0.4-1.9l0.4-0.5l-1.9-9H113.1z M113.1,65.1
		v0.5c0.1,3.3,0.4,4.9,0.8,4.9v-0.2l-0.6-5.2H113.1z M113.3,73.6v0.2l0.4,0.5v-0.7H113.3z M113.5,56.3v0.7c0.6,5.1,1.6,10.6,3,16.6
		l0.2-0.2h0.2l-0.2-0.3l0.2-1.2c-0.3-0.3-0.6-2.1-1.1-5.3c-0.8-2.6-1.6-6-2.1-10.2H113.5z M113.9,25.6v0.7c0.8,3.7,1.4,5.6,1.7,5.6
		l-0.6-4.2h0.6v1h0.2l0.2-0.3h0.2c0-0.9-0.5-1.6-1.5-2.2l-0.2,0.2l-0.4-1H113.9z M114.2,67.5v0.3c0.5,2.9,0.9,4.4,1.3,4.4v-0.3
		l-0.8-4.4H114.2z M114.8,46.3v0.7l0.2,1.7l-0.6,0.2l0.2,1.2h0.2L115,50h0.2l0.5,1.7h-0.5l-0.2-1.2h-0.4l2.1,11.5h0.2v-1.5l-1.1-6.3
		h0.4v0.5h0.2l0.2-2.2l-0.6-2.9h0.4c-0.1-2-0.3-2.9-0.6-2.9v1.2h-0.4l-0.2-1.5H114.8z M114.8,49h0.4v0.7l-0.4-0.5V49z M115.8,52.2
		l0.2,0.2v1.2h-0.4l-0.2-1.2l0.2-0.2H115.8z M115.4,75.1v0.5l0.2,0.7h0.8l0.4-0.5L115.4,75.1z M116.1,30.2v0.5l0.2,0.7h0.2V31
		l-0.2-0.7H116.1z M116.7,33.4c0,1.7-0.2,3-0.5,3.9l0.5,1.9l-0.5,1.5c0.3,0,0.5,0.4,0.5,1.2l0.2,0.2h0.2v-7.6l-0.2-1.2H116.7z"/>
	<path fill="#FFFFFF" d="M135.8,20.5l5,0.3h2.6c1.6,2.1,2.8,3.4,3.6,3.9c0,0.5,0.4,0.7,1.2,0.7l0.4,3.9h-0.2l0.4,4.4
		c-0.2,0.6-0.5,1.1-1,1.4h-0.2c-0.9-0.8-1.8-1.2-2.6-1.2h-0.2c-4.3,0-6.4,1.1-6.4,3.2v1.4h1c0-0.5,0.1-0.7,0.4-0.7h0.4
		c0.6,1.3,2.1,2.9,4.4,4.9l1.6,1.8c-0.5,0.9-0.8,1.6-0.8,2.3l0.2,1.6l-0.2,1.2l0.2,2.3v0.7l0.4,0.7l-0.4,0.5
		c-0.7-0.5-1.5-0.7-2.6-0.7h-0.6l-1.8,0.2l-1-0.2l-1,0.2v0.2l0.2,1.1c-0.4,0-0.6,0.9-0.6,2.6v3.5l0.2,2.3h-0.2l0.2,0.2l-0.2,7.4V76
		l0.8,1.1v2.3l-0.4,0.5l-3.2-0.2l-1.6,0.2c-2.6,0-4.4-1.1-5.4-3.2c-0.4,0-1.7-1.2-3.8-3.7c-1.3-0.9-2-1.8-2-2.8l0.6-0.2l0.4-11.8
		l-0.2-1.9l0.6-9.5l-0.2-5.3c0-5,1.3-10.3,3.8-16C130.6,22.2,133.4,20.5,135.8,20.5z M137.2,21.6H135c-1.8,0.1-4.1,1.7-6.8,4.8
		c-2.1,4.8-3.2,10.3-3.2,16.5l0.2,3.9l-0.6,7.9l0.2,3V61l-0.4,8.1v0.5c0.5,0,0.8,0.3,0.8,0.9h0.2l0.6-0.7l1.2,0.5l1.8-0.5l0.6,0.2
		l0.2-0.2h0.2l0.2,0.2h0.2c0.8-0.4,1.2-0.7,1.2-0.9V53.8l0.4-2.6v-2.1l-0.2-0.9l0.6-0.9l1,0.2c0-0.6,0.1-0.9,0.4-0.9l0.6,0.5
		c1.8-0.8,3.4-1.1,4.8-1.1l-0.2-0.3l0.2-2.3v-2.3l-0.2-1.1l-5,1.1v-0.2l-1.2,0.5v-0.2l-0.2,0.2h-0.2l-0.6-0.7v-0.2l0.6-1.4l-0.4-3.9
		v-0.3c0.3-3.4,1-5.1,2-5.1c3.4-1.6,5.5-2.3,6.4-2.3l1.8,0.7l0.4-0.7v-3.9l-0.4-0.7l0.4-0.7l-0.4-0.5h-3.4l-0.8-0.2L137.2,21.6z
		 M126.3,71.7v0.2l0.6,1.8h0.4v-0.5C126.9,72.2,126.5,71.7,126.3,71.7z M127.7,73.3v0.5h0.6v-0.5H127.7z M128.9,71.9v2.1l-0.2,0.2
		l0.2,1h0.2v-0.5h0.4l0.2,1.6h0.2l0.2-0.2h0.2l0.2,0.2l0.2-1.4h0.2c0.2,0,0.4,0.5,0.6,1.6l-0.2,0.9l0.2,0.2h0.2l0.2-0.2v-1.1
		l-0.2-1.1h0.4l0.4,2.3h0.4c0-0.9,0.1-1.4,0.4-1.4l0.6,1.1h0.2V76h0.4l0.2,1.1v0.9l1.6,0.3l0.2-0.3v-0.2c-1.1-1.7-1.8-2.5-2.2-2.5
		c-0.4-1-1.2-2.1-2.4-3.2v0.5h-0.4c0-0.6-0.1-0.9-0.4-0.9l-0.4,0.5l-0.6-0.5L128.9,71.9z M133.5,55.2l-0.8,3l0.2,0.9l-0.2,1.6
		l0.2,1.4l-0.2,1.1l0.2,1.4l-0.2,1.1l0.2,1.4h0.2l0.2-1.1h0.4V67l0.2,1l-0.4,2.5l0.2,0.2h0.4v-0.9l0.2-0.9l-0.2-0.9v-0.5h0.2
		l-0.2-1.2v-3.2h0.4l-0.2-0.2v-0.5l0.2-0.2l-0.2-2.1h-0.2v0.7h-0.4l-0.2-1h0.2l-0.2-0.2V58h0.4c0,0.5,0.1,0.7,0.4,0.7v-0.9
		c-0.7-0.1-1-0.4-1-0.7l0.6-1.2l-0.2-0.7H133.5z M132.7,67.5l0.2,0.7h0.2v-0.7H132.7z M132.7,68.6v0.2l0.2,0.7h0.2v-0.9H132.7z
		 M133.5,38.5l-0.2,0.3v0.7h0.2L134,39L133.5,38.5z M133.4,50.4V51h0.4v-0.7H133.4z M133.8,62.6h0.4c0,0.8-0.1,1.2-0.4,1.2L134,64
		v0.5h-0.4v-0.7L133.8,62.6z M133.8,61.2h0.4v0.7l-0.4-0.5V61.2z M136.6,30.4l0.2,1.2l-0.2,0.2h-0.2l-0.4-1h-0.4v1h-0.4v-0.5
		l-0.8,0.9v1.1c0.4,0,0.7,1.8,0.8,5.3h0.6l-0.2-2.3v-1.6c0.3-0.6,0.6-0.9,1.2-1.1l0.4,1.1l0.2-0.2h0.2l-0.2-0.2l0.4-1.8
		c-0.2-1.7-0.4-2.6-0.6-2.6H137L136.6,30.4z M137,48.3l0.2,1.2v0.2h-0.4l-0.2-1.4h-0.4v0.5H136l-0.6-0.5c-0.3,0-0.4,0.2-0.4,0.7
		c0.2,0.7,0.6,1.3,1.2,1.6v0.2h0.2c0-0.5,0.2-0.7,0.6-0.7l1.2,0.5l0.2-0.2l-0.4-2.6L137,48.3z M135.6,52.9l-0.2,0.3v0.2l0.2,0.2
		l-0.2,0.9c0,1.1,0.1,1.6,0.4,1.6l-0.2,0.2v0.5l0.2,1.1h0.2l0.2-1.4l-0.2-0.3v-0.5h0.2l0.4,0.5l-0.2,0.3l0.6,6.9h0.2l0.2-8.8h0.2
		c0-0.5-0.6-1-1.8-1.6L135.6,52.9z M135.4,59.4v1.2h0.2l0.2-1.2H135.4z M135.6,60.8v0.5l0.2,0.7h0.2v-0.7L135.6,60.8z M135.8,71.4
		v0.9h0.2v-0.9H135.8z M136.6,70.2v1l0.4,0.5h0.2l-0.2-1.4H136.6z M138.2,30l-0.2,0.2c0.1,1.2,0.3,1.9,0.6,1.9v-1.6L138.2,30z
		 M138.8,47.6l-0.2,1.6c0,1.1,0.2,1.8,0.6,1.9h0.4l-0.2-0.2v-0.5h0.2l0.2,0.2h0.2c0-0.6,0.1-0.9,0.4-0.9h0.4l0.6,0.5v-1.4l-0.6-0.7
		h-0.6l-0.2,0.2h-0.2c0-0.5-0.1-0.7-0.4-0.7H138.8z M140.4,29.7l-0.2,0.2v0.2c0.2,0.8,0.4,1.2,0.6,1.2v-1.2L140.4,29.7z M141.6,42.9
		c0,0.6-0.1,0.9-0.4,0.9l0.2,0.7l-0.2,2.1l1,0.9v-1.4h0.4v0.5h0.2V46h0.4l0.6,0.7v0.5l-0.2-0.2h-0.2v0.2l0.2,0.9l-0.2,1.6h0.4v-2.6
		c0.4,0,0.6-0.2,0.6-0.5v-1c0-0.8-0.3-1.4-1-1.8c-0.3,0-0.4,0.2-0.4,0.7h-0.4C142.6,43.8,142.3,43.3,141.6,42.9z M141.6,31.8v0.9
		l0.4-0.5L141.6,31.8z M141.8,50.4l-0.2,0.2v0.9h0.6v-0.7L141.8,50.4z M141.8,29.5l0.4,2.1h0.2l0.2-1l-0.2-1.1H141.8z M143.2,30.2
		l0.4,0.9h0.4v-0.5l-0.4-0.5H143.2z M144,23.7v1.6c0,2,0.4,3.3,1.2,3.9v-0.7l-0.2-1.2h0.2c0.2,0,0.4,0.4,0.6,1.2l-0.2,0.7l0.6,0.5
		v-0.2l-0.2-2.1h0.4v0.7h0.2v-0.7c0-1.1-0.5-1.9-1.6-2.3v0.2l0.2,0.7H145c-0.3,0-0.5-0.8-0.8-2.3H144z M144.4,30.9l-0.2,0.7h0.6
		v-0.7H144.4z"/>
	<path fill="#FFFFFF" d="M154.4,36.7c0.5,0,1.5,1,2.9,2.9c1,0.6,1.8,1.6,2.3,3l0.2-0.2h0.5l0.3,0.4v4.7l-0.2,0.8l0.2,0.5h-0.2
		l0.2,0.2v0.4l-0.2,0.2l0.2,0.5l0.2,9.2c-0.1,2.1-0.2,3.1-0.3,3.1l0.2,0.1l-0.2,0.9v1.3l0.2,0.9l-0.2,1.1v0.3l0.2,2.7l-0.2,0.6
		l0.3,6.1l-0.3,0.9l0.5,0.9l-0.2,0.2c0,0.2-0.4,0.3-1.1,0.5v0.4h-0.2c-0.3-0.4-1.4-0.6-3.3-0.6c-2.1,0.2-3.1,0.5-3.1,0.9
		c-0.6,0-1.7-0.7-3.2-2.2l-3.3-2.3l-1.3,0.2l-0.2-0.2v-0.9l0.2-0.9l-0.2-1.3l0.2-2.2l-0.2-2.5c0.4-7.7,0.6-14.1,0.6-19.4l-0.3-1.1
		v-2.9l-0.8-4.2l0.6-0.3v-0.7c0-0.4,0.2-0.8,0.5-1.3l0.6,0.2c1.7-0.5,2.9-0.7,3.8-0.7h2.3l1.6,0.2L154.4,36.7z M148.5,38.6l-0.3,0.4
		l0.2,0.2l-1.3,0.5l-0.2,1.1V42l-0.2,4.7l0.2,0.2v0.2l-0.2,0.2l0.2,1.8v8.1l-0.5,6.5l-0.1,9.7l-0.2,0.7c0.8-0.2,1.1-0.4,1.1-0.7
		l4.9-0.2h1.2l0.6-0.9v-1.4l0.2-0.9l-0.3-5.2c0.3-0.3,0.5-1.8,0.6-4.7l-0.2-0.2v-0.2c0.1-3.5,0.4-6.4,0.7-8.9l-0.5-4.5h0.2l-0.3-2.5
		l0.3-1.8l-0.2-1.6l0.2-1.8l-1-0.2l-0.5,0.2l-0.8-0.2L148.5,38.6z M149.2,74.7v0.2c0,0.4,0.6,0.8,1.9,1.2v-0.2
		c-0.4-0.8-0.8-1.2-1.5-1.2H149.2z M150.8,75c0.8,0,1.2,0.6,1.3,1.8l1.3,0.7l0.3-1.3c-0.4-0.9-0.8-1.4-1.1-1.6
		c-0.3,0-0.5,0.2-0.5,0.5H152l-0.6-0.5h-0.2L150.8,75z M151.8,76.8l-0.2,0.2v0.2l0.5,0.3h0.2v-0.2L151.8,76.8z M153.3,74.7v0.2
		c1.1,1.3,1.6,2.3,1.6,3h0.5v-0.5c-0.3,0-0.5-0.1-0.5-0.4v-0.2h0.3l0.5,0.4v-0.9h0.2c0,0.4,0.2,0.8,0.6,1.3h0.3l0.5-0.2v0.2l0.2,0.2
		l0.8-0.2l0.3,0.3h0.5c0-0.3-1-1.4-3-3.6c-0.5,0.2-0.8,0.6-0.8,1c-0.7-0.1-1-0.3-1-0.5l0.2-0.2v-0.2l-0.2-0.2L153.3,74.7z
		 M155.9,41.2l0.2,0.2v0.6h-0.3v0.5c0,1.4,0.2,2.4,0.6,3.1v0.4l-0.2,0.2v0.2c0.2,0,0.3,0.2,0.3,0.6l0.2-0.2h0.2l1.6,3.2v-0.2
		l-0.5-1.9c0.4,0,0.7,0.8,1,2.3h0.3v-0.5c-0.3-2.1-0.9-4-1.8-5.8h0.2L158,44l0.2-0.2h0.2l0.1,0.2h0.2v-0.2l-1.9-3.4L155.9,41.2z
		 M156,42.6h0.3c0.3,0,0.5,0.5,0.7,1.5v0.2h-0.3L156,42.6z M156.2,49.3c0.3,0.8,0.5,1.2,0.6,1.2v-0.3l-0.3-0.9H156.2z M156.2,50.3
		V52c0,1.3,0.4,2.7,1.3,4c-0.3,0-0.5,0.1-0.5,0.4h-0.2c-0.2,0-0.3-0.3-0.3-0.8h-0.3v1.1l1.1,2.7v0.1c-0.7-0.4-1-0.7-1-1h-0.2v0.2
		c0,2.3,0.7,5.2,2.1,8.7l0.1,0.7h-0.3l-1.5-4.2h-0.2l-0.2,1.3v0.3c0.9,2.2,1.3,3.6,1.3,4.1l0.8,1.1V71l-0.1-0.2h-0.2l-0.5,0.2v-0.2
		c-0.4-1.7-0.8-2.6-1-2.6l-0.2,0.2v0.2l0.5,2.9V72h-0.3c0,1.2,0.5,2,1.5,2.5h0.8l-0.2-0.2v-0.2h0.2c0.3,0,0.5,0.2,0.5,0.7h0.2v-1.6
		l-0.2-0.9l-0.5,0.4c-0.4-0.1-0.5-0.6-0.5-1.5V71c0.3,0,0.5,0.3,0.5,0.9h0.3l-0.8-3.6h0.2l0.3,0.3l-0.2,0.2v0.2l0.7,0.2v-1.1
		l-1.9-6.5h0.3c-0.4-0.4-0.6-1-0.6-1.6l0.2-0.2h0.2c0.3,0,0.8,1.1,1.5,3.4l-0.3,0.7l0.6,2.6l0.3-0.3l-0.3-0.6l0.3-1.6
		c0-0.8-0.1-1.5-0.3-2l0.2-1.3l-0.3-2.7v-0.6c-0.4-0.4-1.1-2.5-2.3-6.3L156.2,50.3z M156.3,47.8c1.5,4.8,2.6,7.4,3.1,7.9v-0.2
		l-0.7-3.8l0.2-0.2l-1.8-2l0.3-0.5v-0.2l-1-1.1H156.3z M157.7,56.3l1.6,5H159c-0.9-2.9-1.5-4.3-1.9-4.3l-0.2-0.5h0.2L157.7,56.3z
		 M158.6,44.2l-0.2,0.2c0.3,1.1,0.5,1.6,0.7,1.6h0.1C159.1,44.8,158.9,44.2,158.6,44.2z M159.2,44l0.3,0.9h0.3v-0.4l-0.5-0.5H159.2z
		"/>
	<path fill="#FFFFFF" d="M178.6,36.5h1.2c1.5,0,4.5,0.9,9,2.6c1.3,0,4.8,2.7,10.2,8c0.9,1.8,1.4,2.6,1.7,2.6l0.7-0.2l0.2,0.6
		l0.7,7.1l-0.7,0.5l-1.9-0.9c-1,0.2-1.5,0.4-1.5,0.6c0.8,0,1.2,0.2,1.2,0.5v0.2c0,0.7-2.5,1.2-7.6,1.5c0,0.2-1.4,0.4-4.1,0.6v0.2
		c2.3,1.5,3.6,2.2,4.1,2.2c0-0.3,0.2-0.5,0.7-0.5c0.3,0,1,0.6,1.9,1.8c0.7,0,2.5,1.7,5.6,5.1v0.2l-0.5,0.7v0.2
		c0.8,0.1,1.2,0.3,1.2,0.6l-2.7,2.4c-3.1,3.5-5.7,5.3-7.8,5.3c0,0.3-0.9,0.5-2.7,0.7l0.2,0.2V80c-4.5,0-11.2-2.8-20.2-8.4
		c-2.9-3.1-4.6-6.4-5.3-9.9l-1-6.4v-0.4h0.5v-1.1l-0.5-0.6c0-3.4,1.8-7.1,5.3-11C169.5,39.6,173.3,37.7,178.6,36.5z M163.6,48.9
		l0.2,0.2v0.2l-1,4l0.2,0.7l-0.2,1.8c1.4,7.4,2.4,11,3.2,11c0,1.4,4.1,3.6,12.2,6.6l1.2,0.2h2.4c6-1.3,9-2.8,9-4.4
		c0.7,0,1.6-1,2.7-3.1l-0.2-0.2c0-0.3-1.1-1.1-3.4-2.4l-1-0.4h-0.5c-1,2.3-2.2,3.7-3.6,4.2c-0.9,0.1-1.7,0.4-2.2,0.9h-1.5
		c-5.7-2.7-8.5-4.9-8.5-6.4c-0.4-0.4-0.6-1.1-0.7-2.2v-1.1c0-1.1,0.7-2,2.2-2.9l0.7,0.2c0-0.3,2.3-0.8,6.8-1.5
		c4-1.5,8.1-2.2,12.4-2.2v-0.2l-0.2-0.9l1.2-0.2c0-2.5-1.4-5.4-4.2-8.6l-5.8-3.3l-4.6-1.1l-1,0.2l-0.8-0.2c-4.9,1.6-8.2,3-9.7,4.2
		c-1,0.9-2.7,3.1-5.3,6.8V48.9z M178.6,43.6c3.1,0.7,5,1.4,5.6,2l0.2-0.2h0.5c1,0.1,1.5,0.3,1.5,0.7v0.4H186l0.7,1.8v0.7l-0.5,0.4
		h-1.9l-1.2,0.2v-0.2l-6.1,1.6h-0.3l-0.2-0.2l-2.4,0.5c-0.8,0-1.5-0.7-2.2-2C173.4,45.4,175.6,43.6,178.6,43.6z M175,48.6v0.2
		l2.4-1.1v-0.5C176.2,47.3,175.4,47.7,175,48.6z M175.2,57.2l0.5,0.5h0.2l-0.5-0.5H175.2z M176,57.9v0.2c0,0.4,0.4,0.6,1.2,0.6
		l-0.2,1.1l0.7,0.4v-0.9h0.2l0.3,0.2h0.2v-0.2l-1.2-0.9C177.2,58.2,176.8,58,176,57.9z M176.7,56.2l0.8,0.6h0.2v-0.2l-0.5-0.4H176.7
		z M177.5,61.7l-0.3,0.2v0.6h0.3v-0.6h0.5v0.6l-0.2,0.2V63l1,0.6c0-0.4,0.3-0.6,0.8-0.6v-0.5c0-0.4-0.6-0.8-1.9-1.1V61.7z
		 M178.4,64.1v0.2l0.7,0.9h0.3V65L178.4,64.1z M178.9,48.4v0.7c1-0.4,1.5-0.7,1.5-0.9V48L178.9,48.4z M178.9,59.9v0.2l0.5,1.1
		l0.5-0.5L178.9,59.9z M179.6,58.1v0.4h1.2v-0.4H179.6z M180.6,63.2c0.4,1.8,1,2.6,1.7,2.6c3.3-1,4.9-2.3,4.9-3.7
		c-0.5-0.2-0.8-0.6-0.8-1.3c-3.7,0.3-5.6,1-5.6,2v0.5H180.6z M181.3,59.4v0.5l0.7-0.2v-0.2H181.3z M183.3,74.9l0.2,0.2v0.2l-0.2,0.2
		H183l-1.7-0.6v0.2c0,0.5,1.1,0.8,3.4,1.1L186,76l-1.2-1.6h-1L183.3,74.9z M182.1,58.6V59h1.2v-0.2L182.1,58.6z M195,53.5l-0.3,0.7
		l-0.2-0.2h-3.4c-0.3,0-0.5,0.2-0.5,0.6l-3.2-0.2c0,0.3,0.3,0.5,1,0.5v0.4h-0.2l-0.2-0.2l-0.3,0.2h-0.7l-0.7-0.4l-0.7,0.2v-0.2
		c-1.1,0.2-1.7,0.4-1.7,0.6c0.5,0,0.7,0.2,0.7,0.5c-0.5,0-0.7,0.1-0.7,0.4l8.8,1.6h0.2v-0.2c-2.5-0.5-4.1-1-4.6-1.5v-0.2h0.5
		l2.7,0.6l0.2-0.2h0.3c2,0.8,3.1,1.5,3.4,2c2-0.3,2.9-0.5,2.9-0.9l-4.4-1.3l-2.9-0.5l0.3-0.2v-0.2l4.8,0.9l0.3-0.2h1.2l0.3,0.2h0.2
		v-0.5c0-0.3-0.2-0.5-0.7-0.5l-0.2-0.2v-0.2l0.2-0.6c-0.3,0-0.5-0.2-0.5-0.7H195z M183.8,78.2l0.3,0.6h0.2l1.2-0.4L185,78
		L183.8,78.2z M184.7,57.7c0,0.4-0.2,0.6-0.7,0.6v0.2l2.2,0.5h0.5v-0.2c-1.1,0-1.7-0.4-1.7-1.1H184.7z M185,55.5l2.2,0.2l-0.3,0.2
		v0.2l-0.7-0.2l-0.7,0.2l-0.2-0.2l-0.3,0.2l-0.2-0.2v-0.2L185,55.5z M194.7,67c0,0.8-1.1,2.2-3.4,4.2c0,0.4-0.3,0.6-1,0.6v0.6
		l-0.3-0.2h-0.2l-1,1.1l-1-0.2c-0.4,0.1-0.8,0.4-1,1.1l-1.2-0.2h-0.2v0.6l2.2,0.9c0-0.4,0.3-0.6,1-0.6l0.7,0.5l1-0.7v-0.2
		c-0.5,0-0.8-0.1-0.8-0.4v-0.5l1.2,0.7h0.3V74l-0.7-1.6h0.2l1.5,1.1v-0.2l-0.7-1.3v-0.2h0.5c0,0.4,0.4,0.7,1.2,1.1h0.2v-0.6L193,72
		v-0.2l0.2-0.2h0.5l0.2,0.2h0.3v-0.2l-0.5-1.3l1.9,1.3h0.2l-0.7-1.5c0.1-0.9,0.3-1.5,0.7-2v-0.2c-0.5,0-0.7-0.2-0.7-0.6L195,67
		H194.7z M186.7,78.6v0.2h0.5v0.2l0.7-0.2v-0.2H186.7z M188.1,58.1v0.2l1.9,0.7l1.2-0.2v-0.2c-1.1,0-1.7-0.1-1.7-0.4l-0.2,0.2h-0.2
		l-0.8-0.2H188.1z M194.7,45.1l0.3,1.1h0.5l0.5-0.4l-1-0.7H194.7z M195.2,50.6v0.5h0.7l-0.5-0.5H195.2z M195.9,69.2
		c0.7,1.9,1.1,2.9,1.5,2.9l0.3-0.2v-0.2c0-0.7-0.5-1.5-1.5-2.4H195.9z M196.2,48.6v0.6h0.2l0.2-0.6H196.2z M196.4,51.1v0.2l0.5,0.5
		h0.2l-0.2-0.6H196.4z M196.7,47.5v0.2l0.7,0.6h0.3v-0.6L196.7,47.5z M196.9,68.5v0.2c0.8,1,1.2,1.7,1.2,2.2h0.5l0.3-0.2h0.2
		c-0.6-1.1-1.3-1.9-1.9-2.2H196.9z M198.6,50.4v0.2l1.5,1.8h0.2v-0.2c-0.4-1-0.9-1.6-1.5-1.8H198.6z M200.1,53.3
		c0.3,1.8,0.6,2.7,1,2.7v-0.9c0-1.1-0.2-1.7-0.7-1.8H200.1z M200.8,57.9h0.5l0.5,0.4l-0.2,0.2h-1.2v-0.2L200.8,57.9z"/>
	<path fill="#FFFFFF" d="M235.1,21.9h3.3c2.7,0,8.6,1.9,17.6,5.8c4.6,3.5,8.8,6.9,12.6,10.2c0.8,1.1,1.8,1.6,3,1.6l2.7,6l0.5,4.8
		l-0.2,1.4v0.9l0.2,4.2c-0.9,4.8-1.9,7.2-3.2,7.2c-0.5,0.4-1,1.2-1.5,2.6c-4.7,4.6-9,7.6-12.8,9c-4.8,2.2-8.7,3.5-11.6,3.9v-0.2
		l-4.3,0.7h-1.3c-0.3,0-0.5-0.5-0.5-1.4l-1.3-1.2h-1l-0.3,0.2h-0.2c0-1.2-1.2-2.1-3.6-2.7l-3.2-2.3l-0.3,0.2h-0.8
		c-1.5,0-2.3-1.2-2.3-3.7l0.5-4.6l-0.5-7.9l0.3-7.2l-0.3-2.6c0.4-8.2,0.7-12.7,1-13.4l-0.2-0.2V33l0.2-4.8v-2.3l-0.5-0.7
		c0.5-1.3,0.9-2,1.3-2.1h0.3l1,0.5C232.5,22.4,234.2,21.9,235.1,21.9z M229.8,25.2l-1.3,23.4v2.3c0.1,4.6,0.2,6.9,0.5,6.9l-0.2,2.3
		v10.2l1.3,0.7h0.2l8.6-1.2V70l2.5-0.5l1.5,0.2l3.8-0.9c0-0.3,0.7-0.5,2-0.7c0.7-0.4,1-0.8,1-1.4l0.7-0.5l1,0.5l2.7-1.9l1,0.2
		c4.6-1.8,7.6-4.1,8.8-6.9c0.2-1.3,0.5-2.3,1-3l-0.2-1c0.5-0.6,0.8-1.4,0.8-2.5l-0.3-1h0.5l-0.2-2.7v-3.2c-1.4-6.1-3-9.8-4.8-11.1
		c-4.1-2.6-6.6-4.3-7.3-5.1l-0.2,0.2c-0.2-0.7-4.4-2.4-12.6-5.1l-0.2,0.3l-1.3-0.3h-1.8C234.4,23.7,231.9,24.2,229.8,25.2z
		 M234.1,73.3l2.3,1.2c0-0.8,0.2-1.2,0.5-1.2l0.2,0.2h0.3l0.7-0.2V73l-0.5-0.5h-0.2l-0.8,0.5l-0.3-0.7h-1.3L234.1,73.3z M239.2,33.2
		h1c3.2,0.3,5.8,0.9,7.8,1.8c3.6,1.7,6.1,3.9,7.6,6.7c1,0.7,1.5,2.7,1.5,6v0.7c0,3.1-2,6.6-6,10.4c-3,1.2-5.1,1.8-6.1,1.8v-0.2
		l0.5-0.7h-0.3c-0.3,0-0.9,0.5-1.8,1.6l-4.8,0.7l-1-3.9v-0.9l-0.5-3.9l0.3-1.4l-0.3-0.2v-0.2c0.7-2.6,1-5,1-7.2v-7.2l-0.5-1.9v-0.7
		L239.2,33.2z M241.7,73.3h-0.5v-0.9l0.2-0.2v-0.2h-0.2c-0.8,0-1.3,0.2-1.3,0.5l-0.8-0.2l-0.8,0.2v2.1c0.4,0,0.7-0.6,1-1.9h0.5v2.8
		h0.5c0.1-1.4,0.4-2.1,0.8-2.1v2.1h0.2l1.3-1.9h0.3l0.2,0.2v1l-0.2,1.6h0.2c0.5-0.4,1.3-1.6,2.3-3.5h0.2L246,73l-0.8,2.6l0.3,0.2
		h0.2l2.5-5.8l-5.8,1.9L241.7,73.3z M239.2,75.4V76l0.5-0.5v-0.2H239.2z M242.7,42v0.5h-0.2l0.2,0.2v0.7c-0.8,0-1.3,1-1.3,3
		l-1.3,4.7l0.3,0.2c-0.3,1.1-0.6,3.1-0.8,6.2l0.3,2.8h1.8c1,0,1.5-0.5,1.5-1.4v-0.2c-0.9,0.9-1.6,1.4-2.3,1.4l-0.8-2.1l0.8-2.5h0.5
		v2.1h0.3l0.8-3.2l-0.3-0.2l2-10.9c-0.2-0.8-0.5-1.1-0.8-1.1H242.7z M240.1,35.6v4.2l-0.2,0.2l0.2,0.2l-0.2,1.1v0.5l0.7-0.5l0.5,0.9
		h0.2V42l-0.2-0.2v-0.2l0.7-1.8l0.3,0.2h0.5v-1.4h-0.2v0.7h-0.5v-1.1l0.5-0.5l1,0.2v-0.5h0.2l-0.5-1.8l-1.3,0.2h-0.7v0.5h-0.5
		C240.6,35.8,240.5,35.6,240.1,35.6z M239.9,42.7v5.8h0.2c0.1-0.9,0.3-1.4,0.5-1.4l-0.2-0.3v-0.7l0.5-0.5l-0.3-0.2v-0.2l0.8-2.1
		h-0.2l-0.3,0.3h-0.3L239.9,42.7z M241.9,48.1h0.3l-0.8,6.9h-0.5v-1.9l0.5-0.5l-0.2-0.7C241.2,49.4,241.4,48.1,241.9,48.1z
		 M241.7,46.7l0.5,0.5v0.5h-0.5V46.7z M243.4,40.2l-0.8,1.1v0.2h0.8l0.5-1.1l-0.3-0.2H243.4z M243.9,49.2c-0.2,2-0.4,3.2-0.8,3.7
		l0.3,0.9h0.2l0.8-4.6H243.9z M244.2,54.7l-0.3,0.7l0.3,0.7h0.2v-1.4H244.2z M244.2,59.4v0.2l0.5-0.5v-0.2L244.2,59.4z M244.4,37.6
		l0.3,2.3l-0.3,0.2v0.2h0.3c1.2-0.2,1.8-0.4,1.8-0.7v-0.2l-0.3-1.2H246c0,0.9-0.2,1.4-0.5,1.4l-0.5-0.5l0.3-0.9l-0.3-0.7H244.4z
		 M246,76.5v0.2l0.8,0.2v-0.5H246z M246.4,42v0.9l-0.3,1.4l0.3,2.3v10c0.1,1.1,0.2,1.6,0.5,1.6c2.4-0.8,4.2-2.2,5.5-4.4
		c1.3-1.4,2.2-2.7,2.5-3.9c0-3.5-0.4-5.3-1.3-5.3c-0.5,0-1.2-0.5-2.3-1.6c-1.4-0.6-2.9-0.9-4.5-0.9H246.4z M246.4,76
		c0.3,0,1.8-2.3,4.5-6.9h-0.3c-1.1,0-2,1.2-2.8,3.7C247.6,73.1,247.1,74.1,246.4,76z M253.5,69.1l-0.2-1.1l-1.8,0.7v0.7l-3.3,6.5
		c2-1.2,3.5-3.1,4.5-5.8h0.5c0,1.2-1,3.1-3,5.6l0.2,0.2c1.1,0,1.8-0.9,2-2.6h0.5v0.5l0.5-0.5l-0.2-0.7h0.2l3-5.3V67h-0.2
		C255.9,67,254.9,67.7,253.5,69.1z M258.5,67.7l-3,5.3v0.7c1.6-2.2,2.7-4.1,3.3-5.8v-0.2H258.5z M256.3,69.3
		c1.5-1.5,2.3-2.6,2.3-3.2h-0.2C257.5,66.1,256.9,67.2,256.3,69.3z M258.8,67.5l0.2-0.2h0.8l-1.8,5.1c0.6-0.1,1.8-2.8,3.8-8.1h0.5
		c0-0.5,0.2-0.7,0.5-0.7l0.3,0.2h0.2l0.5-1.9c-3,2.2-4.5,3.4-4.5,3.7L258.8,67.5z M265.8,60.3l0.3-0.2v-0.2h-0.5v0.2L265.8,60.3v0.2
		c-0.4,0-0.7,0.8-1,2.3v0.2h0.2l0.3-1.2h0.5v0.2c-0.3,2.2-1,4.5-2,6.9h-0.5v-0.9l0.8-3v-0.2h-0.2c-1.5,3.1-2.3,5-2.3,5.8l3-1.4
		l-0.2-0.2v-0.5h0.5v0.5h0.2c1.2-1.7,1.8-3.9,1.8-6.7c0.3,0,0.5-0.9,0.5-2.7v-0.7c-0.3,0-0.5,0.4-0.5,1.1l-0.3,0.2H265.8z M262,65.9
		l-0.5,1.4v0.2h0.3l0.5-1.4v-0.2H262z M265.3,37.6l1.8,3.5h0.5c-0.7-2.3-1.3-3.5-2-3.5H265.3z M267.3,55.5c-0.8,1.4-1.3,2.4-1.3,3
		v0.3h0.2c0-0.5,0.2-0.7,0.5-0.7l0.2,0.2h0.3l0.2-1.1v-1.6H267.3z M267.1,41.8V42c0,0.9,0.5,1.8,1.5,2.8c0,1.3,0.2,2.4,0.7,3.2h0.5
		c-0.9-4.2-1.8-6.3-2.5-6.3H267.1z M267.3,54.1v0.7l0.5-0.5v-0.7L267.3,54.1z M268.3,61.9v1.2h0.3l0.5-3.7
		C268.6,59.4,268.3,60.2,268.3,61.9z M268.8,51.8v0.7l0.8-0.2V52L268.8,51.8z M268.8,57.3v0.9l0.5-0.5L268.8,57.3z M269.3,53.4
		l-0.2,0.9l0.2,0.2h0.3v-1.1H269.3z M269.9,43.2v0.3c0,1,0.4,1.8,1.3,2.3l-1-2.6H269.9z M270.1,49.2l0.5,3.5h0.5
		C270.9,50.4,270.5,49.2,270.1,49.2z M270.6,53.8v1.4l0.3,2.7h0.3l0.2-3l-0.5-1.2H270.6z M272.6,58.9v0.9h0.3v-0.9H272.6z"/>
	<path fill="#FFFFFF" d="M305,35.9l4.4,0.9l0.2-0.2c1.6,0,3.1,1,4.7,3.1l2.9,1.9l0.5-0.4l-0.2-0.2v-0.9h0.5l0.5,2.2l-0.2,3.3l0.2,5
		h-0.2l0.2,0.2v1.1l0.3,2.6l-0.3,1.1l0.3,6.6v3.3l0.2,1.3l-0.2,0.2v0.2c0.2,2.8,0.5,4.2,0.7,4.2c0,4.7-0.6,7-1.9,7l-0.8-0.2
		c0,0.8-3.6,1.4-10.8,1.8h-0.7l-10.1-1.1c-3.9-2.6-7.1-4.9-9.4-6.8l-2.9-2.6l0.2-1.1c-1.3-1-1.9-2.1-1.9-3.3c0-3.7-0.7-8.9-2-15.6
		l0.7-0.5l-1.2-7.4v-0.4l0.7-0.9v-0.2l-0.2-2.2c1.3-1,2.4-1.6,3.2-1.6h0.2l1.3,0.2l1.2-0.2l2.4,0.2l3.2-0.4c0.4,1.2,1.3,2.2,2.7,3.1
		c0,0.3,1.1,1.2,3.2,2.9l0.7-0.2l-0.2,0.2c0.3,0.3,0.7,2.8,1.2,7.4l-0.2,1.5l0.5,10.3h0.7c1.1,0,1.9-1.8,2.5-5.5v-2.4l0.2-2.8
		l-0.5-3.3l0.3-0.2l-0.8-7.4l0.3-1.3l-0.5-1.8l0.5-0.4l0.7,0.2L305,35.9z M302.5,37.7V39c0.7,0.4,1,2,1,5v7.3L304,53
		c-0.3,0.4-0.6,1.9-1,4.6h-0.3l0,0.3c-0.5,4-1.8,5.7-4.1,5.2c0,0.3-0.6,0.4-1.7,0.4h-2c-0.5-0.2-1.1-0.9-1.7-1.9l-1.3,0.2l-0.5-0.4
		l0.2-0.9c-0.2-1.6-0.5-2.6-1-3.1l0.3-0.2h0.2c-0.7-11.7-1.2-17.5-1.7-17.5l-0.3-0.2l-1.5,0.4L284,39l-0.2,0.2L282,39h-1v1.3
		l0.7,0.9l-0.3,2.8c0.7,15.9,1.6,23.9,2.7,23.9c0,1,1.6,2.1,4.9,3.3c0.8,0.9,3.6,1.4,8.4,1.6l5.7-0.9c0,0.3,0.7,0.5,2,0.6V73h-1v0.2
		h1.5v-0.6h1l1.5-0.2l0.3,0.2h0.2l0.8-0.2c1,0,1.5,0.2,1.5,0.6h0.8l-0.3-0.2l0.3-0.2v-0.2l-0.5-2.4l0.2-0.9
		c-0.3-13.1-0.8-21-1.5-23.7l0.2-0.2l-0.2-1.5v-1.1l0.2-4.8l-2.9-0.2h-3L302.5,37.7z M291.4,40.3v1.8l0.7,0.6l0.2-0.2v-0.2l-0.2-1.1
		h0.2c0.7,0.3,1,0.7,1,1.1h0.3v-0.2c0-0.7-0.6-1.5-1.8-2.2L291.4,40.3z M291.4,73.8l0.5,0.5l0.5-0.6h-0.2L291.4,73.8z M291.9,43.8
		v0.4l0.5,0.5v-0.5L291.9,43.8z M292.4,42.7v0.2c1,1.1,1.5,2,1.5,2.6c-0.3,0-0.5-0.2-0.5-0.7h-0.5l-0.2,0.2h-0.3l-0.2-0.2v0.5h0.5
		l-0.5,0.4l0.2,0.9h0.3c0-0.6,0.2-0.9,0.5-0.9c0.2,0.9,0.4,1.3,0.7,1.3v-1.3c0.7,0.3,1.3,1.1,2,2.6h0.2v-0.6c0-0.4-1.1-2-3.2-4.8
		v-0.2H292.4z M292.2,47.1v0.4l0.5,6.8l-0.3,0.2v0.2c0,1.8,0.7,3,2.2,3.7l1.5,1.6v-0.2c0-0.4-0.8-1.9-2.4-4.4l0.2-0.6l-0.5-2h0.5
		c0.5,0,0.7,0.4,0.7,1.1h0.5v-0.6l-1.7-3.5l0.5-0.5C293.1,47.9,292.6,47.2,292.2,47.1z M293.1,74.5l-0.3,0.2v0.2
		c1.3,0.7,2,1.2,2,1.5h0.5V76C294.9,76,294.2,75.5,293.1,74.5z M293.1,58.3l1.9,3.3h0.5v-0.2c-0.5-1-1.2-2-2.2-3.1H293.1z
		 M294.1,47.5v0.2l0.5,0.5v-1.1L294.1,47.5z M294.9,42.3l-0.3,0.2c0.7,2.3,1.2,3.5,1.8,3.5v-2.2C295.7,42.8,295.2,42.3,294.9,42.3z
		 M294.6,48.4v0.6l1.8,2.2v-0.5C295.9,49.2,295.3,48.4,294.6,48.4z M294.6,74.3v0.2c2.4,2.1,4.1,3.1,5.2,3.1l-3.7-2.9v-0.4l-0.7,0.2
		L294.6,74.3z M296.1,60.2l0.3,0.7h0.2v-0.7H296.1z M296.4,56.5v0.2l0.5,0.5V57L296.4,56.5z M296.6,58.3v0.6l0.5-0.5v-0.2H296.6z
		 M297.3,74.5v0.2l3.5,2.2h0.2v-0.2C300.5,76,299.3,75.2,297.3,74.5z M302.7,73.2c0,0.3-0.6,0.6-1.7,1.1l-0.2-0.2l-1,0.2v0.2
		c0,0.3,1,1,2.9,2.2c0.4,0.7,1.4,1.1,3,1.1V78l1-0.2c-0.7-0.7-2.2-1.6-4.4-2.6l0.2-0.2h0.2l0.8,0.4l0.2-0.2v-0.2l-0.5-0.6l0.3-0.2
		h0.2l5.9,3.3h0.3c-3.1-2.5-5.2-3.9-6.4-4.2H302.7z M306.4,73.6v0.4c0.6,0,2.4,1.2,5.4,3.5h0.3l0.5-0.5c-2.1-1.2-3.5-2.2-4.2-3.1
		l0.2-0.2l2.2,0.6l-1-0.8H306.4z M311.4,42.5l0.8,1.8h-0.3l5.2,11.8v-0.4c-0.5-2.9-1.1-4.4-1.7-4.4l0.5-0.5
		c-0.5-0.1-1.8-2.9-3.9-8.3H311.4z M311.4,75.2c0.7,0.9,2.1,1.8,4,2.6v-0.2C315.2,77.2,313.9,76.4,311.4,75.2z M311.9,39.4v1.8
		c1.1,0,1.7,1,1.7,3.1c0.4,0.2,0.8,0.9,1.3,2h0.2V46c0-1.8-1-3.9-2.9-6.6H311.9z M311.9,46.2v1.1l0.5,1.1h0.3V48
		C312.4,46.8,312.2,46.2,311.9,46.2z M311.9,74.1l2.5,1.8h0.2v-0.2c-0.4-0.7-1-1.4-1.9-1.9h-0.3L311.9,74.1z M312.6,51.5v1.1
		c0,2.6,0.4,4,1.2,4c0.2,1.2,0.5,1.8,1,1.8v-0.2l-1.3-2.6v-0.2l0.3-0.2v-0.2c-0.4,0-0.7-1.1-1-3.3H312.6z M312.8,57.4v0.2h0.5V57
		L312.8,57.4z M312.8,61.1l0.2,0.2v0.2l-0.2,0.9l2.5,5l0.2-0.2h0.2l-1.9-5.5h0.2c0.3,0,1,1.4,2,4.2h0.2v-0.5l-1.9-5.5
		C313.5,60.1,313,60.4,312.8,61.1z M312.8,65.1v0.2l1,2.6l-0.8,0.2v1.3l3,4.8h0.2v-0.2l-1.2-2.6v-0.6h0.3l1.2,1.1v-0.2
		c-0.9-2.8-2.1-5-3.5-6.6H312.8z M315.3,60.2c0.5,2,1,3.1,1.5,3.1v-0.9l-1-2.9C315.5,59.6,315.3,59.8,315.3,60.2z M316.1,45.4
		l0.7,2.6h0.3v-2.9h-0.3L316.1,45.4z M316.3,42.9V44l0.5,0.9h0.3v-1.5l-0.5-0.4H316.3z M316.3,56.7l0.3,1.6h0.2l0.3-1.1l-0.5-0.5
		H316.3z M317.3,74.3v0.2l0.3,0.2l-0.3,1.1V76l0.5,0.4v-2.2H317.3z"/>
	<path fill="#FFFFFF" d="M337.8,33.6c2.7,0,7,1.4,12.6,4.1h0.3c4.2-1.9,8.1-2.9,11.6-2.9h1.8c1.2,0,3.2,0.8,6.1,2.4l0.5-0.5h0.8
		c2.1,2.3,3.7,3.4,4.7,3.4c1.7,1.3,3.2,4.3,4.7,9v1.5l-0.3,2.7l0.5,0.7l-0.3,2.4v6.3l-0.3,9.9l0.8,2.2l-0.3,1.2l0.3,2.4l-2.1,0.7
		l-4-1.5l-2.1,0.5h-1.1c0,0.5-0.2,0.7-0.5,0.7h-0.5c-1-0.6-2.3-2-4-4.1c-1.9-0.8-2.9-1.8-2.9-2.9l0.8-0.7l-0.3-5.6l0.3-6.1l-0.3-7.3
		h-0.5c-0.8,0.3-1.6,3-2.6,8L361,61l0.8,4.6l-0.3,1v0.3l0.3,1l-0.3,1.7v1l-0.3,7.8l0.5,0.5l-0.5,0.5h-1l-2.1,0.2l-0.8-0.2l-5,0.2
		H351l-0.3,0.3h-0.3l-0.3-0.3v-0.2l1.6-1l-0.5-1.7h0.3l0.3,0.2h0.3v-2.2c0-1.2-0.3-1.8-0.8-1.9l-1.1,0.5v0.5h0.5v0.5l-0.3,0.3
		l0.3,0.2v0.3l-0.3,0.2l0.5,3.2l-0.8,0.5h-0.3c0-0.4-1.9-2-5.8-4.6c-1.2,0-1.9-0.2-1.9-0.7l0.3-0.2V73l-1.1-1v-0.5h0.8v-2.2l0.8-6.1
		l-0.3-0.2v-0.2l0.5-6.6l-0.3-0.2l0.3-1.7v-1.7c0-0.4-0.7-0.6-2.1-0.7c-1.4,0-2.4,1.3-3.2,3.9l0.3,4.1l-0.5,8l0.3,1.2l-0.5,4.8v1
		c0,0.5,0.3,1.1,0.8,1.7v0.5l-0.3,0.2l1.6,1.7v0.5l-0.5,0.5h-0.5l-3.2-0.5l-1.3,0.5l-0.3-0.2h-0.3l-0.3,0.2l-1.8-0.2h-0.8l-1.3,0.2
		c0-0.9-2.2-2.6-6.6-5.1l-0.5,0.5H322c0-0.3-0.3-0.5-0.8-0.5L322,72v-2.4c0-1.4-0.3-2.4-0.8-2.9l0.3-2.2l-0.5-15l0.3-6.3l-0.3-5.8
		c1.5-0.8,4.3-1.3,8.4-1.7C332.3,34.3,335.1,33.6,337.8,33.6z M329.9,37.5h-0.5l-0.3-0.3c-2.3,0.4-3.4,0.8-3.4,1l-0.5,0.5
		c-0.3,0-0.5-0.2-0.5-0.7h-0.3l-1.3,0.5v3.6l0.3,2.2l-0.3,0.2l0.3,1.2v0.7l-0.5,0.7V54L323,56l-0.3,1c0.2,7.3,0.4,11.4,0.8,12.4
		l-0.3,0.3v0.2l0.3,0.2l-0.3,1.2v2.4l2.1-0.7l2.4,0.5c0.5-0.3,1.3-0.5,2.7-0.5l-0.3-0.3v-0.2l0.3-1.5l-0.3-1.7h0.3l-0.3-0.7
		l-0.3-5.1c0.2-4.8,0.5-8.4,1-10.9l-0.5-0.5v-1.5c0-3.1,1.2-5.1,3.7-6.1l2.9,0.2l1.1-0.2l1,0.2l0.5-0.5h0.3L342,45l1.3,2.2l-0.3,0.2
		v0.3l0.3,0.7h-0.3l0.3,1.2h0.3v-0.5h0.5c0,0.6,0.3,1.3,0.8,1.9l-0.3,1.9l0.3,0.3l-0.5,4.8l0.3,0.2v0.3l-0.5,3.1l0.2,1l-0.8,5.3
		l0.3,3.6V72l0.3,0.3v0.2l3.4-1.7l1.1,0.8h0.5c0-0.5,0.2-0.8,0.5-0.8l0.5,0.5h2.4l0.5-1.5v-4.4l0.3-1l-0.3-0.2l0.5-3.6
		c0-6.8,0.5-11.3,1.6-13.4c0.7-2.1,1.4-3.2,2.1-3.2l0.3,0.3h0.3l2.6-0.5l3.9,1.7c0,0.4,0.6,0.8,1.8,1.2c0,0.7,0.4,1.6,1.1,2.7v1.5
		l-0.5,1.9l0.3,1l-0.3,5.1l0.3,1.9l-0.3,2.2l0.3,3.4l-0.3,3.6l0.3,1.9l0.3-0.2h0.3l0.5,0.5l2.6-0.5l1.3,0.2c1.9-0.1,2.9-0.4,2.9-0.7
		V71l-0.8-6.6V54.2c0-0.8,0.3-1.2,1-1.2v-1.5c0-6.5-1.8-10.7-5.3-12.6l-0.8,0.2c0-1-1.6-2-4.7-2.9h-0.8c-4.6,0.3-7.9,0.8-9.7,1.7
		l-3.7,2.4l-2.4-2.2c-1.9-1.1-4.2-1.9-6.8-2.2c0-0.2-0.7-0.5-2.1-0.8C335,35.3,332,36,329.9,37.5z M324.9,74.6l0.8,0.7v-0.7H324.9z
		 M327.5,74.4v0.5c0.5,0,0.8,0.6,1,1.7h0.3v-0.5l-0.8-1.7H327.5z M329.4,74.4v0.7h0.5l-0.3-0.7H329.4z M329.6,75.6v0.2
		c0,0.7,0.5,1.3,1.6,1.7v-0.7l-0.3,0.3h-0.3C330.3,76.1,329.9,75.6,329.6,75.6z M332,67.3v2.2l0.3,1.9l0.3-0.3h0.3l-0.5-3.9H332z
		 M332.3,76.6H332l0.8,1h0.8v-0.2c0-1-0.4-1.5-1.3-1.5V76.6z M336.7,47.9h-0.5v-0.7c-0.3,0-0.5,0.4-0.5,1.2h-0.5v-0.5h-0.3
		c-0.4,0-0.5,0.4-0.5,1.2c-0.8,0-1.4,2.5-1.8,7.5l0.3,0.2h0.3c0-1.5,0.2-2.2,0.5-2.2h0.8l0.8,4.4h0.3l0.3-1.5l-0.3-0.2v-3.6
		l-0.3-2.4h0.3c0.5,0,0.9,2.8,1,8.5h0.3V56l-0.3-0.3v-0.2l0.3-1V54l-0.5-2.7v-0.5l0.3-2.4h0.3c0.5,0,0.8,0.9,0.8,2.7v0.7h0.3
		l0.5-0.5v-0.5l-0.3-0.7h0.3l0.8,0.3v-0.8h0.3l-0.3-0.2v-1.2c0.4,0,0.5-0.3,0.5-1h0.5v0.5h0.3l0.5-0.5l-0.8-0.5l-0.3,0.3h-0.3
		l-0.8-1C337.4,46,336.7,46.7,336.7,47.9z M332.8,59.8v0.5h-0.3l0.3,0.3l-0.3,1.7v1.5h0.3l0.3-1.2v-2.7H332.8z M332.8,58.9v0.7
		l0.5-0.5v-0.2H332.8z M333.8,50.1h0.5l0.3,1.2l-0.3,1l0.3,0.7h-0.5l-0.3-1.7V50.1z M333.8,57.4v0.7c0.7,2.6,1.1,6,1.1,10.2l0.3-0.2
		h0.3l0.3,0.2l0.5-2.4l-0.2-0.2v-0.2l0.2-0.7l-0.5-1.5l0.8-0.2l-0.5-0.7v-1.5c-0.8,0-1.5-1.1-1.9-3.4H333.8z M333.8,70.5l0.8,0.2V70
		h-0.3L333.8,70.5z M333.8,75.4c0.6,1.6,1.3,2.4,2.1,2.4l0.2-0.3v-0.2l-2.1-1.9H333.8z M340.7,47.9v1.2c0.2,0.5,0.7,0.7,1.6,0.7
		l-0.8-1.9H340.7z M346.3,73.2v0.2l0.5,0.5v-0.7H346.3z M348.1,73.2l-0.3,0.2v0.3c0.2,1.3,0.6,1.9,1.1,1.9h0.3v-1L348.1,73.2z
		 M348.9,73.2c0.5,1.5,0.8,2.2,1,2.2v-0.7l-0.2-1.7h-0.3l-0.3,0.2H348.9z M352.3,72.7c0.6,2.3,1.1,3.4,1.6,3.4l0.5-1
		c-0.5-0.7-0.8-1.4-0.8-2.2l-0.3-0.3H352.3z M352.8,76.1l-0.3,1.7h0.8l-0.3-1.7H352.8z M355,74.4l-0.3,1l0.5,1.5h0.5v-0.2l-0.5-2.2
		H355z M356,66.4v1.7l-0.3,2.6c0.3,1.1,0.7,1.7,1.1,1.7v-1C356.8,68.1,356.5,66.4,356,66.4z M358.1,46c0,0.5-0.3,0.7-0.8,0.7
		l-0.3-0.2l-1.1,3.6l1.3,11.4h0.3v-5.3l-0.3-1l0.3-0.3l-0.3-1.7v-6.1l1.3,0.2v-0.2l-0.3-1.2H358.1z M356,58.6v3.1l0.3,1.2l0.8-0.2
		v-0.5c-0.5,0-0.8-1.2-0.8-3.6H356z M356.3,76.4v0.2l0.3,1.2h0.8C357,76.8,356.6,76.4,356.3,76.4z M357.6,73.7l0.3,0.7h0.2v-0.7
		H357.6z M357.6,76.4v0.2l1.3,1.5h1.1v-0.5c-0.5,0-1.2-0.4-2.1-1.2H357.6z M358.1,50.9v1.2h0.3v-1.2H358.1z M358.9,56.2l-0.3,1.2
		l0.5,7.8c-0.4,0-0.8,1.4-1.1,4.1l1.1,6.8l0.3-0.2h0.3l-0.3-1.2v-2.2c0-1.1-0.2-2-0.5-2.7l0.5-0.5v-2.7l0.3-1l-0.3-0.2v-0.3l0.3-0.2
		l-0.5-8.5v-0.2H358.9z M358.9,47.9c0.9,0,1.3,0.6,1.3,1.7h0.3v-1.7l-0.3-1.7h0.3c0.2,0,0.8,1,1.6,2.9h0.5l0.3-1.9l-2.4-1.5
		C359.4,46.2,358.9,46.9,358.9,47.9z M359.7,49.9l-0.3,1.9l0.3,1.9h0.3c0-0.7,0.2-1,0.5-1C360.3,50.9,360,49.9,359.7,49.9z
		 M363.4,47.9v1h0.5v-0.5L363.4,47.9z M371,73.2v0.2c0.7,0.7,1,1.2,1,1.7h0.3v-0.5l-0.5-1.5H371z M372.9,73.2l1.3,2.2l0.8-0.2v-0.5
		c-0.7,0-1.1-0.5-1.3-1.5H372.9z M373.7,75.6v0.5l0.5,0.5h0.2v-0.2L373.7,75.6z M376,44.8v0.5l0.5,3.6h0.3V47l-0.5-2.2H376z
		 M376.6,49.2v1.2l0.3,1.2h0.2v-1.9L376.6,49.2z M377.1,71.2l-0.2,1.7l0.2,1.2h0.5l-0.3-0.2v-0.5l0.3-0.2l-0.3-1.9H377.1z
		 M377.6,45.5l0.8,6.1l0.3-0.2h0.3l-0.3-0.2v-1.5l0.3-1C378.5,46.6,378.1,45.5,377.6,45.5z M378.1,59.4v1.5h0.5l-0.3-0.2v-0.3
		l0.3-0.2l-0.3-0.7H378.1z M378.1,73.2v1.7l0.5,1h0.3l0.3-1.9l-0.3-1L378.1,73.2z M378.4,61v1.2h0.3V61H378.4z M379.2,46.7l0.3,0.7
		h0.3v-0.7H379.2z"/>
	<path fill="#FFFFFF" d="M400,35.6h0.4c5.7,0,9,0.7,10.2,2.1c3.3,1.9,6.5,5.1,9.5,9.6c2,2.3,3.3,4.1,3.8,5.3l-0.2,0.2v0.2l0.4,0.4
		v0.6h-0.4c-0.2-1-0.4-1.5-0.6-1.5l-0.2,0.6l0.2,2.1c0.3,0,0.4-0.2,0.4-0.6h0.4c0,5.6-0.8,9-2.3,10.2c-2.7,4.6-5.4,7.4-8,8.3
		c-1.7,0.8-2.9,1.3-3.8,1.3v-0.2l-1.9,0.6h-2.1l-3,0.9l0.2,1.5v0.8l-0.2,5.1l0.2,1.3l-0.2,3l0.2,1.9l-0.4,3.6v0.6l-0.4,0.4
		c-0.8,0-1.6-0.8-2.3-2.3l-2.1-1.5h-0.2v0.2c0.4,1.6,0.8,2.3,1.1,2.3l0.4-0.4c0.6,0.3,0.8,0.6,0.8,1.1l0.2-0.2h0.4v0.6l-0.4,0.4
		l0.2,0.2v0.6l-0.2,0.2v0.2c-5.2-0.4-7.8-0.8-7.8-1.3c0-0.6-0.6-1.1-1.7-1.5c0-1.2-1-2.5-2.9-3.8c-0.6,0-0.9-0.4-0.9-1.1h0.2
		l-0.6-2.8l0.2-2.6l-0.2-0.2l0.2-1.1v-4l0.2-7l-1-14.9l0.2-0.2l-0.2-1.5v-4.9l-0.2-8.7L385,39l0.4-0.4l1.1,0.2
		C390.1,37.7,394.6,36.6,400,35.6z M404.9,37.3H402l-0.2-0.2l-0.2,0.2h-2.1l-4.8,0.8l-0.6-0.4c-0.6,0-2.1,0.5-4.5,1.5V39l-1.5,0.4
		l0.2,0.9l-0.4,1.7l0.6,14.5v2.4l0.2,3.2l-0.2,0.9l1.7,24.7h0.2l0.2-0.2h0.2l1.3,0.2l0.2-0.2h0.2l0.8,0.2c1.7-0.5,2.6-1.1,2.6-1.7
		l-0.4-8.3v-5.7c0.3,0,0.6-1.4,0.8-4.3l-0.2-1.3l0.9-0.6l1,1.1c0.4,0.3,1,0.4,1.9,0.4v0.2c5.6,0,10.4-1.9,14.2-5.8
		c2.1-2.5,3.2-5.7,3.2-9.6c0.3,0,0.4-1.3,0.4-4c0-1.3-1.2-3.3-3.4-6c-2.4-2.5-5-4.2-7.8-5.1h-0.8L404.9,37.3z M388.2,82.8l-0.2,4
		l0.4,0.6l0.6-0.2c-0.4-1.6-0.6-3-0.6-4.5H388.2z M390.1,89.2l0.4,0.4l0.2-0.2v-0.2H390.1z M392.4,89.5l0.2,0.2h0.6l-0.2-0.6h-0.2
		L392.4,89.5z M393.7,90.1l-0.2,1.3l0.2,0.6h0.4v-0.4l-0.2-1.5H393.7z M394.3,89.2l0.4,1.3l-0.2,0.2v0.2c0.2,0.8,0.4,1.3,0.6,1.3
		h0.2v-0.8h0.2l0.6,0.4v-1.1c0-0.7-0.2-1.2-0.6-1.3l-0.2,0.2h-0.2L395,89h-0.2l-0.2,0.2H394.3z M402.6,45l0.2,0.2h0.2l1.1-0.2
		c4.5,1.7,6.8,3.6,6.8,5.8l0.2,0.2c0,4.1-2.4,6.9-7.2,8.3l-0.6,0.4l-0.8-0.2c-0.5,0.4-1.2,0.6-2.1,0.6l-1.9,1.5h-0.4
		c-0.3-0.1-1.3-3.4-2.9-10v-1.7l1.9-2.8l-0.2-1.1C396.7,45.7,398.6,45.3,402.6,45z M396.9,91.1v1.5h0.4v-1L396.9,91.1z M398.6,79
		v0.4c0,1.3,0.5,3.6,1.5,7v0.4h-0.2l-0.4-0.4l-0.2,0.2h-1.1c0-0.4-0.1-0.6-0.4-0.6V88l0.4,0.4v-1.1h0.4c0.1,0.7,0.3,1.1,0.6,1.1
		v-0.6h0.4c0,0.4,0.3,0.6,0.8,0.6l0.2-0.2c-0.6-4.3-1.2-6.7-1.7-7.2l-0.2-1.9H398.6z M398.3,47.9v0.2l0.6,2.7v0.5l-0.4,0.4l-0.2-0.6
		h-0.4v0.6c0.5,1,0.8,1.5,1.1,1.5h0.4c0-0.4,0.1-0.6,0.4-0.6l0.6,0.8v-1.3l-1.9-4.3H398.3z M398.1,68.8v0.4c0.1,0.8,0.3,1.3,0.6,1.3
		h0.5C399.2,69.8,398.9,69.2,398.1,68.8z M398.6,72.2l1.5,6.4h0.2V78l-0.4-2.6l0.4-0.4c-0.4-0.1-0.7-0.4-0.8-1.1l0.2-0.6l-0.2-1.3
		H399l-0.2,0.2H398.6z M398.8,55l0.2,0.2V56l-0.2,0.2c0,0.7,0.4,1.4,1.1,2.1V58l-0.6-3H398.8z M399.6,48.4l0.2,0.6h0.2v-0.6H399.6z
		 M399.6,71.8c0.6,1.3,1,3,1.3,5.1h0.4c-0.2-1.5-0.6-3.2-1.3-5.1H399.6z M400,55v0.4l0.2,0.6h0.2v-0.6L400,55z M400.2,79.7v0.2
		l0.4,0.4v-0.6H400.2z M400.2,88.6l0.2,1l-0.2,0.2l1.1,0.8c-0.3-1.4-0.5-2.1-0.8-2.1H400.2z M400.2,90.3v0.4l0.6,0.6v-0.2
		L400.2,90.3z M400.7,71.2v0.6l1.1,1.7h0.2l-0.2-1.1v-0.6L400.7,71.2z M401.1,68.8V69l0.5,0.4h0.2v-0.6H401.1z M401.5,83.1l-0.5,0.8
		l0.5,3.8V88h0.4v-0.6l-0.2-0.6l0.2-1v-1.1l-0.2-1.5H401.5z M401.3,51.4V52l0.4,0.4h0.6l-0.2-1H401.3z M402,53.9v0.6l0.2,3.2h0.4
		v-0.2l-0.4-3.6H402z M402.6,69.3l-0.2,1.1h0.4v-1.1H402.6z M402.8,75v0.4h0.2l0.4-0.4H402.8z M403,49.4v0.2c0.3,0,0.4,0.4,0.4,1.1
		l0.6,0.4h0.4v-0.4l-1.3-1.3H403z M403.6,69.3l-0.2,1.5v0.2l0.5,0.5c0-0.6,0.2-1.3,0.6-1.9l-0.2-0.2H403.6z M403.6,54.6l0.2,1.1v1.7
		c3.5-1.5,5.3-2.7,5.3-3.4v-0.6h-0.4v-0.2l-0.2,0.2h-0.2l-0.2-0.2l-0.9,0.2l-2.1-0.4c-0.8,0-1.3,0.6-1.3,1.7H403.6z M405.1,69.3
		l-0.6,2.1h0.4c0.4,0,0.7-0.6,0.9-1.9l-0.2-0.2H405.1z M404.5,73.7v0.4h0.6v-0.4H404.5z M405.1,50.5l-0.2,0.2v0.2l1.9,0.2v-0.4
		L405.1,50.5z M405.3,51.6l0.6,0.6h0.2v-0.4L405.3,51.6z M406,71.2v0.4l0.6,0.2c0.7-1.1,1-2,1-2.8v-0.2h-0.2
		C406.6,68.8,406.1,69.6,406,71.2z M407.2,72l0.2,0.9h0.4c0.2,0,0.8-1.6,1.7-4.7h-0.2c-0.7,0-1.1,0.6-1.1,1.9
		C407.6,70.7,407.2,71.3,407.2,72z M408.1,51.4l-0.2,0.2v0.2h0.6L408.1,51.4z M410.6,67.5l-1.7,5.3v0.2h0.2l2.1-5.5H410.6z
		 M409.1,50.7v0.6l0.4-0.5v-0.2H409.1z M411.5,69.3l-0.8,3c0.5,0,0.9-0.9,1.1-2.8v-0.2H411.5z M411.9,68.2v0.6h0.2l0.2-1.3
		C412,67.5,411.9,67.8,411.9,68.2z M412.1,72.2c0.3,0,0.6-0.6,0.8-1.9v-1.1C412.6,69.3,412.3,70.2,412.1,72.2z M412.5,39.9v0.2
		l0.4,0.4h0.2v-0.4l-0.2-0.2H412.5z M413.2,66.9L413,68v0.2l0.6-0.6l-0.2-0.6H413.2z M413.4,65.6v1.1h0.2l0.2-1.1v-0.4L413.4,65.6z
		 M414,68.4v0.9l0.4-0.4v-0.5H414z M414.9,64.8l-0.6,3c0.3,0,0.6-0.9,0.9-2.8v-0.2H414.9z M414.9,70.7h0.6l0.6-1.9v-0.5l-0.4-0.4
		C415.3,68,415,68.9,414.9,70.7z M415.5,67.3h0.8l0.6-5.5C416.6,61.8,416.1,63.7,415.5,67.3z M417.2,66.3v0.8h0.2v-0.8H417.2z
		 M418.9,56.3l-0.4,4.2l0.2,0.2l-0.2,1.1V65l-0.2,1.5l0.2,0.2h0.4l0.2-9.6v-0.8H418.9z M419.1,48.6l0.2,0.6l0.5-0.4v-0.2H419.1z
		 M419.8,49.7l-0.2,0.2v0.2l0.2,0.2v0.2l-0.2,0.9c0.4,0,0.9,0.4,1.5,1.3h0.2v-0.2L419.8,49.7z M419.5,52.9v0.8h0.2v-0.8H419.5z
		 M419.9,62.4l-0.2,1.1v1.7l0.6-0.2v-1.5l-0.2-1.1H419.9z M419.9,56.5v5.3c0.4,0,0.6,0.4,0.6,1.1h0.2v-0.2l-0.6-6.2H419.9z
		 M420.8,53.3v0.4l0.6,5.5h0.2v-0.9c0-1.6-0.2-3.3-0.6-5.1H420.8z"/>
</g>
<path fill="#FFFFFF" d="M255.3,16.4c-0.4,0-0.8-0.2-1-0.5l-4.7-5.1c-0.5-0.6-0.5-1.5,0.1-2c0.6-0.5,1.5-0.5,2,0.1l4.7,5.1
	c0.5,0.6,0.5,1.5-0.1,2C256,16.3,255.6,16.4,255.3,16.4z"/>
<path fill="#FFFFFF" d="M370.9,91.4c-0.5,0-1-0.3-1.3-0.8l-2.2-4.1c-0.4-0.7-0.1-1.5,0.6-1.9c0.7-0.4,1.6-0.1,1.9,0.6l2.2,4.1
	c0.4,0.7,0.1,1.5-0.6,1.9C371.3,91.3,371.1,91.4,370.9,91.4z"/>
<path fill="#FFFFFF" d="M325.8,16.3c-0.2,0-0.3,0-0.5-0.1c-0.7-0.3-1.1-1.1-0.8-1.8l1.9-5.2c0.3-0.7,1.1-1.1,1.8-0.8
	c0.7,0.3,1.1,1.1,0.8,1.8l-1.9,5.2C326.9,16,326.3,16.3,325.8,16.3z"/>
<path fill="#FFFFFF" d="M276.8,90.3c-0.2,0-0.3,0-0.5-0.1c-0.7-0.3-1.1-1.1-0.8-1.8l1.9-5.2c0.3-0.7,1.1-1.1,1.8-0.8
	c0.7,0.3,1.1,1.1,0.8,1.8l-1.9,5.2C277.9,90,277.3,90.3,276.8,90.3z"/>
<path fill="#FFFFFF" d="M403.9,21.7c-0.3,0-0.6-0.1-0.8-0.2c-0.6-0.4-0.8-1.3-0.4-2l3.2-4.6c0.4-0.6,1.3-0.8,2-0.4
	c0.6,0.4,0.8,1.3,0.4,2l-3.2,4.6C404.8,21.5,404.3,21.7,403.9,21.7z"/>
</svg>
