<?xml version="1.0" encoding="utf-8"?>
<!-- Generator: Adobe Illustrator 18.1.1, SVG Export Plug-In . SVG Version: 6.00 Build 0)  -->
<!DOCTYPE svg PUBLIC "-//W3C//DTD SVG 1.1//EN" "http://www.w3.org/Graphics/SVG/1.1/DTD/svg11.dtd">
<svg version="1.1" id="Слой_1" xmlns="http://www.w3.org/2000/svg" xmlns:xlink="http://www.w3.org/1999/xlink" x="0px" y="0px"
	 viewBox="0 0 211.8 74.3" enable-background="new 0 0 211.8 74.3" xml:space="preserve">
<g>
	<g>
		<defs>
			<path id="SVGID_1_" d="M36.3,10.2c-0.9-6.2,6.1-5.9,8.5-5.1l-2.2-3.3L38.7,1l-6.2,2.3l0.7,6.3L36.3,10.2z"/>
		</defs>
		<clipPath id="SVGID_2_">
			<use xlink:href="#SVGID_1_"  overflow="visible"/>
		</clipPath>
		<path clip-path="url(#SVGID_2_)" fill="#E21B17" d="M13.3,13.2l-0.7-0.8l-1.2,0.2l-0.2,0.2l0.4,0.3l-0.2,0.2
			c7.5,1.7,11.8,3,13,3.9l1.3-0.4l0.2-0.2l-0.2-0.2L13.3,13.2z M12.6,15.6c-0.2,0.6,0.1,1.1,0.8,1.6l0.2,0.2l6.2,1.4l0.2-0.2
			l-0.2-0.2C16.2,17.4,13.9,16.5,12.6,15.6z M15.4,12.6l0.4,0.3l2.2,0.6L18,13.1l0.2-0.3c1-0.1,5.1,0.6,12.4,2l0.3-0.5
			c-8.3-2.4-13.4-3.1-15.3-2.1L15.4,12.6z M24.1,9l11.4,2.4l1.1-1L25.9,7.9c-0.4-0.3-0.9-0.1-1.5,0.7L24,8.6L24.1,9z M23,10l0,0.8
			l10.6,1.7l0.3-0.5C28.5,10.4,24.8,9.7,23,10z M27.6,6.6L27.2,7l0.4,0.3c6.7,2,10.2,2.7,10.6,2.2l0.9-0.8l-0.2-0.2
			C32.1,7.1,28.3,6.4,27.6,6.6z M24.4,12.1l0.2,0.2c4.1,1,6.7,1.5,8,1.3l-0.1-0.4C27.3,12.1,24.6,11.8,24.4,12.1z M29.6,5.6
			l-0.2,0.2L38.7,8c1.4,0.3,2.4,0,3.1-0.9C37,6,32.9,5.5,29.6,5.6z M27.8,14.7c-0.5,0.7-1.8,0.5-4-0.4l-0.3,0.5l0.2,0.2
			c2.4,0.8,3.8,1.1,4,0.8l0.5-0.7L27.8,14.7z M34.6,3.3l-0.4-0.7L34,2.8l-2.6,1.7l0.4,0.3l2.6,0.5l0.3-0.5L33.8,4
			c0.2-0.3,1.1-0.1,2.6,0.5l9.1,0.7l0.7-0.9L34.6,3.3z M34.8,2.2L35,2.4c6.8,0.9,10.9,1.2,12.4,1l0.3-0.5l-0.2-0.2l-12-1L34.8,2.2z
			 M37.3,0.5L37,1l0.2,0.2c7.8,1,12,1.3,12.4,0.6L50,1.3l-0.2-0.2C43.3,0.5,39.1,0.3,37.3,0.5z M53.1-6.4l0.2,0.2l3,0.4l0.2,0.1
			l-0.2,0.2l-6.5-0.1L48.7-5l-0.2,0.2l5.6,0.9c-0.3,0.4-2.6,0.4-6.8-0.1l-0.3,0.5l6.6,1.3l-0.3,0.5C48-2.6,44.1-2.7,41.6-2l0.2,0.1
			c0.5,0.4,3.5,0.9,8.8,1.5l0.2,0.1l-0.4,0.5c-6.9-1-10.4-1.4-10.7-1.1l-0.2,0.2l0.2,0.1c7.4,1,11.3,1.3,11.7,0.8
			c1.3-0.3,2.4-1.1,3.5-2.4c1.3-0.2,2.1-0.6,2.4-1.1l0-0.8c1.5-0.2,2.5-0.7,3.2-1.6L60.4-6l-0.2-0.2C55.8-6.7,53.4-6.8,53.1-6.4z
			 M37.6,5.5l-0.2,0.2l0.2,0.1c3.4,0.7,5.3,0.8,5.7,0.3L43.2,6L37.6,5.5z M46.2-5.1c0.4,0.2,0.9,0,1.7-0.6l-0.2-0.1
			C47.4-6,46.8-5.8,46.2-5.1z M67.9-17.4L67-16.2l0.2,0.2l0.3-0.5l0.4,0.3c-0.8,1.1-2.4,1.5-4.6,1.2l-0.8-0.3l-2,1.4l0.2,0.1
			l1.2,0.6c-2.3,0.1-3.7,0.5-4.2,1.2l0.4,0.3l-0.2,0.2l1.6,0.5c-3.1,0.1-4.8,0.3-5,0.6l-0.4,0.1L54.1-10l0.1,0.4l0.2,0.1l5.1,0.2
			l0.4,0.3c-5.5,0-8.3,0.1-8.6,0.4l-0.5,0.7L51-7.6c7.5,0.8,11.4,1,11.8,0.5l0.9-0.7l0.2-0.3l-0.2-0.2l-3.8-0.7
			c0.5-0.3,2.3-0.3,5.3,0l1.1-1l-0.2-0.2l4.1-2.4l-0.2-0.1l-1-0.4c0.2-0.3,0.6-0.3,1,0l0.4-0.1l0.2-0.2l-0.1-0.4l-0.2-0.2l-0.4,0.1
			l-0.1-1.2l0.2-0.3l-1.7-0.5l0.2-0.2l0.4-0.1l0.2-0.2l0.3-0.8L67.9-17.4z M60.4-15.4l-0.3,0.5l0.2,0.2c0.4-0.6,1.2-1,2.2-1.2
			l0.5-0.7l-0.2-0.1C62.5-17,61.7-16.5,60.4-15.4z M66-10.5l-0.2,0.2l-5.7-0.3l-0.4-0.3C62.2-11.1,64.3-11,66-10.5z M68-14.4
			l0.2,0.2L68-14c-0.4,0.5-2.1,0.5-5.2-0.2l0.4-0.5C65.5-14.3,67-14.2,68-14.4z M67.2-18.2l0.6,0.5l0.7-0.9L67.2-18.2z M65.6-13
			l0.2,0.2c-0.3,0.4-1.2,0.4-2.6-0.1l0.2-0.2C64.1-13.6,64.8-13.5,65.6-13z M67.3-13.1l0.4,0.3l-1.2,0.2l-0.4-0.3L67.3-13.1z
			 M68.7-13.2l0.2,0.1l-0.2,0.3L68-12.6l-0.2-0.2l0.2-0.2L68.7-13.2z"/>
	</g>
	<g>
		<path fill="#E52F2C" d="M58.8,6.6c0-0.1-0.1,0-0.1,0C58.8,6.7,58.8,6.5,58.8,6.6z"/>
		<polygon fill="#E52F2C" points="59.7,7.3 59.6,7.3 59.8,7.4 		"/>
		<path fill="#E52F2C" d="M60.1,8C60.3,7.9,60,7.8,60,7.7l0-0.1l-0.2,0C59.9,7.8,60,7.8,60,7.9C60.1,7.9,60.1,8,60.1,8z"/>
		<path fill="#E52F2C" d="M59.7,8.2C59.8,8.2,59.8,8.2,59.7,8.2C59.7,8.2,59.7,8.2,59.7,8.2C59.7,8.2,59.7,8.2,59.7,8.2z"/>
		<path fill="#E52F2C" d="M59.7,8.2C59.7,8.2,59.6,8.2,59.7,8.2L59.7,8.2z"/>
		<path fill="#E52F2C" d="M59.8,8.3l-0.1-0.1c-0.1,0-0.1,0-0.1,0C59.6,8.2,59.7,8.3,59.8,8.3z"/>
		<path fill="#E52F2C" d="M60.1,8.4L60.1,8.4C60,8.4,60,8.4,60.1,8.4z"/>
		<path fill="#E52F2C" d="M59.9,8.3L60,8.4C60.1,8.4,60.2,8.4,59.9,8.3C60.1,8.4,60,8.3,59.9,8.3z"/>
		<path fill="#E52F2C" d="M59.9,8.3c0.1,0,0.1,0,0.2,0C60,8.2,59.9,8.2,59.9,8.3z"/>
		<path fill="#E52F2C" d="M60.4,8L60.4,8l-0.1-0.1C60.4,7.9,60.3,8,60.4,8z"/>
		<path fill="#E52F2C" d="M59.7,8.3c0.1,0,0.2,0.1,0.3,0.2c0,0-0.1-0.1-0.1-0.1C59.9,8.5,59.8,8.4,59.7,8.3z"/>
		<path fill="#E52F2C" d="M60.1,8.5L60.1,8.5C60.2,8.6,60.2,8.6,60.1,8.5z"/>
		<path fill="#E52F2C" d="M60.5,8.6c0,0-0.3-0.2-0.3-0.2C60.2,8.4,60.5,8.6,60.5,8.6L60.5,8.6z"/>
		<path fill="#E52F2C" d="M59.6,8.3l-0.1-0.1C59.4,8.2,59.6,8.4,59.6,8.3L59.6,8.3z"/>
		<path fill="#E52F2C" d="M59.5,8.3c-0.1-0.1-0.1-0.2-0.2-0.2c0,0,0.1,0.1,0.1,0.2C59.4,8.3,59.4,8.3,59.5,8.3z"/>
		<path fill="#E52F2C" d="M59.4,8.4C59.4,8.4,59.4,8.3,59.4,8.4C59.4,8.3,59.4,8.4,59.4,8.4z"/>
		<path fill="#E52F2C" d="M60,8.6c0,0-0.2-0.1-0.2-0.1L60,8.6L60,8.6z"/>
		<path fill="#E52F2C" d="M60,8.6L60,8.6C59.9,8.6,59.9,8.6,60,8.6C59.9,8.6,59.9,8.6,60,8.6z"/>
		<path fill="#E52F2C" d="M60,8.6L60,8.6C60,8.6,60,8.6,60,8.6z"/>
		<path fill="#E52F2C" d="M60.4,8.7C60.6,8.8,60.8,9,61,9C60.8,8.9,60.7,8.9,60.4,8.7z"/>
		<path fill="#E52F2C" d="M60.3,8.8l0.1,0C60.4,8.8,60.3,8.7,60.3,8.8L60.3,8.8z"/>
		<polygon fill="#E52F2C" points="60.3,8.8 60.3,8.8 60.2,8.8 		"/>
		<path fill="#E52F2C" d="M59.6,8.5C59.6,8.6,59.6,8.6,59.6,8.5c0,0.1,0.1,0.1,0.1,0.1C59.7,8.6,59.6,8.5,59.6,8.5z"/>
		<path fill="#E52F2C" d="M59.8,8.6L59.8,8.6C59.8,8.6,59.8,8.6,59.8,8.6z"/>
		<polygon fill="#E52F2C" points="59.1,8.6 59.1,8.6 59.1,8.6 		"/>
		<path fill="#E52F2C" d="M59.8,8.7C59.8,8.7,59.8,8.7,59.8,8.7C59.8,8.6,59.8,8.6,59.8,8.7C59.7,8.7,59.7,8.7,59.8,8.7z"/>
		<path fill="#E52F2C" d="M59.4,8.5C59.4,8.5,59.4,8.5,59.4,8.5C59.4,8.5,59.4,8.4,59.4,8.5z"/>
		<path fill="#E52F2C" d="M59.7,8.5L59.7,8.5C59.7,8.5,59.7,8.5,59.7,8.5z"/>
		<path fill="#E52F2C" d="M59.7,8.5C59.7,8.6,59.8,8.6,59.7,8.5C59.8,8.6,59.8,8.6,59.7,8.5C59.8,8.6,59.8,8.6,59.7,8.5z"/>
		<path fill="#E52F2C" d="M58.9,9.4c0-0.1,0.2-0.2,0.4-0.1c0.1-0.1,0-0.5-0.1-0.7c0,0.1,0,0.1-0.2,0.2C59,8.8,59.3,8.9,59.2,9
			C59,9.1,59,9,58.9,8.9c0.1,0.1-0.3,0.2-0.2,0.4l0.2-0.1C58.9,9.3,58.8,9.4,58.9,9.4z"/>
		<path fill="#E52F2C" d="M59.3,8.6L59.3,8.6c0,0,0-0.1-0.1-0.2c0,0.1-0.1,0.1-0.1,0.1C59.2,8.6,59.3,8.6,59.3,8.6L59.3,8.6z"/>
		<path fill="#E52F2C" d="M59.5,8.6c0,0.1,0,0.2,0.1,0.3c0.1,0,0-0.1,0.1-0.2C59.5,8.8,59.7,8.7,59.5,8.6
			C59.5,8.6,59.5,8.6,59.5,8.6C59.5,8.6,59.5,8.6,59.5,8.6L59.5,8.6L59.5,8.6L59.5,8.6C59.5,8.6,59.5,8.6,59.5,8.6L59.5,8.6
			C59.5,8.6,59.5,8.6,59.5,8.6C59.4,8.6,59.5,8.6,59.5,8.6L59.5,8.6L59.5,8.6c0-0.1-0.1,0-0.1,0C59.4,8.6,59.4,8.6,59.5,8.6z"/>
		<path fill="#E52F2C" d="M61.4,9.3C61.4,9.3,61.4,9.3,61.4,9.3C61.4,9.3,61.4,9.3,61.4,9.3z"/>
		<path fill="#E52F2C" d="M61.2,9.3C61.2,9.2,61.1,9.2,61.2,9.3c0.1,0,0.1,0,0.2,0.1c0,0,0-0.1-0.3-0.2L61.2,9.3
			c-0.3-0.1-0.6-0.3-0.7-0.3C60.7,9,60.9,9.1,61.2,9.3z"/>
		<path fill="#E52F2C" d="M60.2,9L60,9l0.2,0.1l-0.1-0.1C60.3,9.1,60.2,9,60.2,9z"/>
		<polygon fill="#E52F2C" points="59.1,8.5 59.1,8.4 59,8.6 		"/>
		<polygon fill="#E52F2C" points="58.7,8.6 58.7,8.4 58.6,8.5 		"/>
		<path fill="#E52F2C" d="M43.9,21.8L43.9,21.8C43.9,21.8,43.9,21.8,43.9,21.8z"/>
		<path fill="#E52F2C" d="M44.4,21.4L44.4,21.4C44.4,21.4,44.4,21.4,44.4,21.4z"/>
		<path fill="#E52F2C" d="M50.3,12.1c-0.2,0-0.4,0-0.3,0.1l0.1,0C50.2,12.1,50.2,12.1,50.3,12.1z"/>
		<path fill="#E52F2C" d="M47.6,17.6L47.6,17.6c0-0.1,0-0.1,0-0.1C47.6,17.5,47.6,17.5,47.6,17.6z"/>
		<path fill="#E52F2C" d="M48,18l-0.2,0.1C47.8,18,47.9,18,48,18z"/>
		<path fill="#E52F2C" d="M40.9,23.2l-0.1,0.2C41,23.4,40.9,23.3,40.9,23.2z"/>
		<path fill="#E52F2C" d="M54.9,9.1c-0.1,0-0.2,0-0.3,0C54.8,9.1,54.9,9.2,54.9,9.1z"/>
		<path fill="#E52F2C" d="M43.4,20.4c0,0,0,0.1,0,0.1C43.4,20.5,43.4,20.5,43.4,20.4z"/>
		<path fill="#E52F2C" d="M54.3,9.2C54.3,9.2,54.4,9.2,54.3,9.2c0.1,0,0.2-0.1,0.3-0.1C54.5,9.1,54.4,9.1,54.3,9.2z"/>
		<path fill="#E52F2C" d="M32.1,19.4C32.1,19.3,32.1,19.3,32.1,19.4C32.1,19.3,32.1,19.3,32.1,19.4z"/>
		<path fill="#E52F2C" d="M35.3,17.7c0,0-0.1,0.1-0.1,0.1C35.3,17.8,35.3,17.7,35.3,17.7z"/>
		<path fill="#E52F2C" d="M57.2,8.6C57.3,8.5,57.2,8.5,57.2,8.6L57.2,8.6z"/>
		<path fill="#E52F2C" d="M57.6,9.1C57.6,9.1,57.6,9.1,57.6,9.1C57.6,9.1,57.6,9.1,57.6,9.1z"/>
		<path fill="#E52F2C" d="M53.9,10.2L53.9,10.2C53.9,10.2,53.9,10.2,53.9,10.2z"/>
		<path fill="#E52F2C" d="M57.3,8.6c0,0-0.1,0-0.1,0C57.2,8.6,57.3,8.6,57.3,8.6z"/>
		<path fill="#E52F2C" d="M57.3,8.6C57.3,8.6,57.4,8.6,57.3,8.6C57.4,8.5,57.4,8.5,57.3,8.6z"/>
		<path fill="#E52F2C" d="M57.1,8.6c0,0,0.1,0,0.1,0c0,0,0,0,0,0C57.2,8.6,57.2,8.6,57.1,8.6z"/>
		<path fill="#E52F2C" d="M35.4,24C35.4,24,35.4,24,35.4,24C35.4,24.1,35.4,24.1,35.4,24z"/>
		<polygon fill="#E52F2C" points="50.2,14.5 50.2,14.5 50.2,14.5 		"/>
		<path fill="#E52F2C" d="M50.2,14.8c-0.1-0.2,0-0.2,0-0.3l-0.4-0.1L50.2,14.8z"/>
		<path fill="#E52F2C" d="M42.6,22.5l0.2,0c-0.1,0.3-0.3,0.3-0.1,0.4c-0.1-0.4,0.7-0.4,0.5-0.8l0.2,0c0,0,0,0-0.1,0.1
			c0.3,0,0-0.3,0.3-0.5c0.1,0,0.2,0,0.2,0.1l0.2-0.2c0.1,0,0.1,0,0,0.1l0.3-0.2l0,0c0-0.1,0.1-0.2,0.1-0.3c0.1,0,0,0.1,0,0.1
			l0.1-0.2c0.1,0,0,0.2-0.1,0.3c0.4,0.2,0.1-0.2,0.6-0.2L45,21.2c0.2,0.1,0.3,0,0.6-0.1c-0.1,0-0.6,0-0.5-0.2c0.1,0,0.2,0,0.2-0.2
			c0.1,0.1,0.2,0,0.3-0.1l0.1,0.2c0.1-0.2,0-0.2,0-0.4c0.2-0.1,0.3,0,0.4,0c0.3-0.2-0.3,0-0.1-0.3c0.2-0.1,0.3-0.3,0.5-0.6
			c0.2-0.1,0.1,0.1,0.1,0.1l0-0.2c0,0,0.1,0,0.1,0c0-0.1-0.1-0.1,0-0.3c-0.1-0.2,0.5-0.1,0.5-0.4c0.1,0,0.1,0.1,0.1,0.1
			c0.1-0.4,0.1-0.3,0.1-0.7l0.2-0.1c-0.2,0.1-0.2-0.2-0.2-0.5c-0.1,0-0.2,0-0.2,0l0.1-0.3c0,0,0.1,0.1,0.1,0.1l0-0.1
			c0.1,0,0.2,0.1,0.2,0.2c-0.1,0-0.1,0-0.2,0c0,0.1,0.1,0.3,0.2,0.3c0,0,0-0.1,0-0.1c0,0,0,0.1,0,0.1c0,0,0,0,0-0.1l0.2,0.1
			l-0.1-0.1l0.4-0.3c0-0.4-0.1-0.8,0-1.2c0.1,0.2,0.2,0.2,0.4,0.3c-0.2,0-0.1,0.3-0.3,0.5c0.1-0.1,0.1,0,0.2,0l0.1-0.5
			c0.1,0.1,0.1,0,0.3-0.1c-0.3-0.1,0-0.4,0-0.6c0.1,0,0.2,0.1,0,0.3c0.3-0.1-0.1-0.4,0.1-0.5c0,0-0.1,0.1,0,0.1
			c0-0.1,0.2-0.4,0.2-0.3l0,0c0.2-0.3,0.5-0.9,0.3-1.1c0,0,0.2,0.2,0.3,0.2l-0.4-1c0.2,0.2,0.7,0.3,0.7,0.6c0.1-0.1,0.2-0.1,0.2-0.3
			c-0.1,0-0.3-0.1-0.3-0.1c0.3,0,0.2,0,0.5-0.1c-0.1,0-0.3-0.2-0.2-0.3c0,0,0.3,0.2,0.3,0.2l-0.1-0.5c0,0.1,0.2,0.2,0.3,0.2
			c-0.1,0,0.2-0.2,0.2-0.3l-0.1,0.1c0.3-0.2-0.2-0.6,0.1-0.8c0,0.1,0.3,0.4,0.4,0.2c-0.1-0.2-0.4-0.8-0.2-1.1l0.1,0l0.1-0.3
			c0.1,0.3,0.1,1,0.2,1.3c0.1,0,0.1,0.1,0.2-0.1c0.1,0,0,0.2,0,0.2l0.3-0.3c-0.2-0.1,0.1-0.4,0-0.5l-0.2,0.5
			c-0.2-0.1-0.2-0.6,0.1-0.8c0.1,0,0.2,0.3,0.2,0.4c0-0.1,0.1-0.3,0.2-0.3l0,0.2c0.2,0,0.1-0.4,0.3-0.3c0.1,0,0.3,0.1,0.3,0
			c-0.2-0.1-0.7-0.7-0.7-0.9c0,0,0.5-0.1,0.6,0c0.2,0.1,0.1,0.5,0.2,0.5c0,0,0-0.1,0-0.2c0.1,0,0.1,0.2,0.2,0.1
			c-0.1-0.2,0.3-0.1,0-0.2c0.1-0.1,0.2,0,0.3-0.1c-0.1-0.1,0-0.5,0.1-0.6c0,0.1,0.1,0.1,0.1,0.1c0.3-0.2,0.6-0.1,0.9-0.2
			c0,0,0.2,0,0.2,0.2c0,0,0.1-0.1,0.1-0.2c0.2,0.1-0.2,0.1,0,0.3c0-0.1,0.2-0.2,0.3-0.3c-0.1-0.2-0.3,0.1-0.4,0.2
			c-0.1-0.2,0.1-0.6,0.4-0.8c0.3-0.1,0.2,0.1,0.2,0.1c0.5,0,0.4-0.5,0.8-0.4c0.2,0.1,0.1,0.3,0.1,0.4c-0.2,0.1-0.4,0-0.5,0l0.2,0
			c-0.1,0.1-0.2,0.1-0.3,0.1c0.2,0.1,0.9-0.1,1.3,0c0.1-0.1,0.2-0.1,0.1-0.2l-0.1,0c-0.1-0.1,0.2-0.2,0.1-0.2
			c0.2-0.1,0.3-0.2,0.6-0.2l0.1,0.2c0-0.1-0.2-0.1-0.2,0C57.7,9,58,9.3,58.1,9l-0.2-0.1c0.2-0.1,0.4-0.3,0.6-0.3
			c-0.1-0.2,0,0-0.2-0.2c0.1,0.3-0.6,0-0.3,0.3c-0.2-0.2-0.3-0.1-0.5-0.3c0,0.1,0.1,0.1-0.1,0.1c0,0,0,0,0,0.1l0,0l0,0c0,0,0,0,0,0
			c0,0,0.1,0.1,0.1,0.1C57.4,8.9,57.1,8.9,57,9c-0.1,0,0-0.1,0-0.1L56.8,9c0-0.1-0.3-0.2-0.1-0.3l-0.2,0c-0.1-0.1-0.3-0.1-0.5,0
			c-0.1,0-0.3,0.2-0.2,0.1l-0.4,0.1l0,0c-0.4,0-0.7,0.4-1.2,0.3c-0.1,0.1-0.2,0.1-0.4,0.2l-0.1-0.1c-0.1,0.1-0.5,0.1-0.5,0.2
			c-0.3-0.2-0.8,0.3-1,0.4l0.1,0.1c-0.2,0.1-0.3,0.3-0.5,0.5l0.1,0.1c-0.1,0.2-0.5,0.2-0.7,0.5c0-0.1,0.1-0.1,0.1-0.1
			c-0.5,0.1-0.4,0.7-0.8,0.9c0,0.1-0.1,0.1-0.1,0.2c0,0,0,0,0,0l0,0c0,0-0.1,0-0.1,0.1c0,0,0.1,0,0.1,0c0,0.1-0.1,0.1-0.1,0.2
			l-0.1-0.1c0,0,0,0,0,0c-0.1,0,0,0.1,0.1,0.1c0,0.1,0,0.1,0,0.2c-0.2-0.1-0.1,0.3-0.4,0.2c0.1,0.1-0.2,0.5,0,0.6c0,0-0.1,0,0,0
			c-0.1,0.1-0.2,0.1-0.2,0.3l-0.2-0.1l0.1,0.3c-0.2,0.1-0.3,0.1-0.3-0.1c0,0.4-0.1,0.3,0,0.6l-0.1-0.1c0,0.1,0,0.3-0.1,0.3
			c-0.3,0.1-0.6,1-1.1,1.3c0.4,0.1-0.3,0.1-0.1,0.3c-0.1,0-0.2,0-0.2-0.1c-0.1,0.3-0.3,0.3-0.3,0.6c-0.1,0-0.1-0.1-0.1-0.1
			c0,0,0,0.1,0,0.1c-0.1,0,0-0.1,0-0.1c-0.2,0.2,0,0.4,0.2,0.6c-0.2,0.1-0.2,0.1-0.2,0.3c-0.1,0-0.2,0-0.1-0.1
			c-0.1,0.1-0.5,0.4-0.3,0.6c-0.1,0-0.1,0.1-0.1,0.1c-0.2,0.2-0.2,0.2-0.3,0.3l0.1,0c0.1,0.2-0.1,0.2-0.2,0.3l0,0
			c-0.4,0.2-0.1,0.2-0.5,0.3l0.1,0.1c0.2,0.3-0.4,0.1-0.5,0.4l0.1,0c0,0.2-0.6-0.1-0.7,0c0,0,0-0.1,0-0.1c-0.4,0.1,0.1,0.2-0.1,0.4
			c-0.1-0.1-0.1-0.2-0.3-0.2c-0.1,0-0.2,0.5-0.5,0.5c0.1,0,0.2,0.1,0.1,0.2c-0.1,0.1-0.6,0-0.6,0.3c0,0,0,0-0.1,0
			C43.3,20.7,43,20.9,43,21c-0.3-0.4-0.7,0.6-0.9,0.2l-0.4,0.2l0,0c-0.3,0.1-0.3,0.2-0.4,0.4c-0.1,0,0-0.1,0-0.1
			c-0.4,0.1-0.4,0.1-0.7,0.4l-0.1-0.1c-0.1,0.1-0.6,0-1,0.2c0,0,0,0,0-0.1c-0.4,0.3-1.1-0.1-1.2,0.4l-0.3,0.2c0.4,0,0,0.2,0.2,0.3
			c-0.1,0.1-0.4-0.1-0.2-0.1l0,0c0-0.3-0.5,0-0.5-0.2c-0.8,0.2-1.5,0.2-2.2,0.3l0.1,0.2l-0.3,0c-0.1,0-0.1-0.1,0.1-0.2
			C35.2,23,35,23.2,35,23.3c-0.4,0,0.1-0.3,0-0.3l-0.1,0l0,0c-0.1,0.1-0.1,0.2-0.3,0.2c-0.1,0-0.1-0.1-0.1-0.1c0,0,0,0,0,0l-0.1,0
			c0,0,0,0.2,0,0.2c-0.1,0.1-0.2,0-0.1,0.2c0-0.1-0.1-0.1-0.1-0.1c0-0.1-0.1-0.2-0.1-0.3c0-0.1-0.1-0.1-0.1-0.2
			c0-0.1-0.1-0.2-0.1-0.2c-0.2-0.1-0.3-0.3-0.4-0.5c0,0.1-0.2,0.2-0.2,0c0.4-0.1,0-0.4,0.2-0.7c-0.1,0.2-0.3-0.5-0.4-0.2
			c-0.1-0.2,0.1-0.1,0.2-0.2c-0.3-0.3-0.2-0.4-0.3-0.6c0,0,0.1-0.1,0.1-0.1c0,0-0.2,0-0.2-0.1c0,0,0.3,0,0.3,0c0,0-0.2-0.2,0-0.2
			c-0.1,0-0.1,0-0.1-0.1c0.9-0.6,1.2-1.7,2.2-2.1c-0.2,0-0.1,0,0-0.1c-0.1,0-0.1-0.1-0.2-0.1l0.4-0.2c-0.1-0.2,0.3-0.4,0.2-0.5
			l-0.1,0.1c0-0.3-0.5-0.1-0.7-0.3c0.1,0.3-0.6,0.2-0.6,0.6c-0.1,0,0-0.1-0.1-0.1c0,0.1,0,0.2-0.2,0.3l0,0c-0.3,0.4-0.6,0.5-1,0.9
			l0.1,0.1c-0.1,0.1-0.1,0.1-0.2,0.1c0.1,0.3,0.2-0.3,0.3,0c-0.3-0.1-0.6,0.7-0.9,0.5c-0.1,0.1,0.2,0.1,0,0.2l-0.1,0l0.1,0.1
			c-0.1,0.1-0.3,0.1-0.3,0.1c0,0,0.1-0.1,0.1-0.2c-0.2,0.1-0.5,0.6-0.6,0.6l0.3-0.2c-0.1,0.2-0.3,0.4-0.5,0.6
			c0.2,0.3,0.3,0.6,0.5,0.9l0.1,0.2l0.1,0.1c0.1,0.1,0.1,0.2,0.2,0.2l0-0.1c0.3,0.3,0.1,0.3,0.3,0.7l0,0c0.1,0,0.2,0.1,0.2,0.2
			c-0.1-0.1,0,0.3-0.2,0.2c0.3,0.3,0.2,0.1,0.5,0.3l-0.1,0.1c0.1,0,0.2,0,0.3,0.2c-0.2-0.2-0.1,0.3-0.3,0.1c0,0.4,0.2,0.6,0.3,0.7
			c0.1,0.1,0.1,0.1,0.1,0.2c0,0.1,0,0.2,0.1,0.3c0.1-0.1,0.1-0.2,0.1-0.2c0,0-0.1,0-0.1-0.1c-0.1-0.1-0.1-0.3-0.1-0.2
			c0-0.1,0.1-0.1,0.1-0.1c0,0,0.1,0,0.1,0.1c0,0,0.1,0,0.1,0c0.1,0,0.2,0.4,0.7,0.2c-0.1,0-0.1,0-0.1,0c0.2,0,0.4-0.2,0.6-0.1
			c0.1-0.2,0.2,0,0.2-0.3L35,24.2c0.2-0.1,0.3-0.4,0.6-0.3c0,0.1-0.1,0.1-0.1,0.2c0.1,0,0.2-0.1,0.3,0c0,0.2-0.4,0.1-0.5,0.4
			c0.1,0.1,0.3-0.2,0.3,0c0.1-0.3,0.4,0,0.5-0.3l0,0.1c0,0,0.1-0.1,0.2-0.1l-0.1,0.2c0.2-0.2,0.4,0.1,0.6-0.1
			c-0.4,0.1-0.1-0.1-0.3-0.2c0.4-0.3,0.3,0.3,0.9,0.1c-0.1,0-0.3,0-0.2-0.1c0.1,0,0.3,0,0.3,0.1c0.4-0.1-0.1-0.1,0.1-0.2
			c0.2,0.1,0.2-0.1,0.3-0.2l0,0.1c0.4,0,0-0.3,0.4-0.3l-0.1,0.2l0.2-0.1l0,0.2c0.2-0.2,0.3-0.1,0.5-0.1c-0.1-0.1,0-0.3,0.2-0.3
			c0.1,0.1,0,0.1,0.2,0.1c0,0.1-0.1,0.2-0.2,0.1c0,0,0,0.1,0,0.1c0.2,0.1,0.3-0.1,0.4-0.1c0,0-0.1,0-0.1,0l0.3-0.3
			c0.1,0,0,0.1,0,0.1c0.1,0,0.1-0.1,0.2-0.2c0,0.1,0,0.2-0.1,0.3l0.3-0.2c0,0,0.2,0.1,0.2,0.1c0.2,0,0.4-0.4,0.7-0.4
			c0,0,0-0.1,0.1-0.1c0.3-0.1,0.5,0,0.8-0.3L42,23c0.2-0.1-0.3-0.2,0-0.4c0.2-0.2,0.2,0.1,0.3,0.1c0.1-0.2,0.2-0.5,0.5-0.4
			C42.8,22.4,42.7,22.4,42.6,22.5z M45.2,20.9c0,0.1-0.1,0.2-0.2,0.2C45,20.8,45,20.9,45.2,20.9z M48.1,17.4c0,0.1,0,0.1-0.1,0.1
			C48,17.5,48,17.4,48.1,17.4z M56.4,8.8L56.4,8.8C56.2,8.8,56.3,8.8,56.4,8.8z M56.6,8.8C56.7,8.8,56.7,8.8,56.6,8.8
			c0,0-0.1,0-0.1,0C56.5,8.8,56.6,8.9,56.6,8.8z M34.5,23.2L34.5,23.2C34.5,23.3,34.5,23.3,34.5,23.2z"/>
		<path fill="#E52F2C" d="M47.9,17.9C47.9,17.9,47.9,17.9,47.9,17.9C47.8,17.9,47.9,18,47.9,17.9z"/>
		<path fill="#E52F2C" d="M40.9,23.2L40.9,23.2C40.9,23.2,40.9,23.2,40.9,23.2L40.9,23.2z"/>
		<path fill="#E52F2C" d="M53.2,11.2c-0.1,0-0.1,0-0.1,0C53.1,11.2,53.2,11.2,53.2,11.2z"/>
		<path fill="#E52F2C" d="M58,8.5l-0.2,0C57.9,8.5,58,8.5,58,8.5C58,8.5,58,8.5,58,8.5z"/>
		<path fill="#E52F2C" d="M59.5,9.3C59.5,9.3,59.6,9.3,59.5,9.3L59.5,9.3C59.5,9.2,59.4,9.3,59.5,9.3z"/>
		<path fill="#E52F2C" d="M58.2,8.9c0,0.1,0.1,0.1,0.2,0l0,0C58.5,8.8,58.3,8.9,58.2,8.9z"/>
		<path fill="#E52F2C" d="M58.5,9c0,0,0.1,0,0.1,0C58.6,8.9,58.5,9,58.5,9z"/>
		<path fill="#E52F2C" d="M57,8.7c0.1,0,0-0.2,0.1-0.1C57.1,8.4,56.7,8.8,57,8.7z"/>
		<polygon fill="#E52F2C" points="58.3,9.3 58.3,9.2 58.2,9.3 		"/>
		<path fill="#E52F2C" d="M57.4,9.3l0.2,0c0,0,0,0,0-0.1C57.5,9.2,57.4,9.2,57.4,9.3z"/>
		<path fill="#E52F2C" d="M57.6,9.2c0.1,0,0.1,0,0.1,0C57.8,9.2,57.7,9.2,57.6,9.2z"/>
		<polygon fill="#E52F2C" points="58.1,9.4 58,9.4 57.9,9.3 		"/>
		<path fill="#E52F2C" d="M55.4,9.5l-0.2,0.1c0,0.1,0.1,0.1,0.1,0C55.4,9.6,55.5,9.6,55.4,9.5z"/>
		<path fill="#E52F2C" d="M56.1,9.8C56,9.8,56,9.8,56,9.7L56.1,9.8L56.1,9.8z"/>
		<path fill="#E52F2C" d="M55.5,10c0,0.1-0.2,0.2,0,0.1C55.5,10,55.7,10,55.5,10z"/>
		<polygon fill="#E52F2C" points="52.7,10.9 52.8,10.9 52.6,10.6 		"/>
		<path fill="#E52F2C" d="M51.4,13.2c0.2-0.1-0.1-0.2,0.1-0.3c0-0.1-0.2,0.1-0.2,0C51.3,13.1,51.2,13.1,51.4,13.2z"/>
		<path fill="#E52F2C" d="M51.3,12.9C51.3,12.9,51.3,12.9,51.3,12.9C51.3,12.9,51.3,12.9,51.3,12.9z"/>
		<polygon fill="#E52F2C" points="35.8,17.4 36,17.3 35.8,17.3 		"/>
		<path fill="#E52F2C" d="M35.9,17l0.2,0.1L35.9,17C35.9,16.9,35.9,17,35.9,17z"/>
		<path fill="#E52F2C" d="M45.8,20.9L45.8,20.9c-0.1-0.1-0.1,0-0.2,0L45.8,20.9z"/>
		<polygon fill="#E52F2C" points="43.8,22 43.8,22 43.7,21.9 		"/>
		<path fill="#E52F2C" d="M42.2,23c0.1,0,0.1-0.1,0.2-0.1C42.3,23,42.1,22.8,42.2,23z"/>
	</g>
	<g>
		<path fill="#E52F2C" d="M21.9,8.4c-0.1,0,0,0.1,0,0.1C22,8.5,21.9,8.4,21.9,8.4z"/>
		<polygon fill="#E52F2C" points="22.8,7.7 22.8,7.8 22.9,7.6 		"/>
		<path fill="#E52F2C" d="M23.7,7.4c-0.2-0.2-0.3,0.2-0.5,0.2l0,0l0,0.2C23.4,7.6,23.6,7.4,23.7,7.4z"/>
		<path fill="#E52F2C" d="M24.4,7.6c-0.1-0.1,0.1-0.1-0.1,0C24.3,7.6,24.3,7.6,24.4,7.6C24.3,7.6,24.4,7.6,24.4,7.6z"/>
		<path fill="#E52F2C" d="M24.3,7.6C24.2,7.7,24.4,7.7,24.3,7.6L24.3,7.6z"/>
		<path fill="#E52F2C" d="M24.7,7.4l-0.1,0.1c0,0,0.2,0,0.1,0C24.9,7.5,24.8,7.4,24.7,7.4z"/>
		<path fill="#E52F2C" d="M24.8,7.2L24.8,7.2C24.8,7.3,24.8,7.3,24.8,7.2z"/>
		<path fill="#E52F2C" d="M24.6,7.4l0.1-0.1C24.7,7.2,24.7,7.2,24.6,7.4C24.7,7.2,24.7,7.3,24.6,7.4z"/>
		<path fill="#E52F2C" d="M24.5,7.4c-0.1,0-0.2,0-0.1-0.1C24.2,7.4,24.3,7.5,24.5,7.4z"/>
		<path fill="#E52F2C" d="M23.7,7.1l-0.1,0l-0.1,0.1C23.6,7.2,23.7,7.2,23.7,7.1z"/>
		<path fill="#E52F2C" d="M25.6,7.2c0,0-0.1-0.1-0.1-0.1l-0.1,0.1C25.4,7.1,25.5,7.1,25.6,7.2z"/>
		<path fill="#E52F2C" d="M25.5,7l0.1-0.1C25.4,6.9,25.4,7,25.5,7z"/>
		<polygon fill="#E52F2C" points="24.7,7 24.6,7.2 24.8,7 		"/>
		<polygon fill="#E52F2C" points="26.1,7 26.1,7.1 26.2,6.9 		"/>
		<path fill="#E52F2C" d="M26.5,6.8c0,0.1,0.1,0.1,0.1,0.2c0.1-0.1,0.1-0.2,0.2-0.2C26.7,6.8,26.6,6.8,26.5,6.8z"/>
		<path fill="#E52F2C" d="M26.9,6.6c0,0-0.1,0.1-0.1,0.1C26.8,6.7,26.8,6.7,26.9,6.6z"/>
		<path fill="#E52F2C" d="M25.8,6.8c0,0,0.1,0.1,0.2,0.1L25.8,6.8L25.8,6.8z"/>
		<path fill="#E52F2C" d="M25.9,6.8L25.9,6.8c0.1,0,0.1,0,0.1,0C26,6.8,25.9,6.8,25.9,6.8z"/>
		<path fill="#E52F2C" d="M25.8,6.8L25.8,6.8C25.8,6.8,25.8,6.8,25.8,6.8z"/>
		<path fill="#E52F2C" d="M25.2,6.9c0.1-0.1,0.2-0.2,0-0.3C25.1,6.8,25.2,6.8,25.2,6.9z"/>
		<path fill="#E52F2C" d="M25.7,6.7l-0.2,0c0,0,0.1,0.1,0,0.1L25.7,6.7z"/>
		<polygon fill="#E52F2C" points="25.7,6.6 25.7,6.7 25.7,6.7 		"/>
		<path fill="#E52F2C" d="M26.6,6.6c0-0.1,0.1-0.1,0.2-0.2C26.6,6.4,26.6,6.5,26.6,6.6C26.5,6.5,26.5,6.6,26.6,6.6z"/>
		<path fill="#E52F2C" d="M26.2,6.7L26.2,6.7C26.2,6.7,26.2,6.7,26.2,6.7z"/>
		<polygon fill="#E52F2C" points="27.5,6.1 27.5,6.1 27.5,6.1 		"/>
		<path fill="#E52F2C" d="M26.4,6.5c-0.1,0-0.1,0-0.1,0.1C26.4,6.6,26.4,6.5,26.4,6.5C26.5,6.5,26.5,6.5,26.4,6.5z"/>
		<path fill="#E52F2C" d="M27.1,6.4c0,0-0.1,0-0.1,0C27,6.5,27.1,6.5,27.1,6.4z"/>
		<path fill="#E52F2C" d="M26.3,6.7L26.3,6.7C26.3,6.7,26.3,6.7,26.3,6.7z"/>
		<path fill="#E52F2C" d="M26.3,6.7c0,0,0-0.1,0.1-0.1C26.3,6.6,26.3,6.6,26.3,6.7C26.2,6.7,26.3,6.7,26.3,6.7z"/>
		<path fill="#E52F2C" d="M27.5,5.3c0,0.1-0.1,0.3-0.3,0.2c-0.1,0.1,0.1,0.5,0.3,0.6c0,0,0-0.1,0.1-0.2c-0.1,0-0.4,0-0.3-0.2
			c0.2-0.1,0.2,0,0.3,0c-0.1-0.1,0.1-0.3,0.1-0.5l-0.2,0.1C27.5,5.3,27.5,5.3,27.5,5.3z"/>
		<path fill="#E52F2C" d="M27.2,6.2L27.2,6.2c0,0,0.1,0.1,0.2,0.1c0.1-0.1,0.1-0.1,0.1-0.2L27.2,6.2L27.2,6.2z"/>
		<path fill="#E52F2C" d="M26.9,6.4c0-0.1,0.1-0.2,0-0.3c-0.2,0.1-0.1,0.2-0.2,0.2C27,6.1,26.7,6.4,26.9,6.4c-0.1,0-0.1,0.1-0.2,0.1
			C26.8,6.4,26.9,6.4,26.9,6.4L26.9,6.4L26.9,6.4L26.9,6.4C26.9,6.4,26.9,6.4,26.9,6.4L26.9,6.4C26.9,6.4,26.9,6.4,26.9,6.4
			C27,6.3,26.9,6.4,26.9,6.4L26.9,6.4L26.9,6.4l0.3-0.1C27.1,6.2,27,6.3,26.9,6.4z"/>
		<path fill="#E52F2C" d="M25.2,6.3C25.2,6.3,25.2,6.4,25.2,6.3C25.2,6.3,25.2,6.3,25.2,6.3z"/>
		<path fill="#E52F2C" d="M25.3,6.4C25.3,6.4,25.3,6.4,25.3,6.4c-0.2,0.1-0.1,0-0.1,0c0,0-0.1,0.1,0,0.1l0,0c0.1,0,0.3,0.1,0.3,0.1
			C25.5,6.5,25.5,6.4,25.3,6.4z"/>
		<path fill="#E52F2C" d="M26.1,6.3l0.2-0.2l-0.2-0.1l0,0.1C26.1,6.2,26.1,6.3,26.1,6.3z"/>
		<polygon fill="#E52F2C" points="27.6,6.2 27.6,6.3 27.7,6.1 		"/>
		<polygon fill="#E52F2C" points="27.8,6.1 27.9,6.2 27.9,6.1 		"/>
		<path fill="#E52F2C" d="M42.3,9.4L42.3,9.4C42.3,9.3,42.3,9.4,42.3,9.4z"/>
		<path fill="#E52F2C" d="M41.9,9.8L41.9,9.8C41.9,9.8,41.9,9.8,41.9,9.8z"/>
		<path fill="#E52F2C" d="M33.5,11.1c0.1,0.1,0.1,0.3,0.2,0.2l0-0.1C33.6,11.1,33.5,11.1,33.5,11.1z"/>
		<path fill="#E52F2C" d="M39.1,12.1L39.1,12.1c-0.1,0-0.1,0-0.1,0C39,12.2,39.1,12.1,39.1,12.1z"/>
		<path fill="#E52F2C" d="M39.4,11.6l0.1,0.1C39.5,11.7,39.4,11.7,39.4,11.6z"/>
		<path fill="#E52F2C" d="M44.1,7l0-0.2C44,6.9,44.1,6.9,44.1,7z"/>
		<path fill="#E52F2C" d="M29.7,7.6c0,0.1,0.1,0.2,0.1,0.2C29.8,7.7,29.8,7.5,29.7,7.6z"/>
		<path fill="#E52F2C" d="M43.2,10.4c0-0.1,0-0.1,0-0.1C43.2,10.4,43.2,10.4,43.2,10.4z"/>
		<path fill="#E52F2C" d="M30,8C30,8,30,8,30,8c-0.1-0.1-0.1-0.1-0.2-0.2C29.8,7.9,29.9,8,30,8z"/>
		<path fill="#E52F2C" d="M55.3,5.3C55.3,5.3,55.3,5.3,55.3,5.3C55.3,5.3,55.3,5.3,55.3,5.3z"/>
		<path fill="#E52F2C" d="M58.4,6.7c0,0-0.1,0-0.1,0C58.3,6.7,58.4,6.7,58.4,6.7z"/>
		<path fill="#E52F2C" d="M28.2,6.2C28.1,6.2,28.2,6.2,28.2,6.2L28.2,6.2z"/>
		<path fill="#E52F2C" d="M28.3,5.6C28.3,5.6,28.4,5.6,28.3,5.6C28.4,5.6,28.3,5.6,28.3,5.6z"/>
		<path fill="#E52F2C" d="M31.1,7.9L31.1,7.9C31.1,7.9,31.1,7.9,31.1,7.9z"/>
		<path fill="#E52F2C" d="M28.2,6.1C28.2,6.1,28.2,6.1,28.2,6.1C28.2,6.2,28.2,6.1,28.2,6.1z"/>
		<path fill="#E52F2C" d="M28.1,6.2C28.1,6.2,28.1,6.1,28.1,6.2C28.1,6.2,28.1,6.2,28.1,6.2z"/>
		<path fill="#E52F2C" d="M28.2,6.2C28.2,6.2,28.2,6.2,28.2,6.2C28.2,6.2,28.2,6.2,28.2,6.2C28.2,6.2,28.2,6.2,28.2,6.2z"/>
		<path fill="#E52F2C" d="M49.4,5.9C49.4,5.9,49.4,5.9,49.4,5.9C49.4,5.8,49.4,5.8,49.4,5.9z"/>
		<polygon fill="#E52F2C" points="35.7,10.4 35.7,10.4 35.7,10.4 		"/>
		<path fill="#E52F2C" d="M35.9,10.4c-0.2,0.1-0.2,0.1-0.3,0l0,0.4L35.9,10.4z"/>
		<path fill="#E52F2C" d="M43.1,8.3l-0.2,0.1c0-0.3,0.1-0.4-0.1-0.3c0.3,0.3-0.4,0.6-0.1,0.8l-0.1,0c0,0,0,0,0-0.1
			c-0.3,0.1,0.1,0.3-0.1,0.5c-0.1,0.1-0.2,0.1-0.2,0l-0.1,0.2c0,0-0.1,0,0-0.1L42,9.8l0,0c0,0.1,0,0.2,0,0.3c-0.1,0,0-0.1-0.1-0.1
			l-0.1,0.2c-0.1,0-0.1-0.2,0-0.3c-0.4-0.1,0,0.2-0.5,0.3l0.1-0.2c-0.3-0.1-0.3,0.1-0.5,0.2c0.1,0,0.5-0.1,0.5,0.1
			c-0.1,0-0.1,0.1-0.1,0.2c-0.1-0.1-0.2,0-0.2,0.1l-0.1-0.1c-0.1,0.2,0,0.2,0,0.3c-0.1,0.1-0.3,0.1-0.4,0c-0.2,0.2,0.3,0,0.1,0.3
			c-0.1,0.1-0.2,0.1-0.2,0.2c0,0.1,0,0.1,0,0.2c-0.1,0-0.1-0.1-0.1-0.1c0,0,0,0.2,0,0.2c0,0,0,0,0-0.1c0,0.1,0.1,0.2,0,0.3
			c0,0.1,0,0.1,0,0.1c-0.1-0.1-0.2-0.4-0.3-0.2c0-0.1,0-0.1,0-0.2c-0.1,0.1-0.1,0.1-0.4,0.2l-0.2-0.2c0.1,0.2-0.1,0.3-0.4,0.4
			c0,0.1,0.1,0.2,0.1,0.2l-0.3,0c0,0,0-0.1,0.1-0.2l-0.1,0c-0.1-0.1,0-0.2,0.1-0.3c0,0,0,0.1,0.1,0.1c0.1-0.1,0.2-0.2,0.2-0.3
			c0,0-0.1,0-0.1,0c0,0,0,0,0-0.1c0,0,0,0-0.1,0l0-0.2l0,0.1l-0.3-0.2c-0.3,0.1-0.6,0.3-1.1,0.3c0.2-0.1,0.1-0.2,0.2-0.4
			c0,0.2,0.3,0,0.5,0.1c-0.1-0.1-0.1-0.1,0-0.2l-0.4,0c0.1-0.1,0-0.1-0.1-0.2c0,0.3-0.3,0.1-0.5,0.1c0-0.1,0.1-0.2,0.3-0.1
			c-0.1-0.3-0.4,0.2-0.5,0c0,0,0.1,0,0.1,0c-0.1,0-0.4-0.1-0.3-0.2l0,0c-0.3-0.1-0.9-0.3-1-0.1c0,0,0.1-0.3,0.2-0.3l-0.8,0.6
			c0.1-0.2,0.1-0.7,0.4-0.8c-0.1-0.1-0.1-0.1-0.3-0.1c0,0,0,0.3-0.1,0.3c-0.1-0.3-0.1-0.2-0.2-0.4c0.1,0.1-0.1,0.4-0.2,0.3
			c0,0,0.1-0.3,0.2-0.3l-0.4,0.2c0.1,0,0.1-0.3,0.1-0.4c0,0.1-0.2-0.1-0.3-0.1l0.1,0.1c-0.3-0.2-0.5,0.3-0.8,0.2
			c0.1,0,0.2-0.4,0.1-0.5c0,0.1-0.1,0.2-0.3,0.3c-0.2,0.1-0.6,0.2-0.7,0.1l0-0.1L32.5,10c0.3-0.1,1-0.1,1.2-0.3c0-0.1,0.1-0.1,0-0.2
			c0-0.1,0.1-0.1,0.1-0.1c0,0,0,0,0-0.1c-0.1-0.1-0.1-0.2-0.1-0.2c-0.1,0.2-0.4-0.1-0.5,0l0.5,0.2c-0.1,0.2-0.6,0.2-0.8,0
			c0-0.1,0.3-0.2,0.3-0.3c-0.1,0-0.3-0.1-0.3-0.2L33,9c-0.1-0.2-0.4,0-0.4-0.3c0-0.1,0-0.3-0.1-0.3c-0.1,0.2-0.6,0.8-0.7,0.8
			c0,0-0.1-0.4-0.1-0.6c0-0.2,0.4-0.2,0.5-0.4c0,0-0.1,0-0.2,0c0-0.1,0.1-0.1,0-0.2c-0.2,0.1-0.2-0.3-0.2,0.1
			c-0.2-0.1-0.1-0.2-0.2-0.3c0,0.1-0.4,0.2-0.6,0.1c0,0,0.1-0.1,0.1-0.1c-0.2-0.3-0.3-0.4-0.5-0.7c0-0.1-0.1-0.2,0.1-0.2
			c-0.1,0-0.1,0-0.2-0.1c0-0.3,0.2,0.1,0.2-0.1c-0.1,0.1-0.3-0.1-0.4-0.1c-0.1,0.2,0.2,0.3,0.3,0.3c-0.2,0.2-0.5,0.2-0.8,0
			c-0.2-0.1,0-0.2,0-0.2c-0.3-0.4-0.6,0-0.8-0.4c0-0.2,0.2-0.2,0.3-0.3c0.2,0.1,0.2,0.3,0.3,0.4l-0.1-0.2c0.1,0,0.2,0.1,0.2,0.2
			c0-0.2-0.6-0.6-0.7-1c-0.1,0-0.2-0.1-0.2,0l0.1,0.1c0,0.2-0.3,0-0.2,0.1c-0.2,0-0.3,0-0.4-0.1l0-0.2c0,0.1,0,0.2,0.1,0.2
			c-0.1,0-0.1-0.3-0.2-0.3c0,0-0.1,0.1-0.1,0.1l0,0.1l0,0.1c0,0,0,0,0,0c-0.1,0.2-0.2,0.3-0.2,0.3c0.1,0.2,0,0,0.1,0.2
			C27.9,5.9,28,6,28,5.9c0,0,0,0,0-0.2c0,0.3,0.1,0.2,0,0.4c0-0.1,0-0.1,0.1-0.1c0,0,0,0,0,0l0,0l0,0c0,0,0,0,0,0c0,0,0-0.1,0-0.1
			c0.1,0,0.1,0,0.2,0c0.1,0,0.1,0.1,0.2,0.1c0.1,0.1-0.1,0-0.1,0.1l0.2,0c-0.1,0.1,0,0.3-0.2,0.2l0.1,0.2c0,0.1,0.1,0.3,0.2,0.3
			C28.9,7,29.1,7,29,7l0.3,0.2l0,0c0.2,0.2,0.6,0.3,0.7,0.8C30.1,8,30.2,8,30.3,8.2l-0.1,0.1c0.1,0.1,0.2,0.4,0.3,0.3
			C30.5,9,31,9.2,31.2,9.4l0.1-0.1c0.1,0.1,0.3,0.2,0.5,0.3l0.1-0.1c0.2,0.1,0.3,0.4,0.5,0.6c-0.1,0-0.1,0-0.1-0.1
			c0,0.2,0.2,0.3,0.3,0.4c0.1,0.1,0.4,0.2,0.5,0.4c0,0,0.1,0,0.1,0.1c0.1,0,0.2,0,0.3,0.1c0,0,0,0,0,0c0,0,0,0,0,0
			c0,0,0.1,0.1,0.1,0.1c0,0,0-0.1-0.1-0.1c0.1,0,0.2,0,0.2,0l0,0.1c0,0,0,0,0,0c0.1,0.1,0.1,0,0.1-0.2c0.1,0,0.1,0,0.1,0
			c0,0.2,0.2,0,0.3,0.3c0.1-0.1,0.5,0.1,0.6-0.2c0,0,0,0.1,0,0c0.1,0.1,0.2,0.1,0.3,0.1l0,0.2l0.3-0.2c0.1,0.1,0.1,0.2,0,0.3
			c0.4-0.1,0.3,0,0.6-0.1l0,0.1c0.1,0,0.3-0.1,0.3,0c0.1,0.3,1,0.4,1.5,0.7c0-0.4,0.2,0.2,0.3,0c0,0.1,0.1,0.2,0,0.2
			c0.3,0,0.4,0.3,0.6,0.1c0,0.1-0.1,0.1-0.1,0.2c0,0,0.1,0,0.1,0c0,0.1-0.1,0.1-0.1,0.1c0.3,0.1,0.4-0.2,0.5-0.4
			c0.1,0.2,0.2,0.2,0.3,0c0,0.1,0.1,0.2-0.1,0.2c0.1,0,0.5,0.3,0.6,0.1c0,0.1,0.2,0.1,0.2,0.1c0.3,0.1,0.3,0.1,0.6,0.2L40.4,13
			c0-0.1,0.1-0.1,0.2,0c0,0,0.1-0.1,0.2-0.1l0,0c0.4-0.3,0.1-0.2,0.6-0.5l-0.1-0.1c-0.2-0.2,0.4-0.2,0.4-0.4l-0.1,0
			c0-0.2,0.6,0,0.7-0.1c0,0,0,0.1,0,0.1c0.4-0.1-0.1-0.2,0-0.4c0.1,0,0.2,0.2,0.3,0.1c0.1,0,0.1-0.6,0.4-0.6c-0.1,0-0.2,0-0.2-0.1
			c0.1-0.2,0.5-0.2,0.5-0.5c0,0,0.1,0,0.1,0c0-0.1,0.2-0.4,0.2-0.6c0.5,0.2,0.4-0.8,0.7-0.5l0.3-0.3l0,0c0.2-0.2,0.2-0.3,0.2-0.5
			c0.1,0,0.1,0,0.1,0.1c0.3-0.2,0.3-0.3,0.4-0.7l0.1,0.1c0-0.1,0.6-0.3,0.7-0.7c0,0,0,0,0,0.1c0-0.1,0.1-0.2,0.2-0.2
			c0.1,0,0.2,0.1,0.2,0.1c0,0,0.2-0.1,0.2-0.2l0.3-0.2c-0.4,0,0-0.2-0.1-0.3c0.1,0,0.4,0.1,0.2,0.2l0,0c0,0.3,0.5,0.1,0.5,0.3
			c0.7-0.1,1.5,0.1,2.1,0l-0.1-0.2l0.2,0c0.1,0,0.1,0.2-0.1,0.2c0.1,0.1,0.3-0.1,0.3-0.2c0.3,0.1-0.1,0.3,0,0.3l0.1,0l0,0
			c0.1-0.1,0.1-0.2,0.3-0.2c0.1,0,0.1,0.1,0.1,0.1c0,0,0,0,0.1,0l0.3,0l-0.1-0.2c0.1-0.1,0.3,0,0.1-0.2c0.2,0.3,1.1,0,1.3,0.1
			c0.2-0.1,0.4-0.1,0.6-0.1c-0.1,0-0.1-0.2,0.1-0.2c0,0.3,0.3,0.2,0.4,0.3c0,0,0.1,0.1,0.1,0.1c-0.1-0.2,0.6,0,0.3-0.3
			c0.2,0,0,0.1,0.1,0.2c0.4-0.2,0.9,0.1,1.3,0.1c0-0.1-0.1-0.1,0-0.2l0.3,0.3c0.1,0,0.1-0.3,0.3-0.1c0,0-0.1-0.1,0-0.1
			c0.9,0.3,1.9-0.2,2.9,0.3c-0.1-0.1,0-0.1,0.1-0.1c-0.1,0,0-0.1,0-0.2l0.4,0.2c0.1-0.2,0.4,0,0.5-0.2l-0.1,0
			c0.2-0.2-0.2-0.5-0.2-0.8c-0.2,0.3-0.5-0.4-0.8,0c-0.1-0.1,0.1-0.1,0-0.2c-0.1,0.1-0.2,0.1-0.4,0.1l0,0c-0.5,0-0.7-0.1-1.3-0.2
			l0,0.1c-0.1,0-0.1-0.1-0.2-0.1c-0.1,0.2,0.3,0,0.2,0.2c-0.2-0.3-0.8,0-1-0.3c-0.2,0,0.1,0.2-0.1,0.2l0-0.1l0,0.1
			c-0.1,0-0.2-0.1-0.2-0.2c0,0,0.1,0,0.1,0c-0.2-0.1-0.4,0-0.5,0l0.2,0.1c-0.5,0.1-1.1,0-1.6,0.1l0,0.1c-0.3,0.1-0.3,0-0.5,0
			c-0.1,0-0.1,0-0.3,0l0,0c-0.1,0.1-0.2,0.1-0.3,0.1c0.1-0.1-0.2-0.1-0.1-0.2c-0.4,0.2-0.2,0.1-0.4,0.4l-0.1-0.1
			c-0.1,0.1-0.1,0.2-0.3,0.2c0.2-0.1-0.1-0.2,0-0.3c-0.4-0.2-0.6,0.3-0.8-0.1c-0.2,0.3,0.4,0.1,0.3,0.2C51,5.9,50.8,6,50.7,6
			c-0.1,0-0.3-0.4-0.6-0.3c0,0,0,0,0.1,0c-0.1-0.1-0.2,0.1-0.4,0c-0.1,0.2-0.2,0-0.2,0.2l0.3-0.1c-0.2,0.1-0.3,0.4-0.6,0.2
			c0,0,0.1-0.1,0.2-0.2c-0.1-0.1-0.2,0.1-0.3,0c0-0.2,0.4-0.1,0.6-0.3c-0.1-0.1-0.4,0.2-0.3-0.1c-0.1,0.3-0.3,0-0.6,0.2l0-0.1
			c0,0-0.1,0.1-0.2,0.1l0.1-0.2c-0.2,0.2-0.4-0.1-0.5,0c0.4,0,0.1,0.2,0.3,0.3C48,6,48.2,5.4,47.7,5.5c0.1,0,0.3,0.1,0.2,0.1
			c-0.1,0-0.2-0.1-0.3-0.1c-0.3,0.1,0.1,0.1-0.1,0.2c-0.1-0.2-0.2,0.1-0.3,0.1l0-0.1c-0.4-0.1-0.1,0.3-0.4,0.2l0.1-0.2l-0.2,0.1
			l0-0.2c-0.2,0.1-0.3,0.1-0.5,0.1c0,0.1,0,0.3-0.2,0.3c-0.2-0.1,0.1-0.1-0.3-0.1c0.1-0.1,0.2-0.2,0.3-0.1c0,0,0-0.1,0.1-0.1
			c0,0-0.2,0-0.3,0c-0.1,0-0.3,0-0.3,0c0.1,0,0.1,0,0.2,0l-0.4,0.2l-0.1,0.2c-0.1,0-0.1-0.1,0-0.2C45.1,6,45.1,6.1,45,6.3
			c0-0.1-0.1-0.2,0-0.5l-0.3,0.6c-0.1,0-0.2,0.1-0.2,0c-0.2,0.1-0.1,0.5-0.4,0.6c0,0,0,0.1,0,0.1c-0.2,0.2-0.4,0.2-0.5,0.6l-0.3,0
			c-0.1,0.2,0.3,0,0.2,0.3c-0.1,0.2-0.2,0-0.3,0c0,0.2,0,0.5-0.3,0.5C43,8.4,43.1,8.4,43.1,8.3z M41.4,10.5c0-0.1,0-0.2,0.1-0.2
			C41.6,10.4,41.5,10.4,41.4,10.5z M38.8,11.7c0.1,0,0.1,0,0.1,0.1C38.9,11.8,38.9,11.8,38.8,11.7z M28.8,6.6L28.8,6.6
			C28.8,6.8,28.8,6.7,28.8,6.6z M28.7,6.4C28.6,6.4,28.6,6.4,28.7,6.4c0,0,0,0.1,0.1,0.1C28.7,6.5,28.7,6.4,28.7,6.4z M50.2,6.8
			L50.2,6.8C50.2,6.7,50.2,6.7,50.2,6.8z"/>
		<path fill="#E52F2C" d="M39.3,11.7C39.3,11.7,39.3,11.8,39.3,11.7C39.4,11.8,39.4,11.7,39.3,11.7z"/>
		<polygon fill="#E52F2C" points="44.1,7 44.1,7 44.1,7 		"/>
		<path fill="#E52F2C" d="M32.2,8.2c0,0,0,0.1,0,0.1C32.2,8.3,32.2,8.3,32.2,8.2z"/>
		<path fill="#E52F2C" d="M28,6.1L28,6.1L28,6.1C28,6.1,28,6.1,28,6.1L28,6C28,6.1,28,6.1,28,6.1z"/>
		<path fill="#E52F2C" d="M26.9,5.6C26.9,5.6,26.9,5.6,26.9,5.6l0,0.1C27,5.6,27,5.6,26.9,5.6z"/>
		<path fill="#E52F2C" d="M28,5.6c0-0.1-0.1-0.1-0.1,0l0,0C27.9,5.8,27.9,5.7,28,5.6z"/>
		<path fill="#E52F2C" d="M27.9,5.6C27.8,5.6,27.8,5.6,27.9,5.6C27.8,5.7,27.8,5.6,27.9,5.6z"/>
		<path fill="#E52F2C" d="M28.4,6.3c0-0.1-0.1,0.1-0.1,0C28.1,6.4,28.6,6.4,28.4,6.3z"/>
		<polygon fill="#E52F2C" points="28,5.2 28,5.3 28.1,5.2 		"/>
		<path fill="#E52F2C" d="M28.6,5.6l-0.1-0.1c0,0,0,0-0.1,0C28.5,5.5,28.5,5.6,28.6,5.6z"/>
		<path fill="#E52F2C" d="M28.4,5.5C28.4,5.4,28.4,5.4,28.4,5.5C28.3,5.4,28.4,5.4,28.4,5.5z"/>
		<polygon fill="#E52F2C" points="28.2,5 28.2,5 28.2,5.1 28.3,5.2 28.2,5 		"/>
		<path fill="#E52F2C" d="M29.9,6.9L30,7c0,0,0-0.1,0-0.1C29.9,6.9,29.9,6.9,29.9,6.9z"/>
		<path fill="#E52F2C" d="M29.7,6.2c0,0.1,0,0.1,0,0.1l0.1-0.1L29.7,6.2z"/>
		<path fill="#E52F2C" d="M30.2,6.6c0,0,0.3,0.1,0.1-0.1C30.2,6.5,30.1,6.4,30.2,6.6z"/>
		<polygon fill="#E52F2C" points="32,8.8 32,8.8 31.8,9 		"/>
		<path fill="#E52F2C" d="M34.1,9.6c-0.2-0.1-0.1,0.2-0.3,0c-0.1,0.1,0.1,0.1,0.1,0.2C34.1,9.8,34.1,9.9,34.1,9.6z"/>
		<path fill="#E52F2C" d="M33.9,9.8C33.9,9.8,33.9,9.8,33.9,9.8C33.9,9.8,33.9,9.8,33.9,9.8z"/>
		<polygon fill="#E52F2C" points="59,6.8 59.1,6.9 59,6.8 		"/>
		<path fill="#E52F2C" d="M59.3,6.6l0,0.2l0.1-0.2C59.3,6.6,59.3,6.6,59.3,6.6z"/>
		<path fill="#E52F2C" d="M40.9,10.5L40.9,10.5c0.1,0.1,0.1,0,0.2,0L40.9,10.5z"/>
		<polygon fill="#E52F2C" points="42.3,9.1 42.2,9.1 42.4,9.2 		"/>
		<path fill="#E52F2C" d="M43.1,7.7c0,0-0.1,0.1-0.1,0.2C43.1,7.7,43.3,7.8,43.1,7.7z"/>
	</g>
	<g>
		<path fill="#201600" d="M22.4,15.4c1.5,0,2.3,0.5,2.3,1.6c1.8,1.6,3.1,3.4,4.1,5.6l-0.2,1.3v0.5l0.7,2.7c-0.3,0-0.5,0.2-0.5,0.7
			c0,3.9,0.2,7.3,0.5,10.2L29,39.4v3.4l-0.2,5L29,49c-1.9,5.4-3.4,8-4.5,8c-1.6,1.5-4,2.7-7.2,3.8c-2.6-0.3-4.9-0.8-7-1.6
			c-4.4-2.6-7.4-5.6-9-9L0,43.1v-0.4l0.4-0.4l1.1,0.2l2.5-0.9l0.2,0.2l0.5-0.2l1.6,0.2l1.6-0.2l0.2,0.2v0.5l-0.5,0.5
			c0.5,2.5,1.6,3.8,3.2,3.8c1.1,0,2.3-0.8,3.6-2.3c0.8-2.2,1.3-6.3,1.3-12.2L15.4,31l0.2-5.9v-0.7c-0.4,0-0.7-1.5-0.9-4.6
			c0.3-2.2,0.6-3.5,0.9-3.9l0.9,0.2L22.4,15.4z M16.8,17.7v0.5l0.2,1.6L16.8,20l0.2,1.8v3.4L16.6,26l0.2,5l-0.4,5.4V39
			c-0.3,3.6-0.8,5.6-1.4,5.9c0,0.6-1,1.5-3,2.7l-1.1,0.2h-0.5c-1.7,0-2.9-1.1-3.8-3.4l-0.2-0.9H5.4l-2.9-0.2C2,43.5,1.7,43.8,1.6,44
			c0,3,0.8,5.9,2.5,8.6L5,52.4l1.3,0.4l0.2-0.2h0.2l0.9,0.5h0.2l-0.4-1.4h0.4c1.2,1.8,2.4,2.7,3.6,2.7c0.9-0.1,1.5-0.3,1.8-0.5h0.2
			l0.5,0.4c1.5,0,2.8-0.6,3.7-1.8l0.9,0.2c2.9-2,4.3-3.8,4.3-5.6c0.2,0,0.4-1.3,0.7-3.9c-0.4,0-0.6-3.7-0.7-11.1l-0.2-0.2v-0.2
			l0.2-0.2l-0.2-0.9v-2.1c0.4-0.5,0.5-1,0.5-1.6v-1.1l0.5-7.5l-0.7-1.4C18.8,17,16.8,17.3,16.8,17.7z M5.4,53.1l0.4,0.4h0.2v-0.4
			H5.4z M13.2,56.4v0.2l0.2,0.5h0.2v-0.2l-0.2-0.5H13.2z M13.8,56.2v0.2c0.3,1.3,0.6,2,0.9,2h0.2C14.8,57.6,14.5,56.9,13.8,56.2z
			 M14.5,55.8v0.4l0.4,0.4H15l-0.2-1.1L14.5,55.8z M15.6,55.1l1.1,2.9l0.5-0.5l-0.7-2.5L15.6,55.1z M15.8,57.1v0.5
			c0.1,1,0.4,1.4,0.7,1.4h0.2v-0.2l-0.7-1.8H15.8z M20.4,53l0.2,0.2v0.2l-0.4,0.4l-0.4-0.4h-0.2l-0.2,1.2h-0.4L19,53.7h-0.2
			l-1.4,0.7v0.2l0.4,1.8l-0.2-0.2h-0.2v0.4h0.2l0.2-0.2h0.2v0.4h0.4v-0.4l-0.2-0.9h0.5l0.2,1.1l0.5-0.2l-0.2-0.9l0.4-0.4l0.4,1.8H20
			l0.4-0.7L20,55.7l0.2-0.2h0.2l-0.2-0.9v-0.3l0.4-0.4l0.4,0.4c-0.2,0-0.4,0.2-0.4,0.5l0.4,1.4l0.2-0.2h0.2c0.1,0.7,0.3,1.1,0.5,1.1
			l0.2-0.2c-0.2-3.1-0.4-4.7-0.7-4.7L20.4,53z M17.4,56.7c0.2,1.2,0.5,1.8,0.7,1.8h0.2v-0.2c-0.4-0.5-0.5-1-0.5-1.6H17.4z
			 M18.8,56.9l0.2,0.2v0.2l-0.3,1.1h0.2l0.5-0.2l-0.2-0.9l0.2-0.2v-0.2H18.8z M22.9,50.1c0,0.3-0.4,0.9-1.1,1.6l0.4,1.6H22l0.4,2
			h0.2v-0.7l-0.2-0.2l0.2-0.9v-0.4l-0.2-0.7l0.2-0.7c0.4,0,0.6,0.7,0.7,2h-0.2l0.4,1.2l0.4-0.4l-0.4-3.4l0.2,0.2h0.2v-1.1h-0.2
			l-0.2,0.2h-0.2L22.9,50.1z M23.5,55.5c0,0.4-0.2,0.5-0.7,0.5l-0.2,0.2v0.2h0.7c0-0.2,0.2-0.4,0.5-0.4v-0.2L23.5,55.5z M25.1,32.2
			v2.1l0.2,1.6l-0.2,0.2v0.2l0.2,0.7l-0.4,0.5v2l-0.2,0.7l0.4,2.7l-0.4,1.8l0.2,0.2l-0.4,0.4v0.4h0.4v0.2c-0.4,0-0.5,0.1-0.5,0.4V48
			l-0.2-0.2H24L23.8,48v0.9l0.2,0.9l-0.2,0.2l0.3,0.4L24,50.5v0.2c0.2,0,0.4,0.3,0.5,0.9l-0.4,0.4v0.5c0.3,0,0.6-0.4,0.7-1.1
			L24.3,48l1.3,2.3h0.2v-0.4l-0.7-3.4h0.4l0.2,0.7h0.2v-0.3l-0.5-3c0.5,0,0.9,1.2,1.3,3.7l-0.2,2.1h0.2l1.1,0.4v-0.4l-0.2-0.2v-0.2
			l0.4-1.1L27.4,48l0.4-0.5l-1.4-5.7l0.5-0.9c-0.2,0-0.5-1.3-1.1-3.8l-0.4-0.3v-0.5h0.4c0.6,0.5,1.1,2.1,1.6,4.8l-0.5,1.6l1.1,2.9
			h0.2v-0.5l-0.4-1.2l0.4-0.9l-0.4-2.3l0.2-0.2v-0.2l-0.4-0.9l0.2-0.2v-0.2l-0.4-1.1l0.2-0.5h-0.2c-0.4,0-1.1-1.7-2.1-5H25.1z
			 M25.4,51c0,1.8-0.4,2.8-1.1,3v1.2c0.4-0.1,0.6-0.3,0.7-0.7h0.4l-0.2-0.2v-0.2c0.7-0.9,1.1-1.6,1.1-2.2c-0.2,0-0.5-0.4-0.7-1.1
			H25.4z M25.2,19.9v0.5l0.4,0.5c-0.4,0-0.5,0.1-0.5,0.4c0,0.6,0.6,2.5,1.8,5.7c0,0.5,0.1,0.7,0.4,0.7v-0.2L27,26.8l0.2-0.2v-0.2
			L25.8,22v-0.3H26c0.3,0,0.6,0.5,0.9,1.6l0.2,0.2h0.2l0.2-0.5l-0.2-0.2v-0.2l0.2-0.5C26.2,20.6,25.5,19.9,25.2,19.9z M25.2,25v0.2
			c0,0.7,0.5,2.5,1.6,5.4h0.4C26.2,26.9,25.6,25,25.2,25z M25.2,29v0.5l0.2,1.1l-0.2,0.2V31c0.8,1.5,1.5,3.4,2,5.7l0.2,0.2h0.2
			l0.2-0.2v-0.2L27,34.2V34l0.2-0.9c-0.6-0.7-1.1-2.1-1.6-4.1H25.2z M26.7,50.3v1.3h0.2l0.2-0.9L26.7,50.3z M27,31.3v0.4
			c0.2,0.7,0.5,1.1,0.7,1.1v-0.2c-0.4-0.4-0.5-0.8-0.5-1.2H27z M27.2,27.9v0.5l0.2,0.5l0.2-0.2h0.2l-0.4-0.9H27.2z"/>
		<path fill="#201600" d="M44.4,26.5h1c1.2,0,3.6,0.7,7.1,2.1c1.1,0,3.8,2.1,8.1,6.3c0.7,1.4,1.1,2.1,1.4,2.1l0.6-0.2l0.2,0.5
			l0.6,5.6l-0.6,0.4l-1.5-0.7C60.4,42.7,60,42.9,60,43c0.6,0,1,0.1,1,0.4v0.2c0,0.5-2,0.9-6,1.2c0,0.2-1.1,0.3-3.3,0.5v0.2
			c1.8,1.2,2.9,1.8,3.3,1.8c0-0.2,0.2-0.4,0.6-0.4c0.3,0,0.8,0.5,1.5,1.4c0.5,0,2,1.3,4.4,4v0.2L61.1,53v0.2c0.6,0.1,1,0.3,1,0.5
			L60,55.6c-2.5,2.8-4.5,4.2-6.2,4.2c0,0.2-0.7,0.4-2.1,0.5l0.2,0.2v0.4c-3.5,0-8.9-2.2-16-6.6c-2.3-2.4-3.7-5.1-4.2-7.8l-0.8-5.1
			V41h0.4v-0.9l-0.4-0.5c0-2.7,1.4-5.6,4.2-8.7C37.1,28.9,40.2,27.5,44.4,26.5z M32.4,36.2l0.2,0.2v0.2l-0.8,3.1l0.2,0.5l-0.2,1.4
			c1.1,5.8,1.9,8.7,2.5,8.7c0,1.1,3.2,2.9,9.6,5.3l1,0.2h1.9c4.7-1,7.1-2.2,7.1-3.5c0.5,0,1.2-0.8,2.1-2.4l-0.2-0.2
			c0-0.2-0.9-0.9-2.7-1.9l-0.8-0.3h-0.4c-0.8,1.9-1.8,3-2.9,3.3c-0.7,0.1-1.3,0.3-1.8,0.7h-1.1c-4.5-2.2-6.7-3.8-6.7-5.1
			c-0.3-0.3-0.5-0.9-0.6-1.8v-0.9c0-0.9,0.6-1.6,1.7-2.3l0.6,0.2c0-0.3,1.8-0.7,5.4-1.2c3.1-1.2,6.4-1.8,9.8-1.8v-0.2l-0.2-0.7
			l1-0.2c0-2-1.1-4.3-3.3-6.8l-4.6-2.6l-3.7-0.9L45,27.5l-0.6-0.2c-3.9,1.2-6.5,2.4-7.7,3.3c-0.8,0.7-2.2,2.5-4.2,5.4V36.2z
			 M44.4,32.1c2.4,0.6,3.9,1.1,4.4,1.6l0.2-0.2h0.4c0.8,0.1,1.1,0.3,1.1,0.5v0.3h-0.4l0.6,1.4v0.5l-0.4,0.3h-1.5l-1,0.2v-0.2
			L43,37.8h-0.2l-0.2-0.2L40.7,38c-0.6,0-1.2-0.5-1.7-1.6C40.2,33.5,42,32.1,44.4,32.1z M41.5,36.1v0.2l1.9-0.9V35
			C42.4,35,41.8,35.4,41.5,36.1z M41.7,42.9l0.4,0.4h0.2l-0.4-0.4H41.7z M42.3,43.4v0.2c0,0.3,0.3,0.5,1,0.5L43,45l0.6,0.3v-0.7h0.2
			l0.2,0.2h0.2v-0.2l-1-0.7C43.2,43.6,42.9,43.4,42.3,43.4z M42.8,42l0.6,0.5h0.2v-0.2L43.2,42H42.8z M43.4,46.4l-0.2,0.2v0.5h0.2
			v-0.5h0.4v0.5l-0.2,0.2v0.2l0.8,0.5c0-0.3,0.2-0.5,0.6-0.5v-0.4c0-0.3-0.5-0.6-1.5-0.9V46.4z M44.2,48.3v0.2l0.6,0.7H45V49
			L44.2,48.3z M44.6,35.9v0.5c0.8-0.3,1.1-0.5,1.1-0.7v-0.2L44.6,35.9z M44.6,45v0.2L45,46l0.4-0.4L44.6,45z M45.2,43.6v0.3h1v-0.3
			H45.2z M45.9,47.6c0.3,1.4,0.8,2.1,1.4,2.1c2.6-0.8,3.9-1.8,3.9-3c-0.4-0.1-0.6-0.5-0.6-1.1c-2.9,0.3-4.4,0.8-4.4,1.6v0.4H45.9z
			 M46.5,44.6V45l0.6-0.2v-0.2H46.5z M48,56.8l0.2,0.2v0.2L48,57.3h-0.2l-1.3-0.5V57c0,0.4,0.9,0.7,2.7,0.9l1-0.2l-1-1.2h-0.8
			L48,56.8z M47.1,43.9v0.4h1v-0.2L47.1,43.9z M57.3,39.9l-0.2,0.5l-0.2-0.2h-2.7c-0.3,0-0.4,0.2-0.4,0.5l-2.5-0.2
			c0,0.2,0.3,0.4,0.8,0.4v0.3h-0.2l-0.2-0.2l-0.2,0.2h-0.6L50.3,41l-0.6,0.2V41c-0.9,0.2-1.4,0.3-1.4,0.5c0.4,0,0.6,0.1,0.6,0.4
			c-0.4,0-0.6,0.1-0.6,0.3l6.9,1.2h0.2v-0.2c-2-0.4-3.2-0.8-3.7-1.2v-0.2h0.4l2.1,0.5l0.2-0.2h0.2c1.5,0.6,2.4,1.1,2.7,1.6
			c1.5-0.2,2.3-0.4,2.3-0.7l-3.5-1L54,41.6l0.2-0.2v-0.2L58,42l0.2-0.2h0.9l0.2,0.2h0.2v-0.4c0-0.2-0.2-0.4-0.6-0.4l-0.2-0.2V41
			l0.2-0.5c-0.3,0-0.4-0.2-0.4-0.5H57.3z M48.4,59.5l0.2,0.5h0.2l1-0.3l-0.4-0.4L48.4,59.5z M49.2,43.2c0,0.3-0.2,0.5-0.6,0.5v0.2
			l1.7,0.4h0.4v-0.2c-0.9,0-1.4-0.3-1.4-0.9H49.2z M49.4,41.5l1.8,0.2l-0.2,0.2V42l-0.6-0.2L49.8,42l-0.2-0.2L49.4,42l-0.2-0.2v-0.2
			L49.4,41.5z M57.1,50.6c0,0.6-0.9,1.7-2.7,3.3c0,0.3-0.3,0.5-0.8,0.5v0.5l-0.2-0.2h-0.2l-0.8,0.9l-0.8-0.2c-0.3,0-0.6,0.3-0.8,0.9
			l-1-0.2h-0.2v0.5l1.7,0.7c0-0.3,0.3-0.5,0.8-0.5l0.6,0.4l0.8-0.5v-0.2c-0.4,0-0.6-0.1-0.6-0.3v-0.4l1,0.5h0.2v-0.2l-0.6-1.2h0.2
			l1.1,0.9v-0.2l-0.6-1.1v-0.2h0.4c0,0.3,0.3,0.6,1,0.9h0.2v-0.5l-0.2-0.2v-0.2l0.2-0.2h0.4l0.2,0.2h0.2v-0.2l-0.4-1l1.5,1H58
			L57.5,53c0.1-0.7,0.3-1.2,0.6-1.6v-0.2c-0.4,0-0.6-0.2-0.6-0.5l-0.2-0.2H57.1z M50.7,59.8V60h0.4v0.2l0.6-0.2v-0.2H50.7z
			 M51.9,43.6v0.2l1.5,0.5l1-0.2v-0.2c-0.9,0-1.4-0.1-1.4-0.3l-0.2,0.2h-0.2l-0.6-0.2H51.9z M57.1,33.3l0.2,0.9h0.4l0.4-0.3
			l-0.8-0.5H57.1z M57.5,37.6V38H58l-0.4-0.4H57.5z M58,52.3c0.5,1.5,0.9,2.3,1.1,2.3l0.2-0.2v-0.2c0-0.5-0.4-1.2-1.1-1.9H58z
			 M58.3,36.1v0.5h0.2l0.2-0.5H58.3z M58.4,38v0.2l0.4,0.4H59L58.8,38H58.4z M58.6,35.2v0.2l0.6,0.5h0.2v-0.5L58.6,35.2z M58.8,51.8
			v0.2c0.6,0.8,1,1.3,1,1.8h0.4l0.2-0.2h0.2c-0.5-0.9-1-1.5-1.5-1.8H58.8z M60.2,37.5v0.2l1.2,1.4h0.2v-0.2
			c-0.3-0.8-0.7-1.3-1.1-1.4H60.2z M61.3,39.7c0.2,1.4,0.5,2.1,0.8,2.1v-0.7c0-0.9-0.2-1.3-0.6-1.4H61.3z M61.9,43.4h0.4l0.4,0.3
			l-0.2,0.2h-1v-0.2L61.9,43.4z"/>
		<path fill="#201600" d="M73.8,18.1c0,0.8,0.6,1.5,1.9,2.1c0.3,0.7,0.6,1.2,1,1.4l0.5-0.2l0.2,0.2v0.3H77V22l0.3,0.5l-0.2,0.5
			c0.2,0,0.5,1.6,0.6,4.8H78l0.2-0.7h0.5c0.2,0,0.3,0.2,0.5,0.7c0.4,0,0.9,0.5,1.5,1.4c1.2,0.8,2.3,2,3.2,3.6l-0.3,1l0.3,2.7h-0.2
			l0.2,0.2v1.2c0,0.7-0.4,1.1-1.3,1.4l-0.2,0.2h-0.7l-0.2-0.2l-0.2,0.2h-0.6l-0.8-0.2l-2.4,0.4l0.2,2.5c0,5.7,0.2,9.6,0.5,11.6
			L77.7,58l0.2,0.2l-0.2,0.7l0.2,1.2h-0.2l-1.1-0.2c0,0.2-0.2,0.3-0.5,0.3L75.5,60l-0.5,0.5l-0.5-0.3h-0.5l-2.4,0.3
			c-0.3,0-1.2-1.1-2.7-3.4l-0.8-0.8h-0.2l-0.5,0.4c-0.3-0.1-0.5-0.5-0.5-1l0.2-0.2l-0.2-0.2v-1.9l-0.2-1l0.2-0.2
			c-0.2-5.6-0.5-9.8-0.8-12.6h0.2c-0.2-0.8-0.4-1.2-0.7-1.2l0.2-4.3v-0.7l-0.2-0.8h0.2l-0.2-0.2V30l0.2-0.7l-0.2-0.2l0.2-0.8
			c0-4.8,0.2-7.2,0.6-7.2c0.4,0.1,0.7,0.6,0.7,1.5l-0.3,2.2l0.2,0.7l-0.2,0.5l0.2,0.7h-0.2l0.2,0.2v2.2l-0.2,1l0.2,0.2v0.3h-0.2
			c0,4.1,0.5,10.1,1.3,18.1h-0.2l0.2,0.2L67.8,52c0.3,1.8,0.5,2.7,0.7,2.7h0.3l1.5-0.2l0.2,0.2h0.2l0.6-0.2l1.4,0.3l1.1-0.2v-1.9
			L73.6,51l0.2-0.2l-0.5-6.6l0.2-3.2c0-1.5-0.2-3-0.6-4.6c1-0.5,1.4-1,1.4-1.4h0.5l0.2,0.5l3.2-0.2h0.6l0.2-0.2h0.2
			c-0.4-3.4-0.7-5.1-1-5.1l-0.3,1.2h-0.3v-0.3L77,30.7c-2.2,0.2-3.2,0.6-3.2,1h-0.2c-0.2,0-0.3-0.2-0.3-0.7c-0.4,0-0.7-0.1-0.7-0.3
			v-0.2l0.7-1.2l-0.7-6.7h0.2l-0.2-0.2v-0.3c0-0.6,0.2-0.9,0.3-0.9l-0.2-0.7l0.2-1.2h-0.2l-0.7-0.2L67.3,20l-0.6,0.7h-0.3
			c-0.5-0.2-0.8-0.7-0.8-1.5l1.3,0.2l4.2-0.8l0.2,0.2h0.2C72.2,18.3,73,18.1,73.8,18.1z M72.6,56.3l-0.8-0.2l-0.2,0.2v0.2L72,57v0.5
			l-1.3,0.2V58l0.3,0.5l1.3-0.4l0.8,0.5v-0.3l-0.3-0.8h0.2l1.6,1.9l0.2-0.2V59l-0.3-0.7l0.2-0.2h0.3c0,0.5,0.1,0.7,0.3,0.7h0.2
			L74.9,58l0.2-0.2l-0.2-0.2l0.2-0.2h0.2l1,1.5h0.6c-1-1.8-1.9-2.7-2.4-2.7v0.2l0.3,0.5v0.2h-0.2c-0.2,0-0.3-0.2-0.5-0.7
			c-0.4,0-0.7-0.2-0.7-0.5h-0.3L72.6,56.3z M72.6,59l-0.2,0.2v0.4h0.5v-0.2L72.6,59z M74.1,20.7l-0.2,0.7c0.4,2.9,1.1,5.1,2,6.7H76
			l0.3-0.4l0.3,0.4h0.2v-1l-0.2-1.7h0.2l-0.2-0.2v-0.2l0.2-1l-0.2-0.2v-0.2l0.2-0.7c-0.2,0-0.7-0.5-1.4-1.4l-1.1-0.8H74.1z
			 M74.2,25.1v0.7c0,1.5,0.2,2.2,0.5,2.2v-0.2l-0.3-1.4l0.2-0.7l-0.2-0.7H74.2z M74.6,38.6v0.3h-0.2l0.2,0.2V41c0,2.4,0.2,5,0.5,7.8
			l-0.2,0.7h0.2l0.2-0.2h0.2l-0.2-0.9v-0.2l0.2-0.5l-0.3-2.1l0.2-0.8v-1.5L74.9,42v-0.4l0.3-0.3l0.5,0.2l0.3-0.3
			c0,0.3,0.1,0.5,0.3,0.5h0.2v-1l-0.3-0.4h-0.3v0.9l-0.3-0.4h0.2l-0.2-0.2v-0.2l0.2-0.2v-0.2h-0.5l-0.2,0.2h-0.2l-0.2-1.7H74.6z
			 M75.1,51.7c0,0.8-0.1,1.3-0.3,1.5v1.4h0.2l0.2-0.2h0.2l-0.2-0.2v-0.2l0.3-1.2l-0.2-1.2H75.1z M75.9,52l-0.2,1.4l0.2,0.2v1l-1.1,1
			c0.1,0.4,0.4,0.7,1,0.7l-0.5-0.7l0.2-0.2c0.5,0,0.8,0.2,0.8,0.5l0.3-0.3l-0.3-2.1h0.2l-0.2-0.2v-0.2l0.2-0.2
			C76.2,52.4,76.1,52,75.9,52z M75.7,45.2l0.2,1H76v-1H75.7z M75.9,46.6l0.2,2.1v0.7l0.2-0.2h0.2l-0.2-0.8v-0.7l0.2-0.2l-0.2-0.9
			H75.9z M76.2,36.3L76,36.5v0.2c0.4,0.9,1,1.4,1.6,1.4C77.1,37.1,76.6,36.5,76.2,36.3z M76.5,51.7v0.2l0.2,2.4h0.2V52L76.5,51.7z
			 M77.7,36.3v0.4l0.5,0.7v-0.2C78,36.6,77.8,36.3,77.7,36.3z M77.8,38.2l0.2,0.2h0.2v-0.5L77.8,38.2z M78.5,36.2
			c0,0.6,0.4,1.2,1.1,1.7v-0.3c-0.4-0.8-0.7-1.3-1-1.4H78.5z M79.8,29.5v0.4h-0.2c0,1.1,0.4,2.3,1.1,3.6h0.2v-0.3h0.3
			c0,0.9,0.3,1.4,1,1.4V34h0.2l0.5,0.4v-1.4l-1.5-1.5v0.2l0.5,1.4l-0.2,0.2h-0.2l-1-1l-0.3-1.5l0.2-0.2C80.2,29.9,80,29.6,79.8,29.5
			z M79.9,33.1v0.5l0.3,0.3v-0.5L79.9,33.1z M80.1,34.5V35l0.7,0.5v-0.3l-0.3-1L80.1,34.5z M80.3,37.9v0.5h0.5v-0.2l-0.3-0.3H80.3z
			 M80.7,33.6v0.7h0.3v-0.2l-0.2-0.5H80.7z M81.1,37.5v0.2l0.5,0.5h0.2l-0.3-0.7H81.1z M82,36v0.2c0.3,0.7,0.6,1.1,0.8,1.2l0.2-0.2
			v-0.7C82.9,36.2,82.6,36,82,36z"/>
		<path fill="#201600" d="M96.7,26.5h0.8l3,0.7l1-0.5l4.3,2.3v-0.2l-0.2-0.2v-0.2l0.2-0.2c1.3,0,3.5,2.9,6.5,8.8l-0.2,0.2h-0.4
			l-0.2-0.2c-0.3,0-0.8,0.4-1.4,1.3l-2.6,1.3h-0.4c-1.1,0-2.6-1-4.7-3c-1.1,0-1.7-0.2-2-0.7c-1.2,0.5-2.1,1-2.7,1.6v0.2
			c0,0.8,1.2,1.4,3.5,2c0.6,0.5,2.1,1.2,4.3,2.1c4.2,2.6,6.6,5.1,7.3,7.6v2.1c0,1.9-1.4,4.1-4.1,6.6c-0.8,0.7-2.6,1.3-5.3,1.7
			l-5.5,0.8c-2,0-4.2-0.9-6.5-2.8c-5-1.6-7.5-3.2-7.5-4.8c-0.4-0.4-0.8-1.9-1.4-4.5l0.4-1.3l-0.2-0.2v-0.2c0-0.8,1.3-1.1,3.9-1.1
			l2.4,0.2l1-0.2c0.3,0,0.7,0.3,1.2,1c1.2,0,2.9,1.2,5.1,3.5c1.3-0.6,2.1-1,2.2-1.3v-0.8c-0.6-0.6-1.9-1.4-3.9-2.5
			c-4.1-1.8-7-3.4-8.7-4.8c-1.5-1.6-2.3-2.9-2.3-3.8v-1.7c0-2.1,1.7-4.5,5.1-7.4C91.3,27,93.9,26.5,96.7,26.5z M84.9,37
			c0,2.6,3.5,5.2,10.4,7.6c3.1,1.7,4.6,2.9,4.6,3.7c0,1.9-1.7,3-5.1,3.3c-2.5,0-4.3-1.5-5.5-4.5h-1L86.7,47c-1.9,0-2.9,0.3-2.9,0.8
			L83.7,49c0.7,3.6,1.7,5.4,3.1,5.4c2.7,1.8,5.2,2.7,7.5,2.7h0.6c2.7-0.2,5.4-1.1,8.1-2.5c3.1-2.6,4.7-4.8,4.7-6.8v-1.3
			c-1.6-2.4-2.7-3.7-3.1-3.7c-3-1.6-5.4-2.6-7.1-3c-3.8-1.6-5.7-3.5-5.7-5.8c0.5-1.9,2.1-2.8,4.7-2.8h0.2c1.1,0,2.7,1.2,4.9,3.5
			l0.8,0.5c2.2-0.7,3.3-1.3,3.3-2l-0.8-1.5l-0.6,0.3l-0.4-0.3l0.8-0.5c-0.4,0-1.2-0.7-2.2-2c0-0.3-1.5-0.9-4.5-1.8h-0.2
			c-5.8,0-9.3,1.3-10.6,4C85.6,33,84.9,34.9,84.9,37z M90.6,47.1v0.2l0.4,0.8h0.2V48L91,47.1H90.6z M93.4,34.4c0.5,1,1,1.5,1.4,1.7
			h0.2c-0.7-0.9-1-1.7-1-2.3C93.7,33.7,93.5,34,93.4,34.4z M94,32.9v0.5l1.4,1.8l0.2-0.2h0.2l-0.6-1.2h0.8v0.3h0.6
			c-0.2-0.5-0.6-0.9-1.2-1.1l-0.6,0.3l-0.2-0.5H94z M94.3,49.9v0.2l0.4,0.3h0.2L94.3,49.9z M96.3,32.4v0.2l1.2,1h0.8
			C97.9,32.8,97.2,32.4,96.3,32.4z M96.3,58.2l2.2,1l-1.8-1.3L96.3,58.2z M98.1,58.2c1.2,1,2.2,1.5,2.8,1.5v-0.2l-2-1.1v-0.2H98.1z
			 M98.3,57.7l1.8,0.7h0.2v-0.2c-0.3,0-0.7-0.3-1-1C98.7,57.4,98.3,57.5,98.3,57.7z M101.2,56.7v0.5H101l-0.2-0.2h-0.2v0.5
			c0.1,0.3,0.5,0.5,1.2,0.5l0.2-0.7l-0.4-0.3l0.2-0.2v-0.2H101.2z M102.2,56.4l1.6,1h0.4v-0.2c-0.5-0.8-0.9-1.3-1.2-1.3h-0.2
			L102.2,56.4z M103.8,55.2l-0.2,0.2v0.2l1,1.1l0.4-0.3L103.8,55.2z M104.6,54.7l-0.2,0.2v0.3l1.2,0.7v-0.3
			C105.6,55.3,105.2,55,104.6,54.7z M104.6,35.7v0.2l0.2,0.5l0.6-0.2l-0.6-0.5H104.6z M105.4,54.1v0.2l0.4,1.1h0.4v-0.3l-0.6-0.5
			l0.2-0.5H105.4z M105.6,29.8v0.2c0.5,1.4,1,2.1,1.6,2.1l0.2,0.2h0.2v-0.2C107.7,31.5,107,30.7,105.6,29.8z M106.1,35.4l0.2,0.5
			h0.2v-0.5H106.1z M106.2,52.8v1c0.4,0,0.7,0.3,1,0.8h0.2v-0.2c0-0.6-0.3-1.1-1-1.6H106.2z M108.1,50.8c0,0.5-0.3,1.1-1,1.8
			c0.5,0.8,1,1.2,1.4,1.3h0.2v-0.3l-0.8-1v-0.2h0.2l1,0.7l0.4-0.3C109.2,52.1,108.8,51.4,108.1,50.8z M107.1,56.2l0.4,1l-0.4,0.3
			v0.2l0.4,0.3l1.2-1.1C108.7,56.6,108.1,56.3,107.1,56.2z M108.1,55.2v0.3l0.6,0.5v-0.3l-0.2-0.5H108.1z M108.5,49.8v0.7
			c0.7,0.7,1,1.2,1,1.5h0.4l-1.2-2v-0.2H108.5z M108.7,48.8v0.5c0.9,1.1,1.4,1.6,1.6,1.6h0.2v-0.2l-1.4-2.3L108.7,48.8z M110.5,53.1
			l0.2,0.5h0.4l-0.2-0.5H110.5z"/>
		<path fill="#201600" d="M121.8,18.1c0,0.8,0.6,1.5,1.9,2.1c0.3,0.7,0.6,1.2,1,1.4l0.5-0.2l0.2,0.2v0.3h-0.3V22l0.3,0.5l-0.2,0.5
			c0.2,0,0.5,1.6,0.6,4.8h0.2l0.2-0.7h0.5c0.2,0,0.3,0.2,0.5,0.7c0.4,0,0.9,0.5,1.5,1.4c1.2,0.8,2.3,2,3.2,3.6l-0.3,1l0.3,2.7h-0.2
			l0.2,0.2v1.2c0,0.7-0.4,1.1-1.3,1.4l-0.2,0.2h-0.7l-0.2-0.2l-0.2,0.2h-0.6l-0.8-0.2l-2.4,0.4l0.2,2.5c0,5.7,0.2,9.6,0.5,11.6
			l-0.5,4.3l0.2,0.2l-0.2,0.7l0.2,1.2h-0.2l-1.1-0.2c0,0.2-0.2,0.3-0.5,0.3l-0.5-0.2l-0.5,0.5l-0.5-0.3h-0.5l-2.4,0.3
			c-0.3,0-1.2-1.1-2.7-3.4l-0.8-0.8H116l-0.5,0.4c-0.3-0.1-0.5-0.5-0.5-1l0.2-0.2l-0.2-0.2v-1.9l-0.2-1l0.2-0.2
			c-0.2-5.6-0.5-9.8-0.8-12.6h0.2c-0.2-0.8-0.4-1.2-0.7-1.2l0.2-4.3v-0.7l-0.2-0.8h0.2l-0.2-0.2V30l0.2-0.7l-0.2-0.2l0.2-0.8
			c0-4.8,0.2-7.2,0.6-7.2c0.4,0.1,0.7,0.6,0.7,1.5l-0.3,2.2l0.2,0.7l-0.2,0.5l0.2,0.7h-0.2L115,27v2.2l-0.2,1l0.2,0.2v0.3h-0.2
			c0,4.1,0.5,10.1,1.3,18.1H116l0.2,0.2l-0.3,3.1c0.3,1.8,0.5,2.7,0.7,2.7h0.3l1.5-0.2l0.2,0.2h0.2l0.6-0.2l1.4,0.3l1.1-0.2v-1.9
			l-0.2-1.9l0.2-0.2l-0.5-6.6l0.2-3.2c0-1.5-0.2-3-0.6-4.6c1-0.5,1.4-1,1.4-1.4h0.5l0.2,0.5l3.2-0.2h0.6l0.2-0.2h0.2
			c-0.4-3.4-0.7-5.1-1-5.1l-0.3,1.2h-0.3v-0.3l-0.5-0.2c-2.2,0.2-3.2,0.6-3.2,1h-0.2c-0.2,0-0.3-0.2-0.3-0.7c-0.4,0-0.7-0.1-0.7-0.3
			v-0.2l0.7-1.2l-0.7-6.7h0.2l-0.2-0.2v-0.3c0-0.6,0.2-0.9,0.3-0.9l-0.2-0.7l0.2-1.2h-0.2l-0.7-0.2l-4.9,0.7l-0.6,0.7h-0.3
			c-0.5-0.2-0.8-0.7-0.8-1.5l1.3,0.2l4.2-0.8l0.2,0.2h0.2C120.3,18.3,121.1,18.1,121.8,18.1z M120.7,56.3l-0.8-0.2l-0.2,0.2v0.2
			l0.3,0.5v0.5l-1.3,0.2V58l0.3,0.5l1.3-0.4l0.8,0.5v-0.3l-0.3-0.8h0.2l1.6,1.9l0.2-0.2V59l-0.3-0.7l0.2-0.2h0.3
			c0,0.5,0.1,0.7,0.3,0.7h0.2L123,58l0.2-0.2l-0.2-0.2l0.2-0.2h0.2l1,1.5h0.6c-1-1.8-1.9-2.7-2.4-2.7v0.2l0.3,0.5v0.2h-0.2
			c-0.2,0-0.3-0.2-0.5-0.7c-0.4,0-0.7-0.2-0.7-0.5h-0.3L120.7,56.3z M120.7,59l-0.2,0.2v0.4h0.5v-0.2L120.7,59z M122.2,20.7
			l-0.2,0.7c0.4,2.9,1.1,5.1,2,6.7h0.2l0.3-0.4l0.3,0.4h0.2v-1l-0.2-1.7h0.2l-0.2-0.2v-0.2l0.2-1l-0.2-0.2v-0.2l0.2-0.7
			c-0.2,0-0.7-0.5-1.4-1.4l-1.1-0.8H122.2z M122.3,25.1v0.7c0,1.5,0.2,2.2,0.5,2.2v-0.2l-0.3-1.4l0.2-0.7l-0.2-0.7H122.3z
			 M122.7,38.6v0.3h-0.2l0.2,0.2V41c0,2.4,0.2,5,0.5,7.8l-0.2,0.7h0.2l0.2-0.2h0.2l-0.2-0.9v-0.2l0.2-0.5l-0.3-2.1l0.2-0.8v-1.5
			L123,42v-0.4l0.3-0.3l0.5,0.2l0.3-0.3c0,0.3,0.1,0.5,0.3,0.5h0.2v-1l-0.3-0.4H124v0.9l-0.3-0.4h0.2l-0.2-0.2v-0.2l0.2-0.2v-0.2
			h-0.5l-0.2,0.2H123l-0.2-1.7H122.7z M123.1,51.7c0,0.8-0.1,1.3-0.3,1.5v1.4h0.2l0.2-0.2h0.2l-0.2-0.2v-0.2l0.3-1.2l-0.2-1.2H123.1
			z M124,52l-0.2,1.4l0.2,0.2v1l-1.1,1c0.1,0.4,0.4,0.7,1,0.7l-0.5-0.7l0.2-0.2c0.5,0,0.8,0.2,0.8,0.5l0.3-0.3l-0.3-2.1h0.2
			l-0.2-0.2v-0.2l0.2-0.2C124.3,52.4,124.1,52,124,52z M123.8,45.2l0.2,1h0.2v-1H123.8z M124,46.6l0.2,2.1v0.7l0.2-0.2h0.2l-0.2-0.8
			v-0.7l0.2-0.2l-0.2-0.9H124z M124.3,36.3l-0.2,0.2v0.2c0.4,0.9,1,1.4,1.6,1.4C125.2,37.1,124.7,36.5,124.3,36.3z M124.6,51.7v0.2
			l0.2,2.4h0.2V52L124.6,51.7z M125.7,36.3v0.4l0.5,0.7v-0.2C126.1,36.6,125.9,36.3,125.7,36.3z M125.9,38.2l0.2,0.2h0.2v-0.5
			L125.9,38.2z M126.6,36.2c0,0.6,0.4,1.2,1.1,1.7v-0.3c-0.4-0.8-0.7-1.3-1-1.4H126.6z M127.8,29.5v0.4h-0.2c0,1.1,0.4,2.3,1.1,3.6
			h0.2v-0.3h0.3c0,0.9,0.3,1.4,1,1.4V34h0.2l0.5,0.4v-1.4l-1.5-1.5v0.2l0.5,1.4l-0.2,0.2h-0.2l-1-1l-0.3-1.5l0.2-0.2
			C128.3,29.9,128.1,29.6,127.8,29.5z M128,33.1v0.5l0.3,0.3v-0.5L128,33.1z M128.2,34.5V35l0.7,0.5v-0.3l-0.3-1L128.2,34.5z
			 M128.3,37.9v0.5h0.5v-0.2l-0.3-0.3H128.3z M128.8,33.6v0.7h0.3v-0.2l-0.2-0.5H128.8z M129.1,37.5v0.2l0.5,0.5h0.2l-0.3-0.7H129.1
			z M130.1,36v0.2c0.3,0.7,0.6,1.1,0.8,1.2l0.2-0.2v-0.7C131,36.2,130.7,36,130.1,36z"/>
		<path fill="#201600" d="M138.5,27.2l4.3,3.7c0.7,0.6,1.6,2.5,2.7,5.7h0.2l2.7-6.5l0.3-0.4v-0.6c0-0.2-0.3-0.4-1-0.7v-0.6l0.4-0.4
			c1.5,0.5,3.6,0.9,6.2,1.3c0.4,0.4,1.3,0.7,2.5,0.9c0,0.4,1,1.5,3,3.3c0,0.5,0.6,1,1.7,1.3c0,0.6,0.1,1,0.3,1.3
			c-0.5,0-1,1.4-1.7,4.2c-2.4,8.1-4,13.5-4.9,15.9c-0.2,0-0.4,0.5-0.7,1.5c0.2,0,0.4,0.2,0.4,0.5c-1.5,4.1-3.2,7.5-4.9,10.3
			c-0.5,0-1.4,1.2-2.9,3.5c-1.3,1.3-2.4,2.1-3.4,2.4l-0.5-0.2l-0.3,0.4h-0.5c-2.1-1.9-3.7-2.8-4.6-2.8c-1.1,0-2-0.8-2.7-2.4l0.2-1.3
			l-0.2-0.9c0.3-2.6,0.6-3.9,0.8-3.9c2,0,3.3-2.9,3.9-8.7l0.7-2.4c-0.3-0.5-0.6-1.5-0.8-3c-0.2,0-0.4-0.7-0.8-2.2
			c-4-6.1-6.6-10.8-7.6-14.2v-0.4c0.7-0.9,2.5-2.2,5.4-3.7C137.5,27.6,138.1,27.2,138.5,27.2z M132.7,34l0.5,1.3l-0.3,0.4l0.3,0.4
			v-0.6h0.5c0.7,0.7,2,2.9,3.7,6.7L141,48l0.4,1.1l-0.5,0.6c0.5,0.1,0.9,0.6,1.2,1.5c-1,5.2-2.1,9-3.2,11.3c-1,1.3-1.7,2-2.2,2.2
			l-0.4,3.5c0,0.7,0.3,1.1,0.8,1.3c3.4-1,5.1-2.1,5.1-3.3c0.5,0,1.2-1.1,1.8-3.3l-0.2-0.8l2.7-6.2c0-1,2.1-6.7,6.2-17
			c0.2-1.3,1.1-3.8,2.5-7.4v-0.6c0-0.5-1.3-1-4-1.5c-0.8,0-2.1,2.8-3.9,8.3c-1.1,2.8-1.8,4.5-1.9,5.3l-1.2,1.5l-0.4-0.4l0.2-1.5
			c-0.2-1-0.6-1.5-1.4-1.5v-0.4l0.5-0.2c0-1.1-1.4-4.2-4.1-9.2c-0.3-0.5-0.6-1.3-0.8-2.4h-0.2c-3.7,1.7-5.6,2.9-5.6,3.9V34z
			 M141,70.2l-0.7-0.2l-0.5,0.5v0.2h0.3v0.2c4.5-2,7.2-3,8.1-3l0.5-0.7v-0.2h-0.2L141,70.2z M141.5,71.7c0.1,0.4,0.5,0.5,1,0.5h0.2
			l3.7-1.7v-0.2h-0.2C144.1,71.2,142.5,71.7,141.5,71.7z M141.9,69.1h0.3l1.4-0.5l-0.2-0.2v-0.2c0.5-0.4,2.9-1.6,7.1-3.7v-0.4
			c-5.2,1.9-8,3.5-8.6,4.8V69.1z M144.9,63.9l6.8-3.1l0.2-0.9l-6.5,2.7c-0.3,0-0.5,0.3-0.5,0.9l-0.2,0.2L144.9,63.9z M144.8,64.8
			l0.3,0.4l6.1-3.2v-0.4C147.7,63,145.6,64,144.8,64.8z M145.8,61.3v0.4h0.3c4.2-1.5,6.2-2.5,6.2-2.9l0.2-0.8h-0.2
			C148.3,59.9,146.1,61,145.8,61.3z M146.3,65.4h0.2c2.5-1,4-1.8,4.6-2.4l-0.2-0.2C147.8,64.3,146.3,65.1,146.3,65.4z M146.4,60.1
			v0.2l5.6-2.4c0.8-0.4,1.2-0.9,1.2-1.7C150.4,57.4,148.1,58.7,146.4,60.1z M149,65.4c0,0.5-0.7,1-2.2,1.3v0.4h0.2
			c1.6-0.5,2.4-0.9,2.4-1.1v-0.5H149z M148.1,56.9l-0.5-0.2v0.2l-0.7,1.8h0.3l1.5-0.8v-0.4H148c0-0.2,0.5-0.5,1.5-0.7l4.9-3.1V53
			L148.1,56.9z M147.8,56.3h0.2c3.8-2.2,6.1-3.6,6.8-4.3v-0.4h-0.2l-6.6,4.1L147.8,56.3z M148.5,54.5v0.4h0.2
			c4.4-2.5,6.6-3.9,6.6-4.4v-0.4h-0.2C151.5,52.2,149.3,53.7,148.5,54.5z M153.9,44.9h0.2l1.7-0.9h0.2v0.2l-3.4,2.4l-0.3,0.7v0.2
			l3.2-1.7c0,0.3-1.2,1.2-3.5,2.6v0.4l3.9-1.8v0.4c-3,1.5-5.1,2.9-6.1,4.3h0.2c0.4,0,2.1-0.9,5.1-2.6h0.2v0.4
			c-3.9,2.1-5.9,3.3-5.9,3.5V53h0.2c4.2-2.3,6.3-3.7,6.3-4.1c0.6-0.6,0.8-1.5,0.8-2.6c0.6-0.6,0.8-1.1,0.8-1.5l-0.3-0.4
			c0.7-0.6,1-1.3,1-2l-0.2-0.2h-0.2C155.2,43.7,153.9,44.6,153.9,44.9z M150.5,56.9v0.2h0.2c2-0.9,3-1.6,3-2.1h-0.2L150.5,56.9z
			 M150.8,48.2c0.2-0.1,0.5-0.4,0.7-0.9h-0.2C151.1,47.3,150.9,47.6,150.8,48.2z M157.3,33.6v0.9h0.2v-0.4h0.3
			c0,0.9-0.6,1.7-1.9,2.4l-0.5,0.2l-0.5,1.5h0.2l0.8-0.2c-1.1,0.9-1.7,1.7-1.7,2.2h0.3v0.2l1-0.4c-1.6,1.2-2.4,2-2.4,2.2l-0.2,0.2
			v0.2l0.2,0.2h0.2l2.7-1.8h0.3c-2.8,2.1-4.2,3.2-4.2,3.5v0.6h0.2c4.1-2.4,6.2-3.9,6.3-4.3l0.2-0.7v-0.2h-0.2l-2.2,1.1
			c0.2-0.4,1.1-1,2.7-2l0.2-0.9h-0.2l1.2-2.8h-0.2l-0.7,0.2c0-0.2,0.2-0.4,0.5-0.4l0.2-0.2v-0.2l-0.2-0.2h-0.2l-0.2,0.2l-0.5-0.5V34
			l-1,0.4v-0.2l0.2-0.2v-0.2l-0.2-0.5L157.3,33.6z M154.2,37.5v0.4h0.2c0-0.4,0.2-0.9,0.7-1.5v-0.5h-0.2
			C154.7,35.9,154.4,36.4,154.2,37.5z M159,37.9v0.2l-3,2.1h-0.3C156.8,39,157.9,38.3,159,37.9z M158.5,35.1h0.2v0.2
			c0,0.4-0.9,1-2.7,1.9v-0.4C157.2,36.1,158.1,35.5,158.5,35.1z M156.6,33.4h0.5v-0.7L156.6,33.4z M157.8,36.8h0.2
			c0,0.3-0.5,0.6-1.4,0.9v-0.2C156.8,37,157.2,36.8,157.8,36.8z M158.6,36h0.3l-0.5,0.5h-0.3L158.6,36z M159.3,35.5h0.2v0.2
			l-0.3,0.4H159v-0.2L159.3,35.5z"/>
		<path fill="#201600" d="M169,12.5c3,2,5.2,3.9,6.6,5.6c0.4,0,0.7,0.1,0.7,0.4l0.3,9.3l-0.2,1.7l0.5,7.1l-0.4,5.8l0.2,1.5l0.2,8.7
			l0.5,0.6v5.8c0.3,0,0.5,0.1,0.5,0.4v0.2l-0.7,0.8l-2-0.4l-2.2,0.2v-0.2c-2.4,0.3-3.8,0.6-4,1h-0.3c-0.4-0.7-2-2.4-4.7-5h-0.2
			l-0.5,0.4H163c-0.2,0-0.4-0.6-0.5-1.9c-0.2,0-0.4-1.5-0.7-4.4l0.3-1.9l-0.2-0.2v-0.6h0.2l-0.7-15.2l0.2-11l-0.2-0.2v-0.2L162,15
			l-0.2-0.8c0-1,0.7-1.5,2.2-1.5v0.2l0.5-0.2l1.2,0.2l1.7-0.2h0.8l0.2,0.2L169,12.5z M164.1,14h-0.7l0.2,5.8l-0.2,2.5l0.3,8.3
			l-0.2,2.7l0.2,1l-0.3,8.7l0.2,11l0.2,0.2h0.8c3.5-0.2,5.2-0.7,5.2-1.3V46l-0.2-2.7l0.2-0.2l-0.3-6.9l0.3-2.5l-0.2-1.6l0.2-3.1
			l-0.2-0.2v-0.2l0.2-0.2c-0.1-9.2-0.4-13.9-0.8-14.3l-3.3-0.4l-0.5,0.2l-0.2-0.2L164.1,14z M168.4,55.1c0.4,0,0.8,0.8,1.2,2.3h0.5
			v-0.2l-0.5-1.8l0.2-0.2h0.2c0.2,0,0.4,0.4,0.5,1.1h0.2c-0.2-1.3-0.4-1.9-0.8-1.9h-0.4C168.7,54.6,168.4,54.7,168.4,55.1z
			 M170.7,21.1v1.5h0.3l-0.2-1.5H170.7z M170.7,24.4v0.8c0.1,1.8,0.3,2.7,0.7,2.7h0.2l-0.7-3.5H170.7z M170.9,54.7l0.3,1.3l-0.2,0.2
			c0.2,0,0.3,0.4,0.3,1.1l0.5,0.2v-0.4l-0.5-2.9h-0.2L170.9,54.7z M171.7,31.9c0,2.7,1,9.1,3,19.1h0.2v-1.1l-3-17.9H171.7z
			 M172.1,24.8v1.3c0.2,2.6,0.6,4.6,1.2,6l-0.2,0.2c0.1,1.1,0.3,1.7,0.5,1.7l0.2-0.2l-0.3-1.5l0.3-0.4l-1.5-7.1H172.1z M172.1,49.1
			v0.4c0.1,2.6,0.3,3.9,0.7,3.9v-0.2l-0.5-4.1H172.1z M172.2,55.8V56l0.3,0.4v-0.6H172.2z M172.4,42.2v0.6c0.4,4,1.2,8.4,2.4,13.1
			l0.2-0.2h0.2l-0.2-0.2l0.2-1c-0.2-0.2-0.5-1.6-0.8-4.2c-0.7-2-1.2-4.7-1.7-8.1H172.4z M172.7,17.9v0.6c0.7,3,1.1,4.4,1.4,4.4
			l-0.5-3.3h0.5v0.8h0.2l0.2-0.2h0.2c0-0.7-0.4-1.3-1.2-1.7l-0.2,0.2l-0.3-0.8H172.7z M172.9,51v0.2c0.4,2.3,0.7,3.5,1,3.5v-0.2
			l-0.7-3.5H172.9z M173.4,34.3v0.6l0.2,1.4l-0.5,0.2l0.2,1h0.2l0.2-0.2h0.2l0.4,1.4h-0.4l-0.2-1h-0.3l1.7,9.1h0.2v-1.1l-0.8-5h0.3
			v0.4h0.2l0.2-1.8l-0.5-2.3h0.3c-0.1-1.5-0.3-2.3-0.5-2.3v1h-0.3l-0.2-1.1H173.4z M173.4,36.4h0.3v0.6l-0.3-0.4V36.4z M174.2,38.9
			l0.2,0.2v1h-0.3l-0.2-1l0.2-0.2H174.2z M173.9,57v0.4l0.2,0.6h0.7l0.3-0.4L173.9,57z M174.4,21.5v0.4l0.2,0.6h0.2v-0.4l-0.2-0.6
			H174.4z M174.9,24c0,1.3-0.1,2.3-0.4,3.1l0.4,1.5l-0.4,1.2c0.2,0,0.4,0.3,0.4,1l0.2,0.2h0.2v-6l-0.2-1H174.9z"/>
		<path fill="#201600" d="M193,26.5h1c1.2,0,3.6,0.7,7.1,2.1c1.1,0,3.8,2.1,8.1,6.3c0.7,1.4,1.1,2.1,1.4,2.1l0.6-0.2l0.2,0.5
			l0.6,5.6l-0.6,0.4l-1.5-0.7c-0.8,0.2-1.1,0.3-1.1,0.5c0.6,0,1,0.1,1,0.4v0.2c0,0.5-2,0.9-6,1.2c0,0.2-1.1,0.3-3.3,0.5v0.2
			c1.8,1.2,2.9,1.8,3.3,1.8c0-0.2,0.2-0.4,0.6-0.4c0.3,0,0.8,0.5,1.5,1.4c0.5,0,2,1.3,4.4,4v0.2l-0.4,0.5v0.2c0.6,0.1,1,0.3,1,0.5
			l-2.1,1.9c-2.5,2.8-4.5,4.2-6.2,4.2c0,0.2-0.7,0.4-2.1,0.5l0.2,0.2v0.4c-3.5,0-8.9-2.2-16-6.6c-2.3-2.4-3.7-5.1-4.2-7.8l-0.8-5.1
			V41h0.4v-0.9l-0.4-0.5c0-2.7,1.4-5.6,4.2-8.7C185.7,28.9,188.8,27.5,193,26.5z M181.1,36.2l0.2,0.2v0.2l-0.8,3.1l0.2,0.5l-0.2,1.4
			c1.1,5.8,1.9,8.7,2.5,8.7c0,1.1,3.2,2.9,9.6,5.3l1,0.2h1.9c4.7-1,7.1-2.2,7.1-3.5c0.5,0,1.2-0.8,2.1-2.4l-0.2-0.2
			c0-0.2-0.9-0.9-2.7-1.9l-0.8-0.3h-0.4c-0.8,1.9-1.8,3-2.9,3.3c-0.7,0.1-1.3,0.3-1.8,0.7h-1.1c-4.5-2.2-6.7-3.8-6.7-5.1
			c-0.3-0.3-0.5-0.9-0.6-1.8v-0.9c0-0.9,0.6-1.6,1.7-2.3l0.6,0.2c0-0.3,1.8-0.7,5.4-1.2c3.1-1.2,6.4-1.8,9.8-1.8v-0.2l-0.2-0.7
			l1-0.2c0-2-1.1-4.3-3.3-6.8l-4.6-2.6l-3.7-0.9l-0.8,0.2l-0.6-0.2c-3.9,1.2-6.5,2.4-7.7,3.3c-0.8,0.7-2.2,2.5-4.2,5.4V36.2z
			 M193,32.1c2.4,0.6,3.9,1.1,4.4,1.6l0.2-0.2h0.4c0.8,0.1,1.1,0.3,1.1,0.5v0.3h-0.4l0.6,1.4v0.5l-0.4,0.3h-1.5l-1,0.2v-0.2
			l-4.8,1.2h-0.2l-0.2-0.2l-1.9,0.4c-0.6,0-1.2-0.5-1.7-1.6C188.8,33.5,190.6,32.1,193,32.1z M190.1,36.1v0.2l1.9-0.9V35
			C191,35,190.4,35.4,190.1,36.1z M190.3,42.9l0.4,0.4h0.2l-0.4-0.4H190.3z M190.9,43.4v0.2c0,0.3,0.3,0.5,1,0.5l-0.2,0.9l0.6,0.3
			v-0.7h0.2l0.2,0.2h0.2v-0.2l-1-0.7C191.8,43.6,191.5,43.4,190.9,43.4z M191.4,42l0.6,0.5h0.2v-0.2l-0.4-0.3H191.4z M192,46.4
			l-0.2,0.2v0.5h0.2v-0.5h0.4v0.5l-0.2,0.2v0.2l0.8,0.5c0-0.3,0.2-0.5,0.6-0.5v-0.4c0-0.3-0.5-0.6-1.5-0.9V46.4z M192.8,48.3v0.2
			l0.6,0.7h0.2V49L192.8,48.3z M193.2,35.9v0.5c0.8-0.3,1.1-0.5,1.1-0.7v-0.2L193.2,35.9z M193.2,45v0.2l0.4,0.9l0.4-0.4L193.2,45z
			 M193.8,43.6v0.3h1v-0.3H193.8z M194.5,47.6c0.3,1.4,0.8,2.1,1.4,2.1c2.6-0.8,3.9-1.8,3.9-3c-0.4-0.1-0.6-0.5-0.6-1.1
			c-2.9,0.3-4.4,0.8-4.4,1.6v0.4H194.5z M195.1,44.6V45l0.6-0.2v-0.2H195.1z M196.7,56.8l0.2,0.2v0.2l-0.2,0.2h-0.2l-1.3-0.5V57
			c0,0.4,0.9,0.7,2.7,0.9l1-0.2l-1-1.2H197L196.7,56.8z M195.7,43.9v0.4h1v-0.2L195.7,43.9z M205.9,39.9l-0.2,0.5l-0.2-0.2h-2.7
			c-0.3,0-0.4,0.2-0.4,0.5l-2.5-0.2c0,0.2,0.3,0.4,0.8,0.4v0.3h-0.2l-0.2-0.2l-0.2,0.2h-0.6L199,41l-0.6,0.2V41
			c-0.9,0.2-1.4,0.3-1.4,0.5c0.4,0,0.6,0.1,0.6,0.4c-0.4,0-0.6,0.1-0.6,0.3l6.9,1.2h0.2v-0.2c-2-0.4-3.2-0.8-3.7-1.2v-0.2h0.4
			l2.1,0.5l0.2-0.2h0.2c1.5,0.6,2.4,1.1,2.7,1.6c1.5-0.2,2.3-0.4,2.3-0.7l-3.5-1l-2.3-0.4l0.2-0.2v-0.2l3.8,0.7l0.2-0.2h0.9L208,42
			h0.2v-0.4c0-0.2-0.2-0.4-0.6-0.4l-0.2-0.2V41l0.2-0.5c-0.3,0-0.4-0.2-0.4-0.5H205.9z M197,59.5l0.2,0.5h0.2l1-0.3l-0.4-0.4
			L197,59.5z M197.8,43.2c0,0.3-0.2,0.5-0.6,0.5v0.2l1.7,0.4h0.4v-0.2c-0.9,0-1.4-0.3-1.4-0.9H197.8z M198,41.5l1.8,0.2l-0.2,0.2V42
			l-0.6-0.2l-0.6,0.2l-0.2-0.2L198,42l-0.2-0.2v-0.2L198,41.5z M205.7,50.6c0,0.6-0.9,1.7-2.7,3.3c0,0.3-0.3,0.5-0.8,0.5v0.5
			l-0.2-0.2h-0.2l-0.8,0.9l-0.8-0.2c-0.3,0-0.6,0.3-0.8,0.9l-1-0.2h-0.2v0.5l1.7,0.7c0-0.3,0.3-0.5,0.8-0.5l0.6,0.4l0.8-0.5v-0.2
			c-0.4,0-0.6-0.1-0.6-0.3v-0.4l1,0.5h0.2v-0.2l-0.6-1.2h0.2l1.1,0.9v-0.2l-0.6-1.1v-0.2h0.4c0,0.3,0.3,0.6,1,0.9h0.2v-0.5l-0.2-0.2
			v-0.2l0.2-0.2h0.4l0.2,0.2h0.2v-0.2l-0.4-1l1.5,1h0.2l-0.6-1.2c0.1-0.7,0.3-1.2,0.6-1.6v-0.2c-0.4,0-0.6-0.2-0.6-0.5l-0.2-0.2
			H205.7z M199.3,59.8V60h0.4v0.2l0.6-0.2v-0.2H199.3z M200.5,43.6v0.2l1.5,0.5l1-0.2v-0.2c-0.9,0-1.4-0.1-1.4-0.3l-0.2,0.2h-0.2
			l-0.6-0.2H200.5z M205.7,33.3l0.2,0.9h0.4l0.4-0.3l-0.8-0.5H205.7z M206.1,37.6V38h0.6l-0.4-0.4H206.1z M206.7,52.3
			c0.5,1.5,0.9,2.3,1.1,2.3l0.2-0.2v-0.2c0-0.5-0.4-1.2-1.1-1.9H206.7z M206.9,36.1v0.5h0.2l0.2-0.5H206.9z M207,38v0.2l0.4,0.4h0.2
			l-0.2-0.5H207z M207.2,35.2v0.2l0.6,0.5h0.2v-0.5L207.2,35.2z M207.4,51.8v0.2c0.6,0.8,1,1.3,1,1.8h0.4l0.2-0.2h0.2
			c-0.5-0.9-1-1.5-1.5-1.8H207.4z M208.8,37.5v0.2l1.2,1.4h0.2v-0.2c-0.3-0.8-0.7-1.3-1.1-1.4H208.8z M209.9,39.7
			c0.2,1.4,0.5,2.1,0.8,2.1v-0.7c0-0.9-0.2-1.3-0.6-1.4H209.9z M210.5,43.4h0.4l0.4,0.3l-0.2,0.2h-1v-0.2L210.5,43.4z"/>
	</g>
	<g>
		<path fill="#E52F2C" d="M42.4,2.3c0,0-0.1,0.1-0.1,0.1C42.3,2.3,42.4,2.2,42.4,2.3z"/>
		<polygon fill="#E52F2C" points="42.8,2.4 42.8,2.5 42.9,2.4 		"/>
		<path fill="#E52F2C" d="M43,2.7c0.2-0.1-0.1-0.1-0.1-0.2l0,0l-0.2,0.1C42.9,2.6,43.1,2.7,43,2.7z"/>
		<path fill="#E52F2C" d="M42.8,3.2C42.8,3.1,42.9,3.2,42.8,3.2C42.8,3.1,42.8,3.1,42.8,3.2C42.8,3.1,42.8,3.1,42.8,3.2z"/>
		<path fill="#E52F2C" d="M42.8,3.1C42.7,3.1,42.7,3.2,42.8,3.1L42.8,3.1z"/>
		<path fill="#E52F2C" d="M42.9,3.2L42.9,3.2c-0.1,0-0.1,0.1-0.1,0.1C42.8,3.4,42.9,3.3,42.9,3.2z"/>
		<path fill="#E52F2C" d="M43.1,3.2L43.1,3.2C43,3.2,43,3.2,43.1,3.2z"/>
		<path fill="#E52F2C" d="M42.9,3.2L42.9,3.2C43,3.2,43.1,3.1,42.9,3.2C43,3.2,43,3.2,42.9,3.2z"/>
		<path fill="#E52F2C" d="M42.9,3.1c0,0,0-0.1,0.1-0.1C43,3,42.9,3.1,42.9,3.1z"/>
		<path fill="#E52F2C" d="M43.2,2.6L43.2,2.6L43.2,2.6C43.2,2.6,43.2,2.7,43.2,2.6z"/>
		<path fill="#E52F2C" d="M42.9,3.5c0,0,0.1-0.1,0.2-0.1l-0.1,0C43,3.4,43,3.5,42.9,3.5z"/>
		<path fill="#E52F2C" d="M43.1,3.4L43.1,3.4C43.2,3.4,43.1,3.4,43.1,3.4z"/>
		<polygon fill="#E52F2C" points="43.3,3.1 43.1,3.1 43.3,3.1 		"/>
		<polygon fill="#E52F2C" points="42.9,3.5 42.8,3.6 43,3.5 		"/>
		<path fill="#E52F2C" d="M43,3.5c-0.1,0-0.2,0-0.2,0C42.8,3.6,42.9,3.6,43,3.5C42.9,3.6,42.9,3.6,43,3.5z"/>
		<path fill="#E52F2C" d="M43.1,3.6c0,0-0.1,0-0.1,0C43,3.6,43,3.6,43.1,3.6z"/>
		<path fill="#E52F2C" d="M43.2,3.4c0,0-0.1,0-0.1,0.1L43.2,3.4L43.2,3.4z"/>
		<path fill="#E52F2C" d="M43.2,3.4L43.2,3.4C43.2,3.4,43.2,3.4,43.2,3.4C43.2,3.4,43.2,3.4,43.2,3.4z"/>
		<path fill="#E52F2C" d="M43.2,3.4L43.2,3.4C43.2,3.4,43.2,3.4,43.2,3.4z"/>
		<path fill="#E52F2C" d="M43.2,3.3c0.1,0,0.2,0,0.2-0.1C43.4,3.2,43.3,3.2,43.2,3.3z"/>
		<path fill="#E52F2C" d="M43.3,3.3L43.3,3.3C43.3,3.3,43.2,3.4,43.3,3.3L43.3,3.3z"/>
		<polygon fill="#E52F2C" points="43.4,3.3 43.3,3.3 43.3,3.4 		"/>
		<path fill="#E52F2C" d="M43.2,3.5C43.2,3.5,43.3,3.5,43.2,3.5c0.1,0,0.1,0,0.1,0C43.2,3.5,43.2,3.5,43.2,3.5z"/>
		<path fill="#E52F2C" d="M43.2,3.5L43.2,3.5C43.2,3.5,43.2,3.5,43.2,3.5z"/>
		<polygon fill="#E52F2C" points="43.3,3.6 43.4,3.6 43.3,3.6 		"/>
		<path fill="#E52F2C" d="M43.3,3.5C43.3,3.5,43.3,3.5,43.3,3.5C43.3,3.5,43.3,3.5,43.3,3.5C43.3,3.5,43.3,3.5,43.3,3.5z"/>
		<path fill="#E52F2C" d="M43.1,3.6C43.2,3.6,43.2,3.6,43.1,3.6C43.2,3.6,43.1,3.6,43.1,3.6z"/>
		<path fill="#E52F2C" d="M43.2,3.5L43.2,3.5C43.1,3.5,43.1,3.5,43.2,3.5z"/>
		<path fill="#E52F2C" d="M43.2,3.5C43.2,3.5,43.2,3.5,43.2,3.5C43.2,3.5,43.2,3.5,43.2,3.5C43.2,3.5,43.2,3.5,43.2,3.5z"/>
		<path fill="#E52F2C" d="M44.4,3.8c-0.2,0-0.3-0.1-0.2-0.1c-0.1-0.1-0.6,0-0.9-0.1c0.1,0,0.1,0,0.2,0c0.1,0,0.1-0.1,0.3,0
			c0.1,0.1,0,0-0.1,0C44,3.7,44.1,3.8,44.4,3.8l-0.2,0C44.3,3.8,44.4,3.8,44.4,3.8z"/>
		<path fill="#E52F2C" d="M43.4,3.6L43.4,3.6c0,0-0.1,0-0.2,0C43.2,3.6,43.3,3.6,43.4,3.6L43.4,3.6L43.4,3.6z"/>
		<path fill="#E52F2C" d="M43.3,3.6c0.2,0,0.2,0,0.4,0c0,0-0.1,0-0.2,0C43.5,3.6,43.4,3.5,43.3,3.6C43.3,3.5,43.3,3.5,43.3,3.6
			C43.3,3.5,43.2,3.5,43.3,3.6L43.3,3.6L43.3,3.6L43.3,3.6C43.2,3.6,43.3,3.6,43.3,3.6L43.3,3.6C43.3,3.6,43.3,3.6,43.3,3.6
			C43.3,3.6,43.3,3.6,43.3,3.6L43.3,3.6L43.3,3.6L43.3,3.6C43.3,3.6,43.3,3.6,43.3,3.6z"/>
		<path fill="#E52F2C" d="M43.7,3C43.7,3.1,43.7,3.1,43.7,3C43.7,3.1,43.7,3.1,43.7,3z"/>
		<path fill="#E52F2C" d="M43.7,3.1C43.7,3.1,43.6,3.1,43.7,3.1C43.6,3.1,43.7,3.1,43.7,3.1c0-0.1-0.1-0.1-0.1,0L43.7,3.1
			c-0.1,0.1-0.2,0.2-0.3,0.2C43.5,3.2,43.6,3.2,43.7,3.1z"/>
		<path fill="#E52F2C" d="M43.6,3.4l0.1,0l0.1-0.1l-0.1,0C43.7,3.3,43.6,3.4,43.6,3.4z"/>
		<polygon fill="#E52F2C" points="43.3,3.6 43.1,3.6 43.3,3.7 		"/>
		<polygon fill="#E52F2C" points="43.3,3.7 43.1,3.6 43.2,3.7 		"/>
		<path fill="#E52F2C" d="M40,5.7L40,5.7C40,5.7,40,5.7,40,5.7z"/>
		<path fill="#E52F2C" d="M40.1,5.7L40.1,5.7C40.1,5.7,40.1,5.7,40.1,5.7z"/>
		<path fill="#E52F2C" d="M43.1,4C43,3.9,42.9,3.7,43,3.9L43.1,4C43.1,4,43.1,4,43.1,4z"/>
		<path fill="#E52F2C" d="M41.6,4.8L41.6,4.8C41.7,4.8,41.7,4.7,41.6,4.8C41.7,4.7,41.6,4.7,41.6,4.8z"/>
		<path fill="#E52F2C" d="M41.6,5.3L41.6,5.3C41.6,5.3,41.6,5.3,41.6,5.3z"/>
		<path fill="#E52F2C" d="M39.1,6.2l0,0.1C39.2,6.3,39.1,6.3,39.1,6.2z"/>
		<path fill="#E52F2C" d="M43.6,4.1C43.5,4,43.5,4,43.5,4C43.6,4.1,43.9,4.2,43.6,4.1z"/>
		<path fill="#E52F2C" d="M39.7,4.4C39.7,4.4,39.7,4.4,39.7,4.4C39.7,4.4,39.7,4.4,39.7,4.4z"/>
		<path fill="#E52F2C" d="M43.5,4C43.5,4.1,43.6,4.1,43.5,4C43.5,4,43.5,4,43.5,4C43.4,4,43.3,3.9,43.5,4z"/>
		<path fill="#E52F2C" d="M37.3,8.8C37.3,8.8,37.3,8.8,37.3,8.8C37.3,8.8,37.3,8.8,37.3,8.8z"/>
		<path fill="#E52F2C" d="M36.1,10C36.1,9.9,36.1,9.9,36.1,10C36,9.9,36,9.9,36.1,10z"/>
		<path fill="#E52F2C" d="M43.3,3.8C43.3,3.8,43.3,3.8,43.3,3.8L43.3,3.8z"/>
		<path fill="#E52F2C" d="M44.1,4c0,0,0.1,0,0.1,0C44.1,4,44.1,4,44.1,4z"/>
		<path fill="#E52F2C" d="M45.1,5.1L45.1,5.1C45.2,5.2,45.1,5.2,45.1,5.1z"/>
		<path fill="#E52F2C" d="M43.4,3.8C43.4,3.8,43.4,3.8,43.4,3.8C43.4,3.8,43.4,3.8,43.4,3.8z"/>
		<path fill="#E52F2C" d="M43.3,3.8C43.3,3.8,43.3,3.8,43.3,3.8C43.3,3.8,43.3,3.8,43.3,3.8z"/>
		<path fill="#E52F2C" d="M43.3,3.8C43.3,3.8,43.3,3.8,43.3,3.8C43.3,3.8,43.3,3.8,43.3,3.8C43.3,3.8,43.3,3.8,43.3,3.8z"/>
		<path fill="#E52F2C" d="M37.6,6.9C37.6,6.9,37.6,6.9,37.6,6.9C37.6,6.9,37.6,6.9,37.6,6.9z"/>
		<polygon fill="#E52F2C" points="43.2,5.4 43.2,5.4 43.2,5.4 		"/>
		<path fill="#E52F2C" d="M43.1,5.5c0-0.2,0.1-0.1,0.1-0.1L43.1,5c0,0,0,0.1,0,0.2C43.1,5.3,43.1,5.5,43.1,5.5z"/>
		<path fill="#E52F2C" d="M39.6,5.9L39.6,5.9c0.1,0.3,0,0.2,0.1,0.4c-0.1-0.4,0.2-0.1,0.1-0.5l0.1,0.1c0,0,0,0,0,0
			c0.1,0.2,0-0.3,0.1-0.3c0,0,0.1,0.1,0.1,0.1l0-0.1c0,0,0,0.1,0,0.1l0.1-0.1l0,0c0-0.1,0-0.2,0-0.2c0,0,0,0,0,0.1l0-0.1
			c0.1,0.1,0,0.2,0,0.2c0.2,0.4,0-0.1,0.2,0.1l0,0.1C40.4,6,40.5,5.9,40.6,6c0-0.1-0.2-0.3-0.2-0.4c0,0,0.1,0,0.1-0.1
			c0,0.1,0.1,0.1,0.1,0.1l0,0.2c0-0.1,0-0.2,0-0.2c0.1,0,0.1,0.2,0.1,0.3c0.1,0-0.1-0.2,0-0.3c0.1,0.1,0.1,0,0.2-0.1
			c0.1,0.1,0,0.1,0,0.2l0-0.2c0,0,0,0,0,0.1c0-0.1,0-0.2,0-0.3c0-0.2,0.2,0.3,0.2,0c0,0.1,0,0.1,0,0.2c0.1-0.2,0.1-0.1,0.2-0.3
			l0.1,0.1c-0.1-0.1,0-0.3,0.1-0.5c0-0.1-0.1-0.1-0.1-0.2l0.1-0.1c0,0,0,0.1,0,0.2l0,0c0,0.1,0,0.2,0,0.3l0-0.1c0,0.1,0,0.2,0,0.4
			c0,0,0,0,0-0.1c0,0,0,0.1,0,0.1c0,0,0,0,0-0.1l0,0.2l0-0.1l0.1,0.1c0.1-0.2,0.2-0.5,0.3-0.6c0,0.2,0,0.3,0,0.4
			c0-0.2-0.1,0.1-0.2,0c0,0,0,0.1,0,0.1l0.1-0.2c0,0.2,0,0.1,0.1,0.2c0-0.3,0.1-0.2,0.2-0.3c0,0.1,0,0.2-0.1,0.2
			c0.1,0.2,0.1-0.3,0.2-0.2c0,0,0,0,0,0c0-0.1,0.1,0,0.1,0.1l0,0c0.1,0,0.1,0,0.2,0c0.1,0,0.2-0.1,0.2-0.2c0,0,0,0.3,0,0.4
			c0,0,0.1-0.2,0.1-0.4c0-0.2,0-0.4,0-0.4c0,0.2,0.3,0.8,0.2,0.9c0.1,0,0.1,0.1,0.2,0c0,0-0.2-0.3-0.2-0.4c0.2,0.3,0.1,0.1,0.3,0.4
			C43.5,5.4,43.4,5,43.5,5c0,0.1,0.2,0.4,0.2,0.4c0,0,0-0.4,0-0.4c0,0.1,0.2,0.3,0.3,0.4c-0.1-0.1,0.2,0,0.2,0l-0.1-0.1
			c0.3,0.1-0.2-0.5-0.1-0.5c0.1,0.1,0.4,0.5,0.5,0.6c-0.1-0.1-0.2-0.4-0.4-0.6c-0.2-0.2-0.3-0.4-0.4-0.5l0.1,0.1l-0.1-0.1
			C43.8,4.5,44,4.7,44.2,5c0.2,0.3,0.4,0.5,0.4,0.6c0.2,0.1,0.2,0.2,0.3,0.2c0.2,0.1,0.1,0.2,0.1,0.2l0.4,0.2
			c-0.3-0.3,0-0.2-0.3-0.5c0,0,0,0.2,0,0.2c-0.3-0.3-0.6-0.8-0.4-0.7c0.2,0.1,0.6,0.5,0.7,0.6c-0.1-0.1,0-0.1,0.1-0.1l0.1,0.1
			c0.3,0.2-0.3-0.4,0.2,0c0.1,0,0.7,0.5,0.4,0.3c-0.3-0.2-0.8-0.6-1.2-0.9c-0.4-0.3-0.7-0.6-0.9-0.7c0,0,0.4,0.3,0.7,0.4
			C44.7,5,45,5.2,45.2,5.4c0.2,0.2,0.4,0.3,0.6,0.5c-0.1-0.1-0.2-0.2-0.3-0.2c0.1,0.1,0.4,0.3,0.4,0.3c-0.5-0.3,0.2,0.1-0.4-0.3
			c-0.1-0.1,0.2,0.1,0.3,0.1c-0.2-0.1-0.4-0.3-0.6-0.4c-0.3-0.2-0.4-0.3-0.5-0.3C44.9,5,45,5.1,45.1,5.1c0.1,0,0.2,0.1,0.3,0.1
			c0,0,0.1,0,0-0.1c0.1,0.1,0.2,0.1,0.4,0.2c-0.1-0.1-0.2-0.2-0.3-0.2c0.3,0.1,0.1,0.1,0.5,0.3c-0.2-0.1-0.4-0.3-0.6-0.4
			c-0.3-0.2,0,0.1,0.2,0.2c-0.5-0.3-1.1-0.7-1.4-0.9c-0.2-0.1,0.3,0.1,0.2,0.1c0-0.1-0.9-0.5-0.6-0.4c0.3,0.1,0.6,0.2,0.7,0.3
			c0.1,0.1-0.1,0-0.1,0l0.1,0c0.1,0.1,0.2,0.1,0.1,0.1c0.2,0.1-0.1-0.2,0-0.3c-0.1-0.1-0.2-0.1-0.3-0.1l0.1,0
			c-0.2-0.1-0.3-0.2-0.4-0.2C44,4,43.8,3.9,43.8,3.9L44.1,4c-0.1,0-0.1,0,0,0c-0.1-0.1,0.3,0-0.1-0.1l-0.2,0
			c-0.2-0.1-0.5-0.2-0.4-0.2c-0.2,0,0,0-0.3,0c0.4,0.1,0,0,0.4,0.1c-0.4-0.1-0.1,0-0.4-0.1c0.1,0,0.2,0.1,0.1,0.1c0,0,0.1,0,0.1,0
			l0,0l0,0c0,0,0,0,0,0c0,0,0.1,0,0.1,0C43.8,3.9,43.8,4,43.9,4c0,0-0.1-0.1-0.2-0.1L43.9,4c-0.2-0.1-0.4-0.1-0.5-0.2l0,0
			c-0.1,0-0.2-0.1-0.1,0c0,0,0.3,0.2,0.1,0.1L43.6,4l-0.1,0c0,0,0.5,0.3,0,0.1c0.1,0,0.2,0.1,0.1,0.1L43.4,4c0.1,0-0.3-0.2,0,0
			c-0.1-0.1-0.2-0.1-0.3-0.2c-0.2-0.1,0.1,0.1,0,0L43.3,4c0,0,0,0,0.1,0.1l0.2,0.2c0.1,0.1-0.2-0.1-0.2-0.1c-0.1-0.1,0,0,0,0
			c-0.4-0.4,0.1,0.2-0.2,0c0,0.1,0,0,0,0c0,0,0,0,0,0l0,0c0,0-0.1-0.1-0.1-0.1c0,0,0.1,0.1,0.1,0.1c0,0,0,0,0,0.1L43.1,4l0,0
			c-0.1-0.1,0,0.1,0.1,0.2c0,0,0,0.1,0,0.1c-0.2-0.2,0,0.1-0.2-0.2c0.1,0.1,0,0.1,0.1,0.3c0,0,0-0.1,0-0.1c0,0-0.1-0.1-0.1,0L43,4.2
			l0,0.2c-0.1-0.1-0.1-0.2-0.1-0.3c0,0.2,0,0.1-0.1,0.3l0-0.1c0,0-0.1,0.2-0.1,0.1c0-0.2-0.4,0-0.6-0.2c0,0.3-0.1-0.2-0.1,0.1
			c0-0.1,0-0.1,0-0.2c-0.1,0.1-0.2-0.1-0.2,0.1c0-0.1,0-0.1,0-0.2c0,0,0,0.1,0,0c0,0,0-0.1,0-0.1c-0.1,0-0.1,0.3-0.1,0.5
			c-0.1-0.1-0.1-0.1-0.1,0.1c0-0.1-0.1-0.2,0-0.2c0,0-0.2-0.1-0.2,0.1c0,0-0.1,0-0.1,0c-0.1,0-0.1,0-0.2,0l0,0
			c0,0.2-0.1,0.1-0.1,0.1l0,0c-0.2-0.1-0.1,0.1-0.2-0.1l0,0.1c0,0.3-0.2-0.2-0.2,0l0,0.1c0,0.1-0.2-0.4-0.3-0.4c0,0,0,0,0-0.1
			c-0.2-0.2,0,0.2-0.1,0.2c0-0.1,0-0.3-0.1-0.3C40.1,4,40,4.5,39.9,4.3c0,0.1,0.1,0.1,0,0.2c-0.1,0-0.3-0.2-0.3,0c0,0,0,0,0-0.1
			c0,0.1-0.1,0.1-0.1,0.3c-0.2-0.5-0.2,0.3-0.4-0.1L39,4.8l0,0c-0.1,0-0.1,0.1-0.1,0.2c0,0,0-0.1,0-0.1c-0.2,0-0.2,0-0.2,0.3L38.5,5
			c0,0.1-0.3-0.1-0.4,0.1c0,0,0,0,0-0.1c-0.1,0.2-0.6-0.1-0.3,0.4l0,0.2c0.1-0.1,0.1,0.2,0.2,0.2c0,0.1-0.2,0-0.2-0.1l0,0
			c-0.2-0.2-0.2,0-0.3-0.1C37.3,5.9,37,6,36.8,6.2L37,6.4l-0.1,0.1c-0.1,0-0.2-0.1-0.1-0.1c-0.1,0,0,0.2,0,0.2
			c-0.1,0.1-0.2-0.2-0.2-0.2l0,0.1l0,0c0.1,0.1,0.1,0.1,0.1,0.2c-0.1,0-0.1,0-0.1,0c0,0,0,0,0,0l-0.1,0.1l0.2,0
			c0,0.1-0.1,0.1,0.1,0.1c-0.3-0.1-0.3,0.4-0.4,0.4c0.1,0.1,0.1,0.2,0,0.3c0,0,0.2,0,0.2,0.1c-0.4-0.1-0.2,0.1-0.5,0.1
			c0.2,0,0,0.2,0.3,0.2c0,0.1-0.1,0-0.3,0C36.2,8.1,36,8.3,36,8.5c0.1,0,0.1,0,0.2,0L36,8.6c0,0,0.3,0.1,0.1,0.1c0,0,0.1,0,0.1,0
			c-0.3,0.4,0.2,0.8-0.3,1.2c0.1-0.1,0.1,0,0.1,0c0,0,0.1,0,0.2,0l-0.2,0.2c0.2,0,0,0.2,0.2,0.2l0,0c0.2,0,0.5-0.2,0.8-0.2
			c-0.3,0,0.4-0.2,0-0.3c0.1,0,0.1,0,0.2,0c-0.1,0-0.2,0-0.1-0.1l0,0c0-0.2,0.1-0.3,0.1-0.4l-0.1,0c0,0,0.1,0,0.1-0.1
			c-0.2,0,0,0.1-0.3,0.1c0.3-0.1,0-0.3,0.4-0.3c0-0.1-0.2,0-0.2-0.1l0.1,0l-0.1,0c0,0,0.1,0,0.2,0c0,0,0,0,0,0c0.1,0,0-0.1,0-0.2
			l-0.1,0.1c-0.1-0.2,0-0.4-0.1-0.5l-0.1,0C37.1,8,37.3,8,37.2,7.9l0,0c-0.1,0-0.1-0.1-0.1-0.1c0.1,0.1,0.2,0,0.2,0.1
			c-0.1-0.2-0.1-0.1-0.3-0.3l0.1,0c-0.1-0.1-0.1-0.1-0.1-0.2c0.1,0.1,0.2,0,0.3,0.1c0.3,0-0.1-0.3,0.2-0.2c-0.2-0.2-0.2,0-0.2,0
			c-0.1,0-0.2-0.1-0.1-0.2c0,0,0.4,0.1,0.4,0c0,0,0,0,0,0c0.1,0-0.1-0.1,0.1-0.1c-0.1-0.1,0-0.1-0.2-0.2l0,0.1c0-0.1-0.2-0.3,0-0.3
			c0,0,0.1,0.1,0.1,0.1c0.1,0,0-0.1,0.1,0C37.9,7,37.6,7,37.8,7.1c0.1,0-0.1-0.2,0.1,0c-0.2-0.2,0.1-0.1-0.1-0.3l0.1,0.1
			c0,0,0-0.1,0-0.1L38,7c-0.1-0.1,0.2,0,0.1-0.1C38.1,7,38,6.8,37.9,6.8c0-0.2,0.3,0.2,0.4,0c0,0-0.1,0-0.1-0.1c0,0,0.1,0,0.2,0
			c0.1-0.1-0.1-0.1-0.1-0.2c0.1,0.1,0-0.1,0-0.2l0.1,0.1c0.2,0-0.2-0.2,0-0.2l0.1,0.2l0-0.1l0.1,0.1c0-0.1,0-0.1,0.1-0.1
			c-0.1-0.1-0.2-0.2-0.1-0.3c0.1,0,0.1,0.1,0.1,0.1c0,0.1,0.1,0.2,0,0.1l0.1,0.1c0.1,0.1,0.1,0,0.1-0.1c0,0,0,0,0,0c0,0,0-0.2,0-0.2
			c0,0,0.1,0.1,0.1,0.1c0,0,0-0.1,0-0.1c0.1,0.1,0.1,0.2,0.1,0.3l0-0.2c0,0,0.1,0.1,0.1,0.1c0.1,0,0-0.3,0.1-0.2c0,0,0,0,0-0.1
			c0.1,0,0.2,0.1,0.2-0.1l0.1,0.2c0-0.1-0.2-0.2-0.1-0.3c0.1-0.1,0.1,0.2,0.1,0.2C39.5,6,39.5,5.7,39.6,5.9
			C39.6,5.9,39.6,5.9,39.6,5.9z M40.4,5.6C40.4,5.6,40.4,5.7,40.4,5.6C40.3,5.4,40.4,5.5,40.4,5.6z M41.8,5
			C41.8,5.1,41.8,5.1,41.8,5C41.7,5,41.8,5,41.8,5z M43.6,3.9C43.6,3.9,43.6,3.9,43.6,3.9C43.5,3.9,43.5,3.9,43.6,3.9z M43.6,4
			l-0.1,0C43.6,3.9,43.6,4,43.6,4C43.7,4,43.7,4,43.6,4z M36.7,6.6L36.7,6.6C36.7,6.7,36.7,6.6,36.7,6.6z"/>
		<path fill="#E52F2C" d="M41.6,5.2C41.6,5.2,41.6,5.2,41.6,5.2C41.6,5.2,41.6,5.2,41.6,5.2z"/>
		<polygon fill="#E52F2C" points="39.1,6.2 39.1,6.2 39.1,6.2 		"/>
		<path fill="#E52F2C" d="M46.1,6c-0.1,0-0.2-0.1-0.2-0.1C45.9,5.9,46,6,46.1,6z"/>
		<path fill="#E52F2C" d="M43.2,3.7L43.2,3.7c0,0,0.1,0,0.1,0C43.2,3.7,43.2,3.7,43.2,3.7z"/>
		<path fill="#E52F2C" d="M44.2,3.6C44.2,3.6,44.2,3.6,44.2,3.6l-0.1,0C44.1,3.6,44.2,3.6,44.2,3.6z"/>
		<path fill="#E52F2C" d="M43.8,3.8C44,3.9,43.9,3.8,43.8,3.8L43.8,3.8C43.7,3.8,43.8,3.8,43.8,3.8z"/>
		<path fill="#E52F2C" d="M43.9,3.8C43.9,3.8,43.9,3.8,43.9,3.8C43.8,3.8,43.9,3.8,43.9,3.8z"/>
		<path fill="#E52F2C" d="M43.5,3.9c0,0-0.3-0.1-0.2-0.1C43,3.7,43.6,3.9,43.5,3.9z"/>
		<polygon fill="#E52F2C" points="44.4,3.9 44.2,3.9 44.4,4 		"/>
		<path fill="#E52F2C" d="M44.4,4.2L44.4,4.2C44.4,4.1,44.4,4.1,44.4,4.2C44.4,4.1,44.3,4.1,44.4,4.2z"/>
		<path fill="#E52F2C" d="M44.4,4.1C44.3,4.1,44.3,4.1,44.4,4.1C44.3,4,44.3,4.1,44.4,4.1z"/>
		<polygon fill="#E52F2C" points="44.5,4 44.5,4 44.5,4.1 		"/>
		<path fill="#E52F2C" d="M44.7,4.6l0.1,0.1c0.1,0.1,0.2,0.1,0.1,0C44.8,4.7,44.8,4.7,44.7,4.6z"/>
		<path fill="#E52F2C" d="M45.3,4.9c0,0-0.1,0-0.2-0.1L45.5,5L45.3,4.9z"/>
		<path fill="#E52F2C" d="M45.6,5.1c0.1,0.1,0.4,0.3,0.3,0.2C45.7,5.2,45.6,5.1,45.6,5.1z"/>
		<polygon fill="#E52F2C" points="44.8,5.1 44.8,5.1 44.2,4.7 		"/>
		<path fill="#E52F2C" d="M44.4,5.8C44.7,5.9,44.3,5.6,44.4,5.8c0.1-0.2-0.1-0.2-0.1-0.3C44.3,5.6,44.2,5.5,44.4,5.8z"/>
		<path fill="#E52F2C" d="M44.3,5.5C44.3,5.5,44.3,5.5,44.3,5.5C44.3,5.5,44.3,5.5,44.3,5.5z"/>
		<polygon fill="#E52F2C" points="35.9,10.2 35.9,10.3 36,10.2 		"/>
		<path fill="#E52F2C" d="M36.2,10.3l-0.2,0L36.2,10.3C36.1,10.3,36.1,10.3,36.2,10.3z"/>
		<path fill="#E52F2C" d="M40.6,5.9L40.6,5.9C40.6,5.8,40.6,5.8,40.6,5.9L40.6,5.9z"/>
		<polygon fill="#E52F2C" points="40,5.9 40,5.9 39.9,5.8 		"/>
		<path fill="#E52F2C" d="M39.6,6.3C39.6,6.3,39.6,6.3,39.6,6.3C39.6,6.3,39.5,6.1,39.6,6.3z"/>
	</g>
	<g>
		<path fill-rule="evenodd" clip-rule="evenodd" fill="#E21B17" d="M41.4,17.8c7.9-4.5,4.2-12.9,17.9-11.7C54,4.3,48.5,4,44.4,7.3
			c-5.3,4.8-9.4,3.2-10-0.4C33.5,0.7,40.6,1,43,1.8c0,0-4.9-2.2-10.3-0.7c-4.5,1.2-9.2,5.2-11,6.6c1.1-0.3,2-0.8,3.2-0.9
			c1.3-0.1,2.6,0.1,3.7,0.8c1,0.6,1.8,1.7,2.5,2.6c0.7,1,1.4,2.1,2.3,3c0.7,0.7,2,1,2.9,1.2c1,0.2,2.2-0.1,3-0.7
			c0.1,0.5,0,1.1-0.2,1.6c-0.1,0.3-0.3,0.5-0.5,0.7c-0.3,0.2-0.6,0.3-0.9,0.3c-0.9,0.2-1.7,0.4-2.6,0.5c-0.8,0.2-1.9,0.2-2.6,0.5
			c-0.9,0.5-0.8,2.4-0.8,3.3C35.9,19.7,38.3,19.6,41.4,17.8z"/>
		<g>
			<path fill="#E52F2C" d="M40.9,17.2c0.2-0.1,0-0.2,0.1-0.2C40.7,17.2,41,17.2,40.9,17.2z"/>
			<polygon fill="#E52F2C" points="38.3,18.7 38.3,18.7 37.9,18.9 			"/>
			<path fill="#E52F2C" d="M35.4,19.4c0.3,0.2,1-0.3,1.6-0.3l0.1,0l0.2-0.2C36.7,19.1,35.9,19.4,35.4,19.4z"/>
			<path fill="#E52F2C" d="M33.8,19.3c0.1,0.1-0.3,0.1,0.4,0c0,0,0,0-0.1,0C34,19.2,33.9,19.3,33.8,19.3z"/>
			<path fill="#E52F2C" d="M34.1,19.2C34.4,19.2,33.9,19.2,34.1,19.2L34.1,19.2z"/>
			<path fill="#E52F2C" d="M32.9,19.5c0,0,0.1-0.1,0.2-0.1c-0.1,0-0.2,0-0.1-0.1C32.8,19.4,32.8,19.5,32.9,19.5z"/>
			<path fill="#E52F2C" d="M32.7,19.7l0.1-0.1C32.8,19.7,32.8,19.7,32.7,19.7z"/>
			<path fill="#E52F2C" d="M33,19.6l-0.2,0.1C32.8,19.7,32.8,19.8,33,19.6C32.9,19.7,32.9,19.6,33,19.6z"/>
			<path fill="#E52F2C" d="M33.2,19.6c0.2,0,0.5,0,0.1,0.1C34.1,19.5,34,19.4,33.2,19.6z"/>
			<path fill="#E52F2C" d="M35.3,19.7l0.3,0l0.2-0.1C35.8,19.6,35.3,19.6,35.3,19.7z"/>
			<path fill="#E52F2C" d="M32.7,19.2c0,0-0.1,0-0.2,0.1l0.1,0.1C32.6,19.3,32.6,19.2,32.7,19.2z"/>
			<path fill="#E52F2C" d="M32.5,19.3c0,0-0.1-0.2-0.1-0.2C32.4,19.4,32.4,19.3,32.5,19.3z"/>
			<path fill="#E52F2C" d="M32.6,20c0,0,0.5-0.3,0.4-0.3C33,19.7,32.5,20,32.6,20L32.6,20z"/>
			<path fill="#E52F2C" d="M32.9,18.3c0,0,0.1,0.1,0.1,0.1C33,18.4,32.9,18.2,32.9,18.3L32.9,18.3z"/>
			<path fill="#E52F2C" d="M33.4,18.1c-0.1,0.1,0.2,0.1,0.1,0.2c0.2-0.1,0.5-0.2,0.7-0.3C34,18,33.7,18.1,33.4,18.1z"/>
			<path fill="#E52F2C" d="M34.6,17.8c-0.1,0-0.3,0.1-0.4,0.1C34.3,17.9,34.5,17.9,34.6,17.8z"/>
			<path fill="#E52F2C" d="M32.6,18.5c0,0,0.1-0.1,0.2-0.2c0,0-0.2,0-0.2,0C32.6,18.4,32.6,18.4,32.6,18.5z"/>
			<path fill="#E52F2C" d="M32.6,18.3L32.6,18.3c0.1-0.1,0.1-0.2,0.1-0.2C32.7,18.2,32.7,18.2,32.6,18.3z"/>
			<path fill="#E52F2C" d="M32.6,18.5L32.6,18.5C32.5,18.5,32.5,18.5,32.6,18.5z"/>
			<path fill="#E52F2C" d="M32.3,19.7c-0.1-0.1-0.1-0.4-0.3,0C32.1,19.8,32.2,19.6,32.3,19.7z"/>
			<path fill="#E52F2C" d="M32.4,18.6c0,0-0.1,0.4-0.1,0.4c0,0,0.1-0.1,0.1,0c0,0,0-0.1,0-0.2C32.3,18.7,32.4,18.6,32.4,18.6z"/>
			<polygon fill="#E52F2C" points="32.4,18.4 32.4,18.6 32.4,18.5 			"/>
			<path fill="#E52F2C" d="M33.8,17.8c0.2-0.1,0.4-0.1,0.7-0.2c-0.3,0-0.6,0-0.8,0.1C33.6,17.8,33.5,17.9,33.8,17.8z"/>
			<path fill="#E52F2C" d="M32.9,18L32.9,18C32.9,18,32.9,18,32.9,18z"/>
			<path fill="#E52F2C" d="M37.5,17.1C37.4,17.1,37.4,17.1,37.5,17.1L37.5,17.1L37.5,17.1z"/>
			<path fill="#E52F2C" d="M33.6,17.7c-0.2,0-0.3,0.1-0.4,0.1C33.3,17.8,33.5,17.8,33.6,17.7C33.6,17.7,33.6,17.7,33.6,17.7z"/>
			<path fill="#E52F2C" d="M35.3,17.6c-0.1,0-0.3,0-0.4,0C35,17.7,35.3,17.7,35.3,17.6z"/>
			<path fill="#E52F2C" d="M33,18L33,18C33.1,18,33,18,33,18z"/>
			<path fill="#E52F2C" d="M33,18c0.1,0,0.1-0.1,0.2-0.1C33.1,17.9,33,17.9,33,18C33,18,33,18,33,18z"/>
			<path fill="#E52F2C" d="M37.4,16.2c0.2,0.1-0.3,0.3-0.9,0.3c-0.4,0.2,0,0.5,0.8,0.5c0-0.1,0-0.1,0.5-0.3c-0.1,0-0.5,0.1-0.8,0.1
				c-0.3,0-0.5,0-0.3-0.1c0.7-0.2,0.7-0.1,1.1-0.2c-0.5,0,0.6-0.4,0-0.4c0,0-0.4,0.2-0.4,0.2C37.5,16.3,37.6,16.2,37.4,16.2z"/>
			<path fill="#E52F2C" d="M36,17.3l-0.2,0.1c0.1,0,0.2,0,0.3,0c0.2,0,0.4,0,0.6,0c0.5-0.2,0.6-0.2,0.6-0.3L36,17.3L36,17.3z"/>
			<path fill="#E52F2C" d="M34.9,17.6c0.2-0.2,0.6-0.3,0.3-0.4c-0.6,0.1-0.4,0.2-0.7,0.3C35.5,17.3,34.2,17.6,34.9,17.6
				c-0.2,0-0.4,0.1-0.5,0.1C34.6,17.7,34.8,17.7,34.9,17.6L34.9,17.6L34.9,17.6L34.9,17.6C34.9,17.6,34.8,17.6,34.9,17.6
				C34.9,17.6,34.9,17.6,34.9,17.6C34.9,17.6,34.9,17.6,34.9,17.6C35.2,17.5,35,17.6,34.9,17.6C34.9,17.6,34.9,17.6,34.9,17.6
				L34.9,17.6c-0.1,0.1,0.2,0,0.4-0.1c0.2-0.1,0.5-0.1,0.5-0.1C35.6,17.4,35.4,17.5,34.9,17.6z"/>
			<path fill="#E52F2C" d="M31.7,19.4C31.7,19.4,31.8,19.4,31.7,19.4C31.7,19.3,31.7,19.3,31.7,19.4z"/>
			<path fill="#E52F2C" d="M31.8,19c0,0.1,0.1,0.1,0,0.3c0,0.2-0.1,0-0.1,0c0,0.1,0.1,0.4,0.2,0l0-0.1c0.1-0.3,0.3-0.8,0.3-0.7
				C32.1,18.7,32,18.8,31.8,19z"/>
			<path fill="#E52F2C" d="M32.9,17.6c0,0,0.7-0.2,0.7-0.2l-0.4,0l0,0.1C32.8,17.5,32.9,17.6,32.9,17.6z"/>
			<path fill="#E52F2C" d="M37.7,17.1l-0.1,0.1c0,0,0.6-0.3,0.5-0.3C38.1,16.9,37.7,17.1,37.7,17.1z"/>
			<polygon fill="#E52F2C" points="38.9,16.6 39,16.7 39.2,16.5 			"/>
			<path fill="#E52F2C" d="M35.3,4.4c0,0,0,0.2,0,0.2C35.3,4.5,35.3,4.4,35.3,4.4z"/>
			<path fill="#E52F2C" d="M36.1,3.3L36.1,3.3C36.1,3.3,36.1,3.3,36.1,3.3z"/>
			<path fill="#E52F2C" d="M22.5,7.9c0.3-0.1,0.7-0.2,0.6-0.3l-0.2,0C22.8,7.8,22.7,7.9,22.5,7.9z"/>
			<path fill="#E52F2C" d="M37.3,0.6L37.3,0.6c-0.2,0-0.3,0-0.3,0.1C37,0.7,37.1,0.6,37.3,0.6z"/>
			<path fill="#E52F2C" d="M37.5,0.1L38,0.2C37.9,0.2,37.7,0.1,37.5,0.1z"/>
			<path fill="#E52F2C" d="M38.7,9.4L39,9.3C38.6,9.3,38.8,9.4,38.7,9.4z"/>
			<path fill="#E52F2C" d="M33.4,12.2c-0.1-0.2-0.3-0.4-0.4-0.6C33.1,12,33.2,12.2,33.4,12.2z"/>
			<path fill="#E52F2C" d="M34.4,3.2c-0.1,0.2-0.1,0.2,0,0.2C34.4,3.2,34.5,3.1,34.4,3.2z"/>
			<path fill="#E52F2C" d="M32.5,11c0,0.1,0,0.1,0.1,0.1c0.1,0.2,0.3,0.3,0.4,0.5C32.9,11.4,32.8,11.2,32.5,11z"/>
			<path fill="#E52F2C" d="M49.8,9L49.8,9C49.8,9.1,49.8,9,49.8,9z"/>
			<path fill="#E52F2C" d="M43.3,15.7c0.1-0.1,0.2-0.2,0.3-0.3C43.5,15.5,43.4,15.6,43.3,15.7z"/>
			<path fill="#E52F2C" d="M39.8,13.5C39.9,13.5,39.9,13.5,39.8,13.5L39.8,13.5z"/>
			<path fill="#E52F2C" d="M39.6,13.8C39.6,13.7,39.6,13.7,39.6,13.8C39.6,13.7,39.6,13.7,39.6,13.8z"/>
			<path fill="#E52F2C" d="M30.6,9.7L30.6,9.7C30.6,9.8,30.6,9.8,30.6,9.7z"/>
			<path fill="#E52F2C" d="M39.8,13.5C39.8,13.5,39.8,13.5,39.8,13.5C39.8,13.5,39.8,13.5,39.8,13.5z"/>
			<path fill="#E52F2C" d="M39.9,13.5C39.9,13.5,39.9,13.5,39.9,13.5C40,13.4,40,13.4,39.9,13.5z"/>
			<path fill="#E52F2C" d="M39.7,13.5C39.8,13.5,39.8,13.5,39.7,13.5c0.1,0,0.1,0,0.1,0C39.8,13.5,39.8,13.5,39.7,13.5z"/>
			<path fill="#E52F2C" d="M52.7,4.4C52.7,4.4,52.7,4.4,52.7,4.4C52.9,4.4,52.8,4.4,52.7,4.4z"/>
			<polygon fill="#E52F2C" points="26.2,3.5 26.2,3.6 26.3,3.5 			"/>
			<path fill="#E52F2C" d="M26.9,3c-0.2,0.3-0.4,0.4-0.6,0.5l0.4,0.2L26.9,3z"/>
			<path fill="#E52F2C" d="M35.4,7.7c0,0-0.1-0.4,0-0.5c0.3,0.4,0.4,0.8,0.4,0.4c-0.2,0.1-0.4-0.3-0.5-0.7c-0.1-0.4-0.1-0.9-0.3-0.9
				c0,0,0.1-0.3,0.1-0.3c0,0.1,0,0.1,0,0.2c0.1-0.3,0.1-0.4,0-0.5c-0.1-0.1-0.2-0.3,0-0.7c0.1-0.3,0.2-0.4,0.2-0.2l0.2-0.5
				c0.1-0.1,0.1-0.1,0,0.1c0,0,0.5-0.7,0.5-0.7l0,0c0.1-0.1,0.2-0.4,0.3-0.5c0.2-0.1-0.1,0.1,0,0.1l0.4-0.3c0.2,0-0.1,0.3-0.4,0.4
				c0.6,0.1,0.3-0.3,1.4-0.5c0,0-0.4,0.2-0.4,0.2c0.4,0.1,0.7-0.1,1.2,0c-0.1-0.1-1.1-0.1-0.6-0.3c0.2,0,0.4-0.1,0.7-0.2
				c0,0.1,0.3,0,0.7,0l0,0.2c0.4-0.1,0.4-0.2,0.6-0.3c0.5,0,0.6,0.2,0.7,0.3c0.7,0.1-0.5-0.3,0.4-0.2c0.6,0.1,1.1,0.1,1.8,0.2
				l0.4-1.1l0,0c-0.5-0.3,0.1-0.1,0-0.2l-0.5,0c-0.1,0-0.1-0.1,0-0.1c-0.4-0.1-0.1,0.2-0.6,0c-0.2,0.1-1-0.6-1.8-0.5
				c-0.2-0.1,0.1-0.1,0.1-0.2c-1,0-0.8,0-1.7,0.1c0,0-0.2-0.1-0.3-0.1c-0.2,0-0.3-0.1-0.3-0.1c0.5,0.2-0.2,0.3-0.7,0.4
				c0.2,0.1,0.3,0.1,0.4,0.2c0,0-0.2,0-0.4,0c-0.2,0-0.4,0-0.4,0c-0.1,0,0-0.1,0.1-0.2c-0.1,0-0.1,0-0.2,0c-0.3-0.1-0.1-0.2,0.1-0.3
				c0.1,0,0.2,0.1,0.3,0.1c0.2-0.1,0.4-0.2,0.4-0.3c-0.1,0-0.2,0-0.3,0c0.1,0,0.1-0.1,0.1-0.1c0,0-0.1,0-0.3,0.1L36.9,0l-0.1,0.1
				c0,0-0.3,0-0.6-0.1c-0.3,0-0.6,0-0.6,0c-0.8,0.3-1.5,0.6-2.7,1c0.3-0.2,0-0.3,0-0.4c0.4,0.1,1-0.3,1.7-0.4
				c-0.4,0-0.3-0.1-0.2-0.1c0,0-0.3,0.1-0.6,0.2c-0.3,0.1-0.6,0.2-0.6,0.2c0-0.2-0.3-0.1-0.6,0c0.3,0.2-0.8,0.4-1.3,0.7
				c-0.1-0.1,0-0.2,0.6-0.4c-0.7,0-0.7,0.6-1.4,0.7c0.1-0.1,0.2-0.1,0.2-0.1c-0.3,0.2-1.1,0.5-0.9,0.3L30,1.6
				c-0.9,0.4-2.6,1.4-2.6,1.7c0,0-0.1-0.3,0-0.4c0,0-0.3,0.4-0.5,0.8c-0.2,0.4-0.5,0.8-0.5,0.8c0-0.3-0.8-0.4-0.2-0.9
				c-0.2,0.1-0.5,0.2-0.8,0.6c0.1-0.1,0.5,0,0.3,0.2c-0.6,0.1-0.4,0.1-1.1,0.4c0.2-0.1,0.2,0.3-0.1,0.5c0-0.1-0.2-0.3-0.1-0.4
				l-0.5,0.8c0.1-0.2-0.1-0.3-0.4-0.2c0.1,0-0.6,0.5-0.8,0.7L23,5.9c-0.8,0.6-0.5,1-1.3,1.6c0.1-0.1,0-0.5-0.4-0.3l0.5,0.9
				c0,0,0,0,0,0C22,8,22.6,7.1,23.4,6.7l0.2,0c0,0,0.2-0.1,0.3-0.1c0.2-0.1,0.4-0.1,0.4-0.1c-0.5,0.3-1.3,1.2-2,1.7
				C22.7,8.1,22.5,8.2,23,8c0.2,0-0.3,0.2-0.4,0.3c0,0,1.3-0.4,1.3-0.4c-0.1-0.2,0.8-0.4,0.8-0.5c0,0-0.3,0.1-0.6,0.2
				c-0.3,0.1-0.6,0.3-0.6,0.3C23.3,7.8,24,7.1,24.9,7c0.2,0.1-0.2,0.4-0.1,0.4c0.1-0.1,0.8-0.2,0.9-0.1l-0.4,0.1
				c0.5,0.1,0.8-0.3,1.4,0c0.2,0,0.5,0.4,0.6,0.3c-0.2-0.3-0.1-1,0.2-1.1c0.1,0,1.1,0.6,1.2,0.9C28.8,7.9,28,7.7,28.1,8
				c0,0,0.2,0,0.3,0c0.1,0.2-0.2,0.1,0.2,0.3c0.2-0.1,0.7,0.6,0.3,0c0.4,0.3,0.3,0.4,0.7,0.8c0-0.2,0.7,0.1,1,0.5
				c-0.1,0,0,0.1,0,0.2c0.6,0.8,0.8,1.3,1.4,2.1c0,0.1,0.2,0.5,0,0.4c0.1,0.1,0.2,0.1,0.4,0.4c0.2,0.6-0.4-0.5-0.3,0
				c0.1,0,0.6,0.5,1,0.8c0-0.2-0.6-0.7-0.9-1c0.2-0.2,0.8,0.3,1.6,0.8c0.6,0.3,0.2,0.3,0.3,0.3c0.6,0.3,0.9,0.3,1.2,0.3
				c0.1,0,0.3,0,0.4,0c0.1,0,0.2,0,0.3,0.1c0.1,0,0.3,0.1,0.5,0.1c0.3,0.1,0.3,0.2,0.2,0.3c-0.1,0.1-0.2,0.1-0.2,0.2
				c-0.7-0.1-0.9-0.3-1.4-0.4l0.5,0.2c-0.2,0-0.6-0.1-0.8-0.2c0.2,0.1,0.8,0.3,1.5,0.5c0.7,0.2,1.5,0.1,1.8,0
				c0.3-0.1,0.8-0.3,0.7-0.3l-0.4,0.1c0,0,0.9-0.3,0.6-0.3c0.2-0.1,0.5-0.2,0.7-0.4l0.1-0.1c0,0.1,0,0.2,0.1,0.2c0,0.2,0,0.3,0,0.5
				l-0.2,0.2c0.1,0,0.1-0.5,0-0.7c0.1,0.1,0,0.4,0,0.7c-0.1,0.3-0.2,0.6-0.1,0.7c0,0,0.3-0.5,0.3-0.5c0,0.5,0,1.2-0.6,1.6
				c0.4-0.2,0.1-0.1,0.6-0.4c-0.3,0.2,0-0.2,0.1-0.6c0.1-0.4,0.2-0.8,0-0.4c0.2-0.3,0.2-0.5,0.2-0.7c0-0.1,0-0.2,0-0.4
				c0-0.1,0-0.1,0-0.2c0,0,0-0.1,0-0.1c0,0,0,0,0,0c-0.1,0-0.1,0-0.2,0.1c0,0-0.1,0-0.1,0.1l0,0l0,0c0,0,0,0,0,0c0,0,0,0,0,0
				c-0.2,0.2-0.7,0.3-1,0.4c-0.1-0.1,0.2-0.1,0.3-0.2c0,0-0.5,0-0.5,0c0.1-0.1,0.2-0.3,0.2-0.6c0.1-0.2,0.2-0.3,0.5,0c0,0,0,0,0-0.1
				c0,0,0-0.1-0.1-0.1l0-0.1l0,0c0,0,0,0-0.1,0c-0.2,0.1-0.5,0.2-0.7,0.4c-0.2,0.1-0.5,0.3-0.5,0.3c-0.2,0.1-0.3,0.1-0.3,0.1
				c-0.5,0.2-0.8,0.1-1.2,0c-0.1,0-0.2,0-0.4-0.1c-0.1,0-0.2,0-0.2,0c-0.3-0.1-0.7,0-0.4-0.1c0,0-0.9-0.2-0.8-0.2l0,0
				c-0.4-0.2-0.6-0.3-1-0.7c-0.3-0.3-0.7-0.8-0.9-1.3c-0.2-0.2-0.4-0.5-0.7-1l0-0.2c-0.3-0.3-0.7-1.1-0.9-1.2c0-0.3-0.4-0.7-0.8-1.2
				c-0.5-0.4-1-0.8-1.4-1l-0.1,0.1c-0.5-0.3-1.1-0.4-1.8-0.5l0,0.1c-0.6,0-1.5-0.3-2.5-0.1c0.1-0.1,0.3-0.1,0.5-0.1
				c-0.6-0.1-1.2,0.1-1.7,0.3c-0.5,0.2-1,0.5-1.4,0.5c-0.1,0.1-0.2,0.1-0.3,0.1L22,8.2c0.1,0,0.1-0.1,0.2-0.1c0,0,0,0,0,0
				c0,0,0,0,0.1-0.1c0.1,0,0.2-0.1,0.3-0.1c-0.1,0-0.2,0.1-0.3,0.1c0.1-0.1,0.3-0.3,0.5-0.5l0.2,0c0,0,0,0,0,0
				c0.2-0.1,0.1-0.2-0.1-0.2c0.1-0.1,0.2-0.2,0.2-0.3c0.3,0.1,0.5-0.5,0.9-0.5c0.1-0.2,1-0.9,1-1.2c0,0,0.1,0,0,0.1
				c0.3-0.1,0.5-0.3,0.7-0.5L26,5.1l0.4-0.6c0.4-0.1,0.6-0.2,0.3,0.2c0.7-0.7,0.6-0.5,1.2-1.1l0,0.1c0.2-0.1,0.6-0.5,0.8-0.5
				c0.6-0.1,2.8-1.5,4.4-1.6c-0.4-0.3,0.8,0,0.8-0.3c0.1,0.1,0.3,0.1,0.1,0.2c0.8-0.2,1.2,0,1.8-0.3c0.1,0.1-0.2,0.1-0.1,0.2
				c0.1,0,0.3-0.1,0.3,0c0.1,0-0.1,0.1-0.2,0.1c0.8,0,0.9-0.3,1-0.5c0.4,0.1,0.6,0.1,1,0C37.7,1,38,1.1,37.4,1.1
				c0.3,0,1.8,0.3,1.8,0.1c0.1,0.1,0.4,0.1,0.5,0.1c0.6,0.2,0.7,0.2,1.3,0.3l-0.2-0.1c0.3-0.2,0.5,0.1,1,0.2l0,0
				c0.7,0.3,0.7,0.3,0.9,0.4l0.3-0.6c-0.1,0-0.3-0.1-0.8-0.3l0,0.2c-0.2,0.3-1.1-0.4-1.8-0.3l0.3,0.1c-0.4,0.1-1.1-0.5-1.5-0.5
				c-0.1,0,0.1-0.1,0.3-0.1c-1.1-0.1-0.1,0.2-0.9,0.3c-0.2-0.1,0.2-0.3-0.4-0.2c-0.1,0-0.5,0.2-1,0.3c-0.4,0.2-0.9,0.4-1.3,0.6
				c0.2,0,0.4,0,0.1,0.2c-0.3,0.1-0.6,0.4-1,0.6c-0.3,0.3-0.6,0.6-0.6,0.9c-0.1,0.1-0.1,0.1-0.1,0.1c-0.1,0.2-0.3,0.6-0.3,0.9
				c0,0.2-0.1,0.3-0.1,0.5c0,0.1,0,0.3,0,0.3c-0.1,0.1-0.2,0.3-0.2,0.6c0,0.3,0.1,0.6,0.1,0.9c0.1,0.6,0.4,1.2,0.2,1.2
				c0,0,0.1,0.3,0.3,0.7c0.2,0.3,0.4,0.6,0.4,0.6l-0.1,0c0.1,0.2,0.3,0.3,0.4,0.5c0.1,0.1,0.2,0.2,0.3,0.3C35.6,10,35.8,10,36,10
				c0.2,0.1,0,0.1,0,0.1c0.3,0.2,0.5,0.3,0.7,0.4c0.2,0.1,0.4,0.1,0.5,0.2c0.3,0.1,0.7,0,1.2-0.1l0.1,0.1c0.1-0.1,0.6,0,1.2-0.1
				c0.6-0.1,1.3-0.3,1.8-0.6c0,0,0,0.1-0.1,0.1c1.2-0.7,3-1.4,3-2.2c0,0,0.1-0.2,0.3-0.3C44.8,7.5,45,7.4,45,7.4
				c-0.9,0.6,0-0.3-0.4-0.1c0.3-0.3,1-0.5,0.6-0.2l-0.1,0c0,0.3,1.2-0.7,1.3-0.5c1.9-1,3.9-1.3,5.9-1.2L52,5.2c0,0,0.2,0,0.3,0
				c0.2,0,0.3,0,0.3,0c0.2,0.1,0.2,0.2-0.3,0.2c0.3,0.1,0.8-0.1,0.8-0.1c1,0.2-0.4,0.2-0.1,0.3l0.4,0l-0.1,0c0.3-0.1,0.4-0.2,1-0.1
				c0.4,0.1,0.2,0.2,0.3,0.2c0,0,0,0,0.2,0c0,0,0.2,0,0.4,0.1c0.2,0,0.4,0.1,0.4,0.1l-0.3-0.2c0.4,0,0.8,0.2,0.5-0.1
				c0.5,0.3,2.5,0.8,3.3,1.1l0.2-0.9c-0.1,0-0.2,0-0.3,0c-0.6,0.1-1.1,0.1-1.8,0c0.2,0,0.3,0.2-0.3,0.2c0.2-0.4-1.1-0.1-1.6-0.4
				c0.2,0.1-0.2,0.1-0.6,0.2c-0.4,0.1-0.8,0.2-0.4,0.3c-0.5,0-0.1-0.1-0.4-0.2c-1.2,0.3-2.7,0.5-4,1.5c0,0.1,0.3,0,0,0.2
				c0,0-0.2,0.1-0.4,0.1c-0.1,0-0.2,0.1-0.3,0.1c-0.1,0-0.1,0.1-0.1,0.1c-0.2,0.2,0,0.4-0.5,0.7c0.1,0,0.2-0.1,0.1,0.1
				c-1.1,1-1.8,2.4-2.5,3.6c-0.7,1.2-1.5,2.5-2.7,3.2c0.3-0.2,0.2,0,0,0.2c0.1-0.1,0.1,0.1,0.2,0.1c0,0-1,0.6-1,0.6
				c0,0.3-1,0.7-1,0.9l0.3-0.2c-0.3,0.5,0.9,0,1,0.3c0.3-0.6,1.5-0.7,1.8-1.7c0.2-0.1-0.1,0.2,0.1,0.2c0.1-0.3,0.3-0.5,0.6-0.9
				l0,0.1c0.9-1.2,1.3-1.8,2.2-3.1l-0.2,0c0.2-0.3,0.3-0.3,0.4-0.5c0-0.5-0.5,0.8-0.5,0.4c0.5-0.3,1.3-2.1,1.8-2.1
				c0.3-0.4-0.2,0,0.1-0.4l0.2,0l0-0.2C49.8,8.8,50,8.7,50,8.8C50,8.8,49.9,8.9,49.8,9c0.3-0.3,0.9-0.8,1-0.9l-0.4,0.2
				c1-0.9,2.7-1.4,4.1-1.7l-0.1,0c0.5-0.2,0.7-0.2,1-0.1c0.2,0,0.5,0,1.1,0l0,0c0.2-0.1,0.6-0.1,0.9-0.1c-0.3,0.1,0.6,0.2,0.2,0.2
				c1.2-0.1,0.6-0.1,1.4-0.3L59,6.5c0.1,0,0.2-0.1,0.3-0.1l0.1-0.6c-0.1,0-0.3,0-0.6-0.1c0.5,0.1-0.3-0.3,0.3-0.2
				c-1.2-0.6-1.9-0.3-2.4-0.8c-0.6,0.2,1.1,0.4,0.7,0.4c0.2,0.2-0.5,0.1-0.9,0c-0.4-0.1-0.6-0.5-1.7-0.7c0.1,0,0.1,0,0.2,0
				c-0.4-0.1-0.8,0-1.2-0.2c-0.3,0.2-0.6-0.1-0.7,0.2c0,0,0.2,0,0.5,0c0.2,0,0.5,0,0.5,0c-0.6,0-1.1,0.2-2,0.1
				c0.1-0.1,0.3-0.1,0.5-0.1c-0.3-0.1-0.5,0-0.8,0c0.1-0.2,1.2-0.1,1.8-0.2c-0.3-0.1-1.1,0.1-0.8-0.1c-0.4,0.3-1.1-0.1-1.8,0.2
				l0-0.1c-0.1,0-0.3,0.1-0.6,0.1l0.4-0.2c-0.6,0.2-1.2,0-1.7,0.2C50.4,4,49.5,4.4,50,4.4c-0.7,0.2-0.9,0.2-1.2,0.1
				c-0.3-0.1-0.5-0.1-1.3,0.2c0.2-0.1,0.8-0.2,0.5,0c-0.3,0.1-0.7,0.1-0.9,0.2c-1,0.4,0.2,0.1-0.2,0.3c-0.4,0-0.5,0.3-0.9,0.5
				L46,5.6c-1.1,0.5-0.1,0.4-1.1,0.9c0,0,0.3-0.4,0.3-0.4c0,0-0.5,0.4-0.5,0.4l0-0.2c-0.5,0.5-0.7,0.6-1.1,0.9
				c0.2,0,0.1,0.2-0.3,0.6c-0.3,0.2,0.1-0.2-0.5,0.2c0.1-0.2,0.2-0.3,0.5-0.5c0-0.1,0.1-0.2,0.1-0.2C43,7.4,42.6,7.8,42.4,8
				c0.1-0.1,0.2-0.1,0.2-0.1c0,0-0.2,0.2-0.4,0.4c-0.2,0.2-0.4,0.4-0.4,0.4c-0.2,0-0.1-0.1,0-0.2c-0.2,0.1-0.3,0.2-0.5,0.4
				c0-0.1-0.1-0.2,0.3-0.5c0,0-0.2,0.1-0.4,0.3c-0.2,0.1-0.4,0.3-0.4,0.3c-0.1,0-0.5,0.1-0.4,0c-0.2,0.1-0.5,0.2-0.8,0.4
				c-0.3,0.1-0.6,0.3-1,0.2c0,0-0.1,0.1-0.2,0.1c-0.6,0-1.1-0.2-1.7-0.4l-0.2-0.4c-0.4-0.3,0.2,0.5-0.5,0c-0.5-0.4,0-0.3-0.1-0.5
				c-0.3-0.1-0.8-0.6-0.7-1.2C35.3,7.4,35.3,7.5,35.4,7.7z M38,2.3c-0.1,0.1-0.4,0.2-0.5,0.2C37.6,2.3,37.7,2.3,38,2.3z M36.1,0.3
				c0.1-0.1,0.3,0,0.5,0C36.4,0.4,36.2,0.4,36.1,0.3z M36.5,13.8L36.5,13.8C35.9,13.6,36.1,13.7,36.5,13.8z M38.3,13.3
				c0.4-0.2,0.4-0.3,0.3-0.2c-0.2,0.1-0.5,0.3-0.8,0.5c-0.1,0-0.2,0.1-0.3,0.1c-0.1,0-0.3,0.1-0.3,0.1c0,0,0.1,0,0.2,0
				c0.1,0,0.2-0.1,0.3-0.1l0.1,0c0.1,0,0.1-0.1,0.2-0.1C38,13.5,38.2,13.4,38.3,13.3z M54.8,5.6l-0.1-0.1C55,5.5,54.9,5.5,54.8,5.6z
				"/>
			<path fill="#E52F2C" d="M37.5,0.1C37.5,0.2,37.5,0.2,37.5,0.1C37.6,0.2,37.6,0.2,37.5,0.1z"/>
			<path fill="#E52F2C" d="M38.7,9.5L38.7,9.5C38.7,9.5,38.7,9.4,38.7,9.5L38.7,9.5z"/>
			<path fill="#E52F2C" d="M28.3,8.2C28.2,8.1,28.2,8,28.1,8C28.1,8,28.1,8.1,28.3,8.2z"/>
			<path fill="#E52F2C" d="M40.1,15c0,0,0-0.5,0-0.5C40.2,14.7,40.1,14.8,40.1,15C40.1,14.9,40.2,14.8,40.1,15z"/>
			<path fill="#E52F2C" d="M35.8,16.7c-0.1,0-0.1,0-0.2,0.1l0,0.1C35.9,16.7,36.1,16.7,35.8,16.7z"/>
			<path fill="#E52F2C" d="M39.5,15.5c-0.1,0-0.2,0.3-0.5,0.6l0,0C39.2,16.1,39.4,15.8,39.5,15.5z"/>
			<path fill="#E52F2C" d="M39,16.1c-0.1,0.1-0.2,0.1-0.2,0.2C38.8,16.3,38.8,16.2,39,16.1z"/>
			<path fill="#E52F2C" d="M39.4,13.5c0,0.1,0.4-0.1,0.3-0.1c0.2-0.1,0-0.1-0.2-0.1C39.3,13.3,39.1,13.4,39.4,13.5z"/>
			<path fill="#E52F2C" d="M38.9,15.7l0.2-0.1l0-0.2C39.1,15.4,38.9,15.7,38.9,15.7z"/>
			<path fill="#E52F2C" d="M39,13.9c0,0,0.4-0.2,0.4-0.2c0,0,0,0,0.1,0.1c0-0.3-0.2,0-0.2,0C39.1,13.9,39,13.9,39,13.9z"/>
			<path fill="#E52F2C" d="M39.4,13.8c0,0.2,0,0.3,0.1,0.4C39.5,14.1,39.5,14,39.4,13.8z"/>
			<path fill="#E52F2C" d="M39.1,15.1l0.1-0.2c0,0,0.1-0.4,0.1-0.4C39.3,14.6,39.1,15.1,39.1,15.1z"/>
			<path fill="#E52F2C" d="M33.6,13.3c0,0-0.1-0.1-0.2-0.2c-0.1-0.1-0.2-0.2-0.2-0.2c-0.1,0,0,0.1,0.2,0.3
				C33.5,13.3,33.7,13.4,33.6,13.3z"/>
			<path fill="#E52F2C" d="M35,14.4c-0.1-0.1-0.1-0.1-0.2-0.2l-0.1,0.2L35,14.4z"/>
			<path fill="#E52F2C" d="M33.4,13.7c-0.1,0-0.8-0.5-0.2,0C33.3,13.8,33.9,14.1,33.4,13.7z"/>
			<polygon fill="#E52F2C" points="27.8,7.3 28,7.4 28.1,7.1 			"/>
			<path fill="#E52F2C" d="M22,6.4c-0.6,0.4,0,0.2-0.5,0.6c-0.1,0.2,0.4-0.3,0.3-0.1C22.1,6.5,22.3,6.4,22,6.4z"/>
			<path fill="#E52F2C" d="M21.8,6.9c0,0-0.1,0.1-0.1,0.2C21.7,6.9,21.8,6.9,21.8,6.9z"/>
			<polygon fill="#E52F2C" points="42,16.5 41.6,16.7 41.9,16.6 			"/>
			<path fill="#E52F2C" d="M41.5,17.1L41.3,17l-0.1,0.3C41.2,17.3,41.4,17.1,41.5,17.1z"/>
			<path fill="#E52F2C" d="M39.1,2.5L39.1,2.5c0-0.1-0.1-0.1-0.3-0.1L39.1,2.5z"/>
			<polygon fill="#E52F2C" points="35.4,4.8 35.4,4.8 35.2,4.9 			"/>
			<path fill="#E52F2C" d="M36.3,8.4c-0.1-0.1-0.2-0.2-0.3-0.3C36.3,8.3,36.2,8.6,36.3,8.4z"/>
		</g>
	</g>
	<g>
		<defs>
			<path id="SVGID_3_" d="M52.7,5.4c2.5-0.9,4.8-0.3,6.9,1.1c0.5,0.3,1,0.6,1.3,1.1c0.1,0.2,0.5,1.1,0.6,1.1c-2.2,0-4.5-0.2-6.6,0.6
				c-1.8,0.7-2.8,1.6-3.9,3.1c-1.2,1.6-2.4,3.1-3.5,4.8c-0.9,1.2-1.7,2.5-2.8,3.5c-2.8,2.6-6.6,3.2-10.5,3.6
				c-0.6-1.2-1.2-2.5-1.7-3.7c-0.1-0.2-0.2-0.4-0.1-0.6c0.1-0.2,0.3-0.4,0.5-0.5c2.2-1.1,4.3-2.2,6.5-3.2c0.8-0.4,1.7-0.8,2.4-1.4
				c0.6-0.5,1.2-1,1.7-1.6c1.2-1.2,2.3-2.4,3.5-3.5C48.7,8,50.5,6.2,52.7,5.4z"/>
		</defs>
		<clipPath id="SVGID_4_">
			<use xlink:href="#SVGID_3_"  overflow="visible"/>
		</clipPath>
		<path clip-path="url(#SVGID_4_)" fill="#E21B17" d="M24.8,20.3l-0.8-1l-1.3,0.2l-0.2,0.3l0.5,0.4l-0.2,0.3
			c8.6,2,13.6,3.5,14.9,4.5l1.5-0.5l0.2-0.3L39.2,24L24.8,20.3z M24,22.9c-0.2,0.7,0.1,1.3,0.9,1.9l0.3,0.2l7.1,1.6l0.2-0.3
			l-0.3-0.2C28.2,25.1,25.5,24,24,22.9z M27.3,19.6l0.5,0.4l2.5,0.7l-0.1-0.5l0.2-0.3c1.2-0.1,5.9,0.7,14.2,2.4l0.4-0.5
			c-9.5-2.8-15.4-3.6-17.6-2.4L27.3,19.6z M37.3,15.4l13.1,2.8l1.2-1.1l-12.3-3c-0.5-0.3-1-0.1-1.7,0.8L37.2,15L37.3,15.4z M36,16.5
			l0.1,0.9l12.2,2l0.4-0.5C42.3,17,38.1,16.2,36,16.5z M41.3,12.6l-0.4,0.5l0.5,0.4c7.7,2.3,11.7,3.1,12.2,2.5l1.1-0.9l-0.3-0.2
			C46.4,13.2,42.1,12.4,41.3,12.6z M37.6,19l0.3,0.2c4.7,1.2,7.8,1.7,9.2,1.5L47,20.2C41,19,37.9,18.6,37.6,19z M43.6,11.5l-0.2,0.3
			l10.7,2.5c1.6,0.3,2.7,0,3.5-1.1C52.1,11.9,47.5,11.3,43.6,11.5z M41.5,21.9c-0.6,0.8-2.1,0.6-4.6-0.5l-0.4,0.5l0.3,0.2
			c2.8,1,4.3,1.3,4.6,0.9l0.6-0.8L41.5,21.9z M49.4,8.8l-0.5-0.9l-0.2,0.3l-2.9,1.9l0.5,0.4l3,0.6l0.4-0.5l-1.2-0.9
			c0.2-0.3,1.2-0.1,3,0.6L61.9,11l0.8-1.1L49.4,8.8z M49.5,7.6l0.3,0.2c7.8,1,12.6,1.4,14.3,1.1l0.4-0.5l-0.3-0.2L50.4,7L49.5,7.6z
			 M52.5,5.6l-0.4,0.5l0.3,0.2c9,1.2,13.8,1.4,14.3,0.7l0.4-0.5l-0.3-0.2C59.3,5.6,54.6,5.3,52.5,5.6z M70.7-2.4l0.3,0.2l3.4,0.5
			l0.2,0.2l-0.2,0.3l-7.5-0.2l-1.3,0.7l-0.2,0.3l6.4,1.1C71.5,1,68.9,1,64,0.5L63.6,1l7.6,1.5l-0.4,0.5c-6-1.1-10.5-1.2-13.4-0.4
			l0.2,0.2c0.6,0.5,4,1,10.2,1.7L68,4.7l-0.4,0.6c-7.9-1.1-12-1.6-12.3-1.3l-0.2,0.3l0.2,0.2c8.5,1.2,13,1.5,13.4,0.9
			c1.5-0.3,2.8-1.2,4-2.8c1.5-0.3,2.4-0.7,2.8-1.2l-0.1-0.9c1.7-0.2,2.9-0.8,3.7-1.8l-0.1-0.5l-0.3-0.2C73.7-2.7,71-2.8,70.7-2.4z
			 M52.9,11.3l-0.2,0.3l0.2,0.2c4,0.8,6.2,0.9,6.6,0.3l-0.2-0.2L52.9,11.3z M62.7-0.8c0.4,0.2,1.1,0,2-0.6l-0.2-0.2
			C64.1-1.9,63.5-1.7,62.7-0.8z M87.7-15l-1,1.3l0.3,0.2l0.4-0.5l0.5,0.4c-1,1.3-2.7,1.8-5.3,1.4l-0.9-0.3l-2.3,1.6l0.2,0.2l1.4,0.6
			c-2.6,0.2-4.3,0.6-4.8,1.4l0.5,0.4L76.4-8l1.9,0.6c-3.6,0.1-5.5,0.3-5.8,0.6l-0.5,0.1l-0.2,0.3L71.9-6l0.2,0.2L78-5.6l0.5,0.4
			c-6.3,0-9.6,0.1-9.9,0.5L68-3.9l0.2,0.2c8.6,1,13.2,1.2,13.6,0.6l1-0.9l0.2-0.3l-0.3-0.2l-4.4-0.8c0.6-0.3,2.7-0.3,6.1,0l1.3-1.2
			l-0.3-0.2l4.7-2.7l-0.2-0.2L88.9-10c0.3-0.3,0.6-0.3,1.1,0l0.5-0.1l0.2-0.3l-0.1-0.5l-0.3-0.2l-0.4,0.1l-0.2-1.3l0.2-0.3L88.1-13
			l0.2-0.3l0.5-0.1l0.2-0.3l0.3-1L87.7-15z M79.1-12.7l-0.4,0.5L79-12c0.5-0.6,1.3-1.1,2.6-1.4l0.6-0.8l-0.2-0.2
			C81.5-14.6,80.6-14,79.1-12.7z M85.6-7l-0.2,0.3l-6.6-0.3l-0.5-0.4C81.1-7.8,83.6-7.6,85.6-7z M87.8-11.6l0.3,0.2l-0.2,0.3
			c-0.5,0.6-2.4,0.5-5.9-0.2l0.4-0.6C84.9-11.5,86.8-11.4,87.8-11.6z M86.9-16l0.7,0.6l0.8-1L86.9-16z M85.1-9.9l0.3,0.2
			c-0.3,0.5-1.3,0.4-3-0.1l0.2-0.3C83.4-10.6,84.2-10.6,85.1-9.9z M87.1-10.1l0.5,0.4l-1.3,0.2l-0.5-0.4L87.1-10.1z M88.7-10.1
			l0.2,0.2l-0.2,0.3l-0.9,0.2l-0.3-0.2l0.2-0.3L88.7-10.1z"/>
	</g>
</g>
</svg>
